<?xml version="1.0" encoding="UTF-8"?>
<!DOCTYPE svg PUBLIC "-//W3C//DTD SVG 1.1//EN" "http://www.w3.org/Graphics/SVG/1.1/DTD/svg11.dtd">
<!-- Creator: CorelDRAW -->
<svg xmlns="http://www.w3.org/2000/svg" xml:space="preserve" width="32.1229mm" height="5.053mm" version="1.1" style="shape-rendering:geometricPrecision; text-rendering:geometricPrecision; image-rendering:optimizeQuality; fill-rule:evenodd; clip-rule:evenodd"
viewBox="0 0 2823.76 444.18"
 xmlns:xlink="http://www.w3.org/1999/xlink"
 xmlns:xodm="http://www.corel.com/coreldraw/odm/2003">
 <defs>
  <style type="text/css">
   <![CDATA[
    .fil0 {fill:white}
   ]]>
  </style>
 </defs>
 <g id="Camada_x0020_1">
  <metadata id="CorelCorpID_0Corel-Layer"/>
  <path class="fil0" d="M2424.06 23.81c-5.86,3.81 -1.92,3.67 -7,9.06 -2.4,2.54 0.61,0.28 -2.99,2.39l-0.27 8.43c-1.2,0.69 -2.4,1.13 -3.6,1.93 -0.46,11.48 -3.45,-3.07 -3.45,15.47 -5.08,2.25 -3.34,4.69 -3.34,11.81 -1.01,7.33 -3.52,-5.44 -3.29,16.4 0.11,10.2 -1.56,4.17 -3.38,8.97l0 32.73c0.37,2.65 6.3,4.73 2.58,8.4 -2.07,2.06 -9.17,0.43 -12.65,0.76 -5.08,0.47 -3.38,3.06 -10.58,2.98 -4.37,-0.05 -8.74,-0.11 -13.11,0.04l-2.45 3.7c-5.68,0 -14.42,-1.42 -18.35,1.78 -4.2,3.41 -9.96,-0.17 -13.34,2.2 -0.74,0.52 -0.01,0.12 -1.13,1.26 -1.13,1.13 0.67,0.41 -1.55,1.44l-13.57 0c0.79,-2.51 1.2,-1.9 2.22,-3.6 1.59,-2.62 0.26,-1.24 1.27,-3.39 0.77,-1.67 0.42,-0.87 1.08,-1.66l3.72 -4.38c2.2,-2.85 1.32,-4.34 3.51,-7.16 2.32,-2.98 1.34,-4.35 1.49,-9.2 3.85,-1.78 2.17,-0.51 3.39,-4.58 0.83,-2.79 2.33,-3.19 3.15,-5.88l3.02 -4.46c1.58,-2.07 -0.2,-6.65 1.83,-8.69l2.11 -2.7c0.49,-1.57 0.2,-4.36 0.2,-6.12 0.35,-1.5 3,-1.49 3.37,-5.73 0.22,-2.6 -0.04,-6.7 -0.04,-9.46 5.35,-2.32 3.34,-6.57 3.34,-17.54 0,-7.37 0,-14.73 0,-22.09 -0.31,-1.84 -1.72,-2.3 -2.77,-3.49 -1.63,-1.84 -3.11,-2.95 -3.79,-5.47 -0.38,-1.41 0.23,-1.23 -0.53,-2.59 -1.02,-1.86 -2.37,-1.2 -4.83,-1.21 -3.09,-1.67 -0.57,0.72 -2.45,-3.12 -2.67,-0.25 -3.43,0.07 -5.27,-0.87 -3.05,-1.56 0.44,-1.42 -3.74,-2.69l-12.28 0c-3.66,0.62 -1.82,2.07 -4.29,3.01 -1.27,0.47 -1,0.17 -2.07,0.44 -2.39,0.62 -3.77,2.26 -5.56,4.07 -0.54,0.55 -0.65,0.7 -1.2,1.27l-13.29 13.69c-4.49,4.61 -1.46,1.53 -3.39,6.47 -1.41,3.6 -0.43,0.54 -2.22,2.6 -2.13,2.43 -0.4,1.1 -1.57,4.06l-1.78 2.44c-1.64,2.11 -1.18,0.18 -1.2,4.31 -1.68,3.33 -0.76,0.87 -3.68,3 -0.33,7.47 0.69,3.47 -3.33,6.82l-0.11 7.37c-0.19,0.17 -0.55,0.06 -0.67,0.39 -0.66,2.03 -2.7,0.05 -2.71,5.24 -0.03,14.21 -2.86,7.71 -2.93,15.59 -0.02,2.98 0.07,6.06 0.07,9.06 -1.35,3.77 -2.63,1.36 -3.76,4.91 -0.97,6.14 0.07,25.91 -0.03,34.41 -0.08,6.3 -0.71,6.12 3.37,8.54l-0.15 15.85c-16.63,0.33 -3.57,2.99 -19.03,3.08 -5.16,5.79 2.65,2.46 -9,3.73 -5.45,1.2 1.2,1.31 -4.91,2.91 -2.92,0.38 -5.84,-0.09 -7.72,1.49 -3.47,2.92 -5.53,1.85 -10.28,1.88l-0.5 3.68c-2.99,0.05 -4.64,0.18 -6.46,1.71 -3.94,3.31 -6.08,-0.01 -9.85,3.29 -1.85,1.62 1.56,1.72 -9.09,1.72l0.76 -1.47c1.12,-1.95 0.38,-0.4 1.05,-1.75 1.36,-2.7 0.31,-1.24 1.04,-3.72 1.03,-3.48 -0.2,-0.52 1.56,-2.73 1.58,-2 1.18,-3.84 2.56,-6.37 2.97,-5.46 1.15,-6.27 5.33,-8.54 0,-7.1 -0.91,-6.47 3.17,-10.23 1.33,-2.74 -0.98,-5.63 1.55,-8.86 2.07,-2.65 0.26,1.38 1.95,-2.59 0,-3.75 -0.76,-8.45 1.13,-10.73 2.01,-2.44 1.38,1.82 2.22,-3.89 0.19,-1.28 0.01,-5.12 0,-6.65l-2.29 -27.66c-3.88,-5.3 3.61,-0.14 -4.33,-7.95l-2.08 -2.05c-0.12,-0.11 -0.3,-0.28 -0.41,-0.4l-2.62 -2.31c-1.71,-1.49 -0.85,0.04 -2.49,-3.95 -12.84,0 -6.05,-2.46 -14.02,-3 -6.68,-0.45 -8.4,2.39 -14.54,2.66 -1.63,3.44 -0.8,2.35 -3.41,4.61 -0.12,0.11 -0.32,0.26 -0.45,0.38 -2.65,2.29 -8.71,7.53 -10.07,10.55 -0.96,2.14 0,1.83 -1.05,3.87 -1.37,2.65 -1.79,1.96 -2.91,5.39 -1.57,4.87 -1.89,0.23 -3.48,5.28 -2.41,7.59 -2.9,2.36 -3.62,13.63 -2.08,1.22 -2.86,0.84 -3.63,3.41 0,11.36 -1.42,4.78 -3.33,9.82l0 12.27c-1.53,4.98 -1.76,0.31 -3.34,4.91l0 39.28c1.27,4.76 2.75,0.32 3.37,6.48 0.28,2.76 -0.03,7.7 -0.03,10.71 -0.47,2.27 -2.78,3.26 -4.32,5.21l-9 0.31c-1.77,5.12 0.86,2.32 -3.96,3.74 -6,1.75 -0.47,0.91 -5.04,3.27l-5.73 0c-2.67,0.44 -1.53,2.29 -5.71,3.29 -2.66,0.62 -0.64,-0.64 -2.97,0.88 -1.86,1.22 0.69,-0.55 -1.25,1.2 -2.33,2.1 -4.27,0.84 -7.25,1.32 -5.27,1.75 1.6,2.76 -8.47,3.47 -1.8,2.71 -0.05,2.98 -2.99,4.05l-5.72 0c-4.47,2.31 0.79,1.73 -4.99,3.31l-1.37 0.28c-2.48,0.76 -0.08,-0.13 -1.79,0.74 -2.93,1.49 0.29,0.93 -3.44,1.78 -0.81,-7.16 -2,-5.46 1.42,-10.28l4.68 -10.15c0.62,-1.87 0.28,-1.11 1.44,-2.6 1.71,-2.22 1.68,-3.19 1.97,-6.54 2.87,-1.78 1.98,0.57 3.15,-3.27 0.44,-2.94 -0.05,-5.91 1.65,-7.89 2.99,-3.48 1.2,-5.06 1.67,-10.11 0.38,-3.98 2.72,-2.88 3.36,-5.73 1.27,-5.65 -2.36,-16.46 1.34,-21.17 1.79,-2.29 0.24,1.28 1.99,-2.56l0 -10.32c-4.84,-2.69 -3.33,-4.5 -3.33,-11.77 -1.26,-5.68 -1.27,0.4 -3.13,-5.27 -2.08,-6.34 -1.48,-3.38 -7.39,-9.92 -1.22,-1.35 -0.69,-0.87 -2.07,-2.05 -2.94,-2.51 0.74,-2.08 -10.69,-2.19l-1.42 -2.1c-0.13,-0.17 -0.38,-0.42 -0.5,-0.57 -0.12,-0.15 -0.34,-0.4 -0.53,-0.6 -8.53,0 -5.55,-0.41 -9,3.28 -11.5,0.12 -6.95,0.72 -10.13,2.65 -3.65,2.21 -3.33,-0.17 -8.26,4.91 -2.99,3.08 -13.59,11.83 -14.39,15.15 -0.17,0.69 -0.17,2.28 -0.2,3.07 -4.05,1.13 -2.97,-0.12 -3.9,3.03 -1.77,6 -0.7,2.13 -3.51,5.74 -5.92,7.63 -1.97,4.11 -3.37,10.23 -1.69,3.52 2.04,-2.13 -0.87,1.11 -2.25,2.5 -1.72,1.32 -2.49,4.65 -1.6,6.95 -1.51,0.6 -3.32,5.7l0 9c-1.68,4.87 -1.93,0.36 -3.33,4.91l0 49.91c0.72,2 1.52,2.01 3.13,3.27l0.25 11.45c3.52,3.45 3.27,-0.65 3.29,6.96 -1.7,0.58 -3.49,0.42 -4.84,0.96 -2.05,0.81 -1.31,2.45 -3.7,3.04l-5.72 0c-3.58,1.16 -0.34,1.84 -4.91,3.34 -6.36,0 -6.59,-1.3 -8.53,3.33 -3.55,0 -7.18,-0.63 -9.84,1.6 -0.14,0.11 -0.32,0.3 -0.46,0.42 -2.28,1.94 -6.65,1.39 -9.82,1.42l-0.46 1.85c-0.08,0.16 -0.24,0.41 -0.33,0.57 -0.1,0.17 -0.32,0.46 -0.4,0.61 -0.1,0.15 -0.27,0.44 -0.45,0.62l-10.64 0.05c-0.85,1.08 -1.45,2.17 -2.1,3.29 -10.79,0 -6.33,0.15 -9.57,2.22 -1.06,0.69 -0.87,0.98 -1.71,0.25 -1.56,-1.35 -0.81,-5.6 -0.81,-7.96l10.31 -8.4c0.11,-2.66 0.41,-3.92 1.97,-5.56 1.98,-2.11 -0.16,-2.1 4.66,-4.52 0.8,-10.03 1.59,-2.54 3.41,-9.19 1.41,-5.12 3.16,-3.53 3.59,-9.63 5.25,-3.88 3.62,-1.48 3.62,-10.45l3.33 -1.67 0.04 -8.8c6.11,-2.5 2.51,-8.15 3.48,-19.99l2.29 -1.38c2.9,-2.82 -1.93,-2.25 -2.46,-5.99l0 -12.79c-3.51,-3.06 -3.73,-2.89 -3.9,-7.67 -3.14,-1.96 -1.05,-0.34 -3.09,-2.4 -0.12,-0.12 -0.28,-0.31 -0.4,-0.43 -0.11,-0.11 -0.29,-0.29 -0.41,-0.41l-3.23 -3.32c-0.52,-0.55 -0.94,-0.88 -1.66,-1.54 -1.74,-1.6 -1.51,-1.47 -2.63,-3.04 -12.53,-0.11 -7.09,-2.68 -11.25,-3.38 -7.07,-1.19 -6.91,2.51 -12.25,2.95 -1.38,0.11 -3.59,-0.05 -5.14,0l-3.66 4.41c-5.34,5.19 -2.78,0.05 -8.21,4.98l-2.54 2.24c-0.67,0.73 -0.47,0.71 -1.48,1.78 -2.87,3.02 -1.27,2.58 -5.5,4.71 -0.58,6.66 -2.41,7.1 -6.5,11.19 -2.44,2.44 -0.46,0.79 -3.5,2.73 -0.54,5.55 -1.78,8.42 -6.84,10.6 -0.18,8.04 -0.88,3.25 -2.8,7.11 -2.4,4.84 2.18,3.09 -3.93,6.61 0,15.69 -3.31,2.52 -3.36,18.06 -1.31,0.85 -2.85,1.35 -4.1,2.29 -0.08,6.25 0.87,6.23 -3.32,10.16 -0.03,4.87 1.2,22.4 -1.22,25.45 -1.11,1.41 -0.87,0.65 -1.52,1.74 -1.17,1.97 -0.71,2.9 -0.52,5.54l3.16 1.2c0.03,3.58 0.31,8.57 0.08,11.98 -0.84,12.1 -14.74,5.09 -22.3,7.67 -3.4,1.16 -0.17,2.37 -3.56,3.13l-32.73 0c-4.59,1.5 0.11,1.73 -4.91,3.34 -2.25,0.34 -14.95,1.01 -16.78,-0.84 -0.45,-0.45 -1.02,-0.04 -0.78,-2.64 0.4,-4.3 0.47,-1.59 1.17,-2.5l8.67 -8.59c3.74,-4.28 15.86,-14.08 17.25,-18.65 1.19,-3.92 -1.08,-0.97 2.16,-4.54 3.3,-3.63 4.54,-1.78 4.62,-7.57 0.57,-2.4 2.07,-0.31 3.86,-5.8l1.57 -2.75c1.75,-2.19 1.69,-5.1 3.39,-7.24 2.8,-3.55 0.54,-5.65 2.28,-9.06 1.65,-3.23 2.17,0.93 2.31,-6.16 0.16,-7.59 -1.94,-9.86 3.24,-12.9 -3.84,-8 -2.93,3.03 -3.38,-15.16 -4.9,-2.43 -3.24,-0.99 -3.99,-7.39 -9.19,-0.28 -2.84,-1.45 -8.4,-3.41l-26.19 0c-3.74,2 -0.23,0.9 -2.73,2.5 -2.58,1.66 -1.7,0.13 -4.32,1.35 -4.11,1.93 -0.08,2.63 -7.83,2.92 -1.55,8.59 -2.15,-1.12 -3.95,6.8 -6.41,0.34 -4.18,-0.51 -7.34,2.36 -1.43,1.3 -0.7,0.76 -2.73,2.11 -4.4,2.89 -8.64,7.53 -12.19,11.56 -1.72,1.94 -1.57,3.66 -2.74,6.19 -0.73,1.58 -0.47,0.77 -1.01,1.56l-5.89 6.34c-1.97,2.07 -1.36,3.96 -2.85,6.26 -2.36,3.64 -2.07,-1.44 -2.67,7.12l-3.94 1.7c-0.47,10.43 -3.45,-0.38 -3.45,14.67 -1.19,0.64 -2.73,1.29 -3.69,2.19 -0.07,2.17 0.19,8.24 -0.23,9.86 -1,3.87 -2.91,1.35 -3.23,6.45 -0.41,6.43 0.53,13.26 -0.23,19.82 -6.33,0.28 -4.31,0.87 -6.71,-3.03 -15.92,-0.25 -12.15,1.93 -17.19,-3.88 -4.54,-0.03 -12.85,1.43 -16.01,-1.82 -0.04,-0.04 -1.02,-1.35 -1.17,-1.51 -2.28,-0.09 -4.35,-0.02 -6.6,-0.03 -6.65,-0.02 -4.27,-2.76 -10.51,-3.04 -5.97,-0.25 -6.72,1.56 -10.22,-3.6l-8.74 -0.21c-0.57,-8.52 2.7,-3.23 7,-7.89l5.83 -6.6c5.86,-5.54 6.92,-3.74 10.65,-6.56l1.44 -1.14c2.43,-1.72 3.68,-4.03 5.83,-6.21l4.51 -4.57c1.24,-1.14 0.14,0.11 1.64,-1.56 0.11,-0.11 0.25,-0.31 0.35,-0.43 4.1,-4.8 8.76,-9.65 13.82,-13.18 0.03,-0.53 0.07,-2.57 0.15,-2.88 0.88,-3.62 3.31,-4.11 6.46,-7.71 6.11,-6.98 1.38,-5.11 5.44,-9.34l3.87 -3.5c1.74,-2.45 0.47,-4.03 0.92,-7.19 0.67,-4.62 0.48,-1.49 1.64,-3.37 0.1,-0.16 0.26,-0.33 0.35,-0.5 0.11,-0.18 0.22,-0.38 0.31,-0.57 1.59,-3.52 0.82,-3.86 3.73,-6.2l0.18 -20.46c-0.42,-1.71 -1.79,-1.64 -2.51,-2.76 -1.85,-2.87 -1.2,-7.37 -6.28,-9.32l-5.02 -2.29c-1.46,-1.04 0.35,-0.15 -1.58,-0.93 -2.45,-0.99 -1.23,0.29 -3.72,-1.2 -2.33,-1.42 0.75,-1.1 -3.38,-2.51l-15.54 0c-3.1,1.39 -1.06,-0.64 -2.46,3.61l-8.18 0.18c-1.14,1.3 -0.91,-0.98 -1.64,3.09l-6.26 0.28c-1.42,3.13 -1.28,2.21 -3.59,4.48l-2.87 2.87c-1.02,1.02 -0.73,0.83 -1.61,1.64l-2.17 1.88c-0.12,0.12 -0.29,0.3 -0.41,0.42 -0.12,0.12 -0.28,0.31 -0.4,0.43l-2.88 2.87c-1.08,1.13 -0.52,0.67 -1.58,1.71l-18.09 17.86c-2.8,3.54 0.84,2.24 -4.81,8.36l-2.32 2.58c-0.11,0.18 -0.21,0.39 -0.3,0.58 -0.1,0.21 -0.16,0.43 -0.23,0.65 -1.6,4.56 0.85,-2.8 -0.31,1.41 -0.55,2.01 -0.04,1.36 -1.15,2.72l-0.84 0.77c-0.12,0.11 -0.32,0.27 -0.44,0.4 -6.27,5.93 -3.08,2.16 -4.91,7.42 -1.44,4.11 -1.45,-0.14 -3.07,4.38 0,3.09 0.58,5.08 -0.91,7.11 -0.1,0.13 -0.3,0.27 -0.4,0.39 -0.11,0.13 -0.32,0.25 -0.43,0.38 -1.1,1.27 -0.33,-0.3 -1.13,1.41 -0.65,1.38 -0.5,2.89 -0.67,4.62l-3.07 1.39c-0.16,6.59 1.4,8.1 -3.39,10.47 0,10.11 1.21,9.74 -9.48,9.16l-2.96 -3.31c-0.27,-0.27 -1.48,-1.52 -1.63,-1.65 -2.52,-2.14 -4.56,-1.32 -7.22,-3.38 -1.69,-1.3 -3.3,-1.5 -5.74,-1.71l-4.91 -7.25c-5.05,-0.29 -3.96,0.48 -6.82,-2.25 -10.69,-10.23 -3.92,-5.58 -10.57,-8.19l-4.06 -3.32c-3.58,-3.09 -6.2,-6.44 -10.1,-8.97 -1.53,-0.98 -0.18,0.21 -1.34,-0.92l-0.97 -1.33c-0.11,-0.14 -0.23,-0.36 -0.33,-0.49l-3.97 -4.3c-1.71,-1.89 -1.59,-3.13 -4.01,-3.72l-12.27 0c-1.79,0.78 -0.92,0.55 -2.1,1.6l-4.19 3.84c-0.79,0.77 -1.58,1.6 -2.29,2.26l-0.2 10.64 14.57 14.7c2.32,2.28 2.48,3.06 4.54,5.25 3.6,3.85 4.42,1.34 8.26,4.17l3.61 3.5c6.36,7.75 6.32,7.7 11.8,8.02 0.88,1.32 1.04,1.99 2.22,3.43l2.69 3.82c10.07,0.84 2.74,1.8 9.45,3.49 4.35,1.09 5.45,2.68 7.59,6.48 2.38,0.24 3.71,-0.11 5.68,0.87l3.16 1.96c5.3,1.91 -3.76,-1.16 1.37,0.32 3.17,0.91 5.61,3.23 7.03,6.63l6.19 0.16c1.74,6.28 1.13,1.43 3.16,5.13 -1.32,3.66 -3.92,1.43 -2.63,6.45 0.97,3.79 2.8,1.63 3.17,5.83 0.45,4.96 -0.03,12.72 -0.03,17.99 0.39,1.71 -0.25,-0.55 2.09,2.45 2.43,3.11 0.33,7.7 1.25,11.45 0.67,2.76 2.19,1.03 3.3,5.04 1.59,5.77 -0.8,1.36 3.22,4.78l0.24 8.18c1.79,1.39 1.77,1.31 3.19,2.7l3.73 2.73c0.49,8.8 2.16,3.39 3.49,9.34 0.97,4.35 3.37,4.83 6.17,8.03l4.78 5.88c0.11,0.12 0.3,0.28 0.41,0.4 5.56,5.78 3.54,0.53 10.78,7.17 2.96,2.73 2.4,1.78 5.85,3.08 2.36,0.89 0,-0.26 1.67,0.92 0.97,0.69 -0.31,0.98 2.61,2.09 4.34,0.01 8.83,0.12 13.15,0.07 4.3,-0.06 3.06,-0.21 5.81,-2.18 3.1,-2.23 4.54,-0.85 7.33,-4.09 9.47,-10.92 9.44,-4.03 9.44,-20.13 4.89,-2.6 4.92,-6.52 0,-9.12 0,-22.01 -0.33,-9.2 -4.03,-20.57 -2.41,-7.43 -1.59,3.09 -2.63,-10.07 -0.4,-5.05 -2.54,-1.37 -3.36,-4.89 -0.1,-8.95 -3.38,0.62 -3.32,-10.33 10.36,-0.25 3.12,1.72 7.06,3.19l10.64 0.08c2.46,0.65 0.69,2.08 3.71,3.12 5.96,2.06 14.9,-1.86 20.6,0.75 4.2,1.93 -1.54,1.6 4.32,2.33 2.51,0.32 5.14,-0.66 6.65,0.78 2.07,1.98 0.82,10.6 0.82,13.99 0.84,2.41 1.19,1.83 3.12,3.27 0.67,6.67 -1.5,7.73 3.56,10.34 0,11.5 1.24,6.43 2.98,11.16 0.56,1.52 0.14,1.44 0.55,2.79 1.69,5.6 2.67,-1.63 3.26,8.03l7.25 4.91c0.79,9.67 5.6,5.18 6.64,15.97 4.42,2.27 1.63,1.05 4.82,3.69 0.12,0.11 0.33,0.25 0.45,0.35l0.91 0.72c0.12,0.11 0.31,0.27 0.43,0.39 2.5,2.41 3.62,4.69 6.29,6.72l10.26 10.31c2.37,2.36 0.21,0.98 2.21,1.81 5.18,2.16 3.4,-1.73 9.77,7.43 6.43,0.3 4.43,0.85 6.05,2.22 2.37,1.99 3.67,1.2 7.45,1.2 4.55,1.48 1.29,2.1 4.91,3.34 5.2,0 10.41,0.04 15.6,0.05 7.79,0.01 3.8,-2.92 12.22,-3.56l1.28 -3.1c5.28,-0.14 4.08,0.86 6.91,-2.08l0.81 -0.85c2.43,-2.62 1.73,-5.12 3.79,-7.67 1.45,-1.8 1.81,-4.97 3.06,-6.72 0.88,-1.25 0.99,0.47 1.94,-2.8l0 -12.28c-0.73,-2.01 -1.5,-2 -3.14,-3.27 -0.19,-2.09 -0.02,-3.91 -0.17,-5.78 -0.39,-4.6 -1.85,-2.17 -3.52,-7.89 -0.66,-2.25 -1.21,-2.09 -3.02,-3.52l-0.35 -5.73c-1.6,-0.48 -2.01,-0.55 -3.16,-1.04l-0.08 -4.98c-4.27,-2.65 -6.39,-5.59 -11.66,-9.69 -4.38,-3.4 -7.77,-8.72 -11.8,-12.62 -0.12,-0.12 -0.3,-0.29 -0.42,-0.41 -2.11,-2.05 -6.94,-7.82 -9.31,-8.59l-4.09 -1.12 -0.16 -5.14c6.29,-0.39 12.91,-0.16 19.15,-0.16 10.15,0 12.38,2 15.47,-3.72l22.22 0.01c5.32,-0.37 1.87,-0.75 5.68,-2.81 5.29,2.8 4.06,4.03 5.32,7.38 1.51,4.03 1.17,-0.03 2.67,3.89 1.9,4.95 -1.67,5.51 3.51,9.55 0.4,11.76 1.8,6.23 3.63,10.98l3.36 9.21c1.52,4.62 2.77,0.36 3.35,8.76 0.48,0.32 1.34,0.64 1.98,1.14l5.78 5.75c4.09,3.97 0.95,3.86 4.92,8.24l21.11 21.37c3.13,3.16 3.04,4.44 7.39,5.45 0.9,0.2 2.07,-0.19 5.13,3.38 0.11,0.13 0.28,0.32 0.39,0.45 3.05,3.67 2.32,2.07 6.5,3.73l2.65 1.73c2.48,1.27 3.9,0.7 6.63,2.43l5.69 1.38 1.2 3.14 28.74 0c3.02,-6.07 3.7,0.21 11.15,-8.44 1.54,-1.79 0.11,-0.25 2.02,-2 0.12,-0.11 0.32,-0.26 0.44,-0.38l4.15 -3.22c0.19,-7.1 -1.35,-7.67 3.41,-10.45 0,-2.08 0.05,-4.18 0.06,-6.26l-0.28 -3.96c-1.49,-5.23 -2.04,1.56 -2.83,-11.5l-3.47 -2.01c-0.06,-0.5 -0.14,-2.57 -0.22,-2.92 -0.72,-2.9 -2.07,-1.03 -3.15,-9.8 -1.53,-0.61 -1.83,-0.62 -3.04,-1.25l-0.13 -5.3c-9.48,-4.39 2.37,0.84 -5.59,-7.98 -0.12,-0.13 -0.28,-0.32 -0.4,-0.45 -0.11,-0.13 -0.25,-0.33 -0.37,-0.47 -3.96,-4.67 -6.58,-3.07 -6.95,-11.01l-7.42 -6.43c-1.15,-1.2 -1.3,-1.26 -2.47,-2.44l-5.93 -6.23c-6.99,-6.04 -4.25,-0.38 -10.47,-6.8 -0.11,-0.12 -0.29,-0.3 -0.4,-0.42l-3.3 -3.18c-0.43,-0.37 -1.15,-1.01 -1.38,-1.16 -0.94,-0.59 -0.17,-0.34 -1.76,-0.84 -2.73,-0.87 -3.38,-0.23 -5.25,-1.95l-1.25 -1.29c-5.21,-5.27 2.08,-3.65 5.79,-6.68 1.79,-1.47 -1.33,-0.29 1.73,-1.24l13.48 0c2.57,-4.25 2.21,-3.34 8.61,-3.34 3.91,-1.12 1.56,-0.21 3.28,-3.13l8.46 -0.24c2.88,-4.94 3.08,-3.16 10.47,-3.38l1.93 -3.64c12.46,-0.11 6.52,-1.62 10.23,-3.31 4.86,-0.19 5.33,-1.1 6.14,2.87 1.55,7.67 3.38,0.55 3.38,13.39 3.97,2.05 2.51,4.61 4.65,7.53 1.98,2.71 1.47,4.36 3.32,6.57l3.38 6.31c1.47,2.35 1.25,0 2.39,3.9 1.38,4.72 3.33,3.74 3.4,10.04 3.3,1.39 2.25,1 4.18,3.13l1.89 2.15c0.87,1.71 0.08,0.18 0.54,1.83 0.03,0.08 0.41,3.37 4.66,6.29 0.2,0.14 0.83,0.47 1.01,0.6 2.48,1.79 0.04,-1.17 2.05,2.51 1.46,2.66 1.45,5.95 3.46,8.26l3.93 4.05c0.14,0.11 0.35,0.23 0.49,0.33 0.14,0.1 0.35,0.23 0.49,0.34l2.69 2.4c8.92,9.78 -0.33,-3.82 10.86,7.95l0.76 0.85c2.94,2.51 1.33,0.49 4.83,1.57 4.01,1.23 0.69,0.98 3.77,2.2 1.84,0.74 4.18,0.44 6.27,0.44 4.61,1.58 -0.26,1.79 4.91,3.33l12.28 0c2.36,-0.58 1.45,-2.27 3.67,-3.08 1.65,-0.6 4.32,-0.25 6.15,-0.25 3.98,-1.28 1.42,-1.05 2.99,-2.17 3.15,-2.25 0.95,-0.29 4.19,-1.44 2.19,-0.77 7.52,-5.87 8.36,-8.3 1.93,-5.63 -1.21,-1.96 4.06,-7.2 2.55,-2.53 1.27,-0.17 2.93,-3.24 0,-7.63 -1.72,-7.15 3.33,-9.2l0 -21.67c-5.55,-2.19 -2.88,-2.36 -3.51,-10.05 -5.09,-4.08 -1.24,-2.19 -4.03,-6.82 -1.35,-2.24 -0.89,0.49 -2.14,-2.66 -2.23,-5.66 1.79,-2.8 -9.58,-12.7l-9.98 -9.02c-1.13,-0.4 -1.13,-0.15 -2.08,-0.44 -4.16,-1.27 -0.58,-1.67 -6.62,-3.79 -4.34,-1.52 -1.11,-0.95 -3.38,-2.33 -4.92,-2.99 -2.73,1.94 -6.87,-4.5l-8.2 -0.11c-3.74,-6.94 -6.92,-0.33 -11.78,-5.34 -1.42,-1.48 -1.78,-1.48 -2.04,-3.82 2.63,-1.45 2.12,-0.18 4.48,-1.42 2.74,-1.44 0.09,-1.39 3.84,-2.73 1.48,0 4.22,0.19 5.53,-0.18 3.33,-0.94 0.8,-0.91 3.36,-2.36l4.4 -1.35c3.23,-1.56 -0.62,-1.32 3.9,-2.79 10.65,0 4.54,-0.61 9.82,-3.33 3.45,-0.84 4.96,0.77 7.96,-1.6 2.8,-2.22 3.86,-0.9 6.44,-2.58 1.88,-1.22 -0.67,0.55 1.25,-1.2 2.91,-2.62 7.18,0.02 9.85,-2.32 2.81,-2.45 0.98,-2.3 5.89,-2.43 1.99,-3.03 -0.32,-2.18 2.97,-3.67 11.22,0 4.69,-1.78 10.64,-3.34 3.87,0.19 2.36,0.03 4.69,2.09 3.68,3.27 1.58,5.14 4.72,8.33 1.06,1.07 2.54,2.24 3.3,3.26 2.56,3.41 0.4,1.9 1.85,4.79 0.87,1.75 1.54,1.47 3.2,3.23 0.91,0.98 1.6,2.11 3.14,3.45 1.92,1.67 2.07,1.36 3.92,2.55 0.54,7.73 4.57,9.27 9.63,14.14l3.94 2.02c3.32,0.9 1.12,-0.32 3.61,1.94l3.41 3.08c0.11,0.12 0.28,0.3 0.4,0.42l5.05 5.58c1.53,1.71 3.6,4.75 5.58,5.78l3.14 0.96c3.52,1.27 1.09,1.51 5.84,2.65 4.32,1.05 3.02,2 5.91,3.05 2.14,0.77 2.56,0.18 4.49,1.86 1.79,1.56 -1.16,0.1 1.93,1.77 7.6,0 7.12,-1.7 9.25,3.34l32.15 0c1.43,-3.49 0.07,-2.37 3.74,-3.33 4.57,-1.2 2.75,-0.7 6.04,-4.08l4.84 -4.97c1.35,-1.15 0.83,-0.78 2.62,-1.46l0.12 -6.27c4.62,-1.3 2.34,0.58 3.67,-2.45l0 -18.82c-1.43,-3.13 0.68,-1.05 -3.63,-2.45l-0.22 -6.21c-3.67,-1.43 -2.36,-0.54 -3.38,-4.42 -0.63,-2.42 -1.57,-3.41 -3.27,-5.27l-23.79 -25.27c-7.79,-0.69 -5.32,-1.81 -9.94,-5.63 -2.89,-2.38 -0.94,-0.33 -4.13,-1.49 -1.99,-0.72 -1.56,-1.18 -2.92,-2.1 -2.79,-1.9 -1.5,-0.25 -4.34,-1.29 -2.22,-0.82 -0.04,0.21 -1.62,-0.94 -3.28,-2.38 -3.79,-1.52 -6.35,-3.02l1.34 -1.47c0.39,-0.43 0.97,-1.05 1.13,-1.23 0.21,-0.23 0.78,-0.91 1.17,-1.27 1.71,-1.62 3.98,-0.95 6.53,-1.32 4.93,-0.71 -3.27,-3.23 13.1,-3.45 1.78,-7.48 2.35,-1.5 8.6,-3.98 2.43,-0.97 1.43,-2.52 3.67,-3.01 11.57,0 4.9,-2.1 10.64,-3.76 2.11,0 4.36,0.31 6.14,-0.47 1.4,-0.62 4.78,-5.75 7.18,-0.33 1.68,3.77 -0.42,3.17 4.05,5.34 0.12,14.27 0.89,6.44 3.08,11.82 0.83,2.05 0.2,2.54 1.89,4.5 3.02,3.5 0.99,3.03 1.73,7.65 0.42,2.64 2.31,1.42 3.45,4.37l1.85 4.83c1.67,2.55 3.37,3.57 4.45,6.33 1.85,4.72 -1.39,2.16 3.97,4.73l0.25 5.92c7.08,2.61 4.75,5.77 7.71,9.92l4.49 5.28c2,2.07 1.95,2.07 5.09,3.02 0.25,8.4 3.01,4.36 8.09,11.47l1.97 2.28c0.11,0.12 0.28,0.3 0.4,0.42l1.27 1.21c1.71,1.63 2.28,2.59 4.23,3.28 2.57,0.9 3.31,0.66 5.29,2.73l3.9 4.24c0.11,0.12 0.3,0.29 0.42,0.41 0.12,0.12 0.29,0.28 0.42,0.4 2.57,2.43 3.4,2.38 7.85,2.65 0.73,2.16 0.36,1.84 1.34,3.62 6.76,0 7.27,-1.21 9.85,3.3 12.04,0.05 11.16,1.69 12.54,-3.6 7.55,-0.4 7.67,-2.71 13.96,-8.86 2.16,-2.12 1.3,-0.47 2.3,-2.74 1.95,-4.44 -0.94,-3.81 3.86,-5.78l0 -28.89 -3.34 -1.74 -0.04 -8.71 -3.17 -1.15c0.01,-0.62 -0.11,-3.19 -0.17,-3.44 -0.68,-2.8 -2.28,-2.51 -3.16,-5.09 -0.53,-1.53 -0.25,-2.89 -1.89,-4.1 -2.43,-1.8 0.16,0.46 -1.32,-1.05 -2.93,-3 -3.42,-3.6 -3.74,-8.54l-17.36 -20.3c-2.1,-2.14 -2.74,-3.85 -5.55,-4.47 -0.46,-0.11 -2.38,-0.11 -3.02,-0.14 -1.25,-4.18 -3.53,-5.35 -6.56,-8.03 -3.47,-3.07 -6.03,-2.15 -9.27,-5.54 -8.62,-9.01 7.96,-6.31 12.34,-6.75 3.95,-0.4 2.01,-0.04 3.61,-3.38l14.33 -0.01c3.09,-3.84 0.14,-4.24 7.3,-4.22 16.62,0.04 9.41,1.05 15.74,-2.63 2.87,-1.67 13.82,-1.65 15.7,0.37 2.19,2.28 0.84,11.67 0.84,15.53l3.37 1.74c-0.05,23.37 3.31,3.32 3.31,21.9 4.78,2.84 3.23,3.88 3.4,10.46 5.56,2.71 1.65,1.93 4.11,6.45 2.17,3.99 1.7,2.52 2.37,8.01 4.48,1.76 1.72,-0.76 2.94,3.23 1.32,4.31 -0.55,1.2 2.22,4.08 0.11,0.11 0.33,0.25 0.43,0.38 0.11,0.13 0.28,0.3 0.38,0.44 0.11,0.16 0.23,0.36 0.32,0.53 0.1,0.18 0.17,0.4 0.25,0.6 0.67,1.52 -0.12,0.75 0.84,2.57 1.49,2.83 5,3.76 6.14,6.73 3.33,8.74 -0.88,1.8 6.76,9.72l1.51 1.79c1.29,1.61 1.69,2.44 2.92,3.61l10.16 9.39c0.11,0.13 0.25,0.33 0.37,0.47l2.86 2.97c5.14,5.02 3.11,2.51 8.19,4.96 3.31,1.61 -0.76,1.31 3.94,2.8 1.92,0 4.38,-0.39 6.14,0.26 4.68,1.71 -1.29,3.08 10.63,3.08 2.43,-4.77 3.84,-3.26 10.48,-3.38l12.83 -14.14c3.85,-4.51 -2.04,-7.45 4.56,-10.14l0.04 -11.73c-3.54,-1.48 -3.25,0.5 -3.42,-4.18 -0.11,-3 0.07,-6.53 0.07,-9.6l-3.32 -1.81 -0.06 -8.64c-7.07,-3.79 0.44,-4.63 -6.37,-7.89 -0.88,-8.09 -0.72,-4.27 -2.75,-7.5 -2.35,-3.74 1.42,-1.06 -3.42,-6.42 -2.27,-2.49 -0.29,0.11 -1.34,-3.3 -1.17,-3.82 0.7,-0.53 -1.93,-3.3 -0.11,-0.11 -1.17,-1.11 -1.26,-1.19 -0.12,-0.11 -0.3,-0.29 -0.42,-0.4 -5.33,-4.91 -0.44,-4.57 -7.12,-10.87 -4.4,-4.13 0.16,-3.31 -7.56,-11.24 -2.75,-2.83 -9.67,-9.99 -0.95,-10.43 2.68,-0.13 6.28,0.09 9.08,0.09 6.28,0.01 12.54,0 18.82,0 4.27,1.5 0.54,2.39 4.91,3.77 2.66,0.4 5.49,-0.45 8.12,0.09 5.05,1.02 2.9,7.47 3.23,12.24 6.31,4.69 2.97,5.12 3.56,13.99 0.46,6.77 1.59,2.44 2.79,6.72 0.43,1.52 0.18,6.83 0.18,8.76 1.43,4.27 1.98,1.13 3.34,4.91 0,1.19 -0.14,3.87 0.03,4.9 0.91,5.43 2.34,-1.03 2.99,12.29 4.33,3.82 1.81,-1.49 3.27,4.78 0.98,4.18 0.92,2.37 3.73,5.04 0,5.05 -0.85,4.96 1.53,8.27l5.15 4.43 0.14 5.3c10.33,4.75 -2.78,-1.28 5.59,7.98 0.11,0.13 0.27,0.32 0.4,0.45l13.63 12.44c3.75,3.75 2.67,5.07 8.46,6.48 3.72,0.91 2.31,0.12 3.84,3.25l21.68 -0.03c1.63,-2.22 0.32,-1.79 2.32,-2.8 3.56,-1.78 2.15,0.81 5.67,-2.64 0.83,-0.81 -0.11,-0.13 1.64,-1.52 3.89,-3.09 7.74,-4.76 8.93,-9.73 0.97,-4 -1.84,1.95 0.89,-2.58 1.22,-2.02 1.17,0.55 2.41,-3.14l0 -39.28c-0.99,-2.95 -0.25,-1.5 -3.99,-2.45l-0.24 -9.55 -3.31 -1.75 -0.04 -8.7c-3.21,-1.41 -2.24,0.07 -3.16,-3.14 -1.62,-5.63 -8.83,-12.11 2.8,-11.54 2.98,3.38 -0.53,1.82 4.76,3.25 2,0.55 1.31,0.04 2.66,1.08 3.31,2.56 2.36,2.24 7.3,2.36l0.63 3.58c6.66,0.2 3.67,0.96 7.86,2.9 3.67,1.71 1.95,0.01 5.52,2.6 2.61,1.9 3.96,0.91 7.04,3.65l2.9 1.89c0.11,1.5 0.42,3.29 -0.06,4.7 -0.43,1.24 -0.35,0.71 -1.3,1.77 -2.5,2.78 0.17,-1.65 -1.84,2 0,1.4 0.2,5.35 0.04,6.44 -0.44,2.86 -0.59,1.73 -2.62,2.99 -0.17,0.11 -0.48,0.22 -0.69,0.39l-0.1 10.9c-1.15,0.84 -2.59,1.46 -4.14,2.26 -0.02,3.27 0.04,6.53 0.04,9.8 0.01,8.04 -0.91,3.67 -2.51,7.58 -1.31,3.19 -0.45,15.87 -0.46,20.19 -1.04,2.73 -0.79,1.75 -3.31,2.88l-0.03 51.12c1.64,5.14 1.85,0.33 3.34,4.91l0 5.72c0.68,2.8 2.27,0.98 3.31,5.02 1.1,4.24 -0.31,2.13 2.88,5.48 2.66,2.79 6.08,4.54 8.41,7.44 0.11,0.13 0.28,0.4 0.44,0.59l7.37 0.11c1.27,1.34 1.33,2.01 2.14,3.74l8.03 0c0.62,-1.21 1.23,-2.74 2.1,-3.71l7.37 -0.08c0.17,-0.21 0.33,-0.84 0.4,-0.68 0,0 -0.31,-0.64 3.46,-3.25l6.34 -6.05c0.12,-0.11 0.3,-0.28 0.42,-0.4 2.01,-1.95 3.38,-2.6 4.23,-5.04 1.82,-5.2 -1.13,-2.71 4.03,-5.49 0.11,-9.78 1.12,-2.09 2.94,-8.31 1.33,-9.26 -2.44,-8.29 2.54,-11.88 0.13,-0.1 0.41,-0.24 0.6,-0.39 0.67,-6.99 0.99,-40.26 0.25,-49.17 -0.62,-7.59 -2.12,-1.24 -2.97,-7.3 -0.38,-2.67 0.31,-7.1 0.06,-9.87 -0.66,-7.44 -2.84,-0.48 -2.58,-7.18 3.64,0.4 6.15,4.93 8.7,7.48 2.89,2.9 5.37,4.76 8.43,7.9l13.51 12.68c0.12,0.12 0.27,0.32 0.4,0.45 1.27,1.32 2.44,1.35 2.67,2.47l0.14 22.53c5.07,2.13 3.32,4.84 3.32,11.83 1.48,4.65 0.96,0.88 2.55,3.51 1.35,2.23 0.87,3.78 2.46,5.78 1.3,1.65 1.28,3.19 2.18,5.11 0.09,0.18 0.21,0.39 0.31,0.55l0.77 0.91c2.23,2.81 0.8,-1.04 1.76,3.8 0.86,4.32 1.54,2.94 2.59,5.88 0.98,2.71 0.67,3.22 2.83,5.15l5.36 5.36c0.17,0.18 0.64,0.71 0.8,0.91l0.76 0.93c1.82,2.3 0.25,0.85 2.66,2.79l10.89 10.47c0.47,0.46 1.39,1.56 1.57,1.71 2.04,1.61 2.24,0.98 5.52,1.11l0.66 3.49 9.57 0.22 1.78 3.33 8.36 -0.05c3.56,-4 -0.62,-3.03 6.9,-3.4 5.24,-7.52 1.06,0.57 8.58,-6.13l2.85 -1.93c0.36,-5.87 0.84,-4.06 2.28,-6.83 1.22,-2.34 0.73,-5 0.79,-8.25 3.96,-2.36 4.67,-3.18 3.73,-9.05 -1.52,-4.6 -1.75,0.13 -3.34,-4.91l0 -9c-0.66,-3.64 -1.99,-1.49 -3.02,-4.24l-2.91 -6c-1.29,-2.51 -0.96,-3.99 -2.35,-5.71 -2.65,-3.3 -1.59,-4.5 -4.98,-9.12 -1.27,-1.75 1.23,-0.91 -3.8,-1.71l-0.12 -4.87c-3.7,-1.12 -5.01,-2.38 -7.1,-5.03l-3.14 -4.35c-8.32,-8.01 -6.35,-2.37 -12.4,-8.81 -4.15,-4.4 -5.36,-1.27 -10.2,-6.2l-2.64 -3.83 -8.4 -0.08c-3.85,-6.35 -1.78,-1.31 -6.59,-3.89 -2.94,-1.58 0.92,-0.44 -2.73,-2.21 -4.01,-1.95 -3.88,0.73 -5.17,-4.4 -1.31,-5.21 -6.01,-7.37 -9.31,-11.4l-22.03 -22.03c-2.36,-2.87 -1.26,0.94 -1.79,-3.45 1.73,-0.08 4.4,0.07 5.91,-0.09 3.4,-0.38 1.56,-0.24 3.67,-1.83l4.25 -1.68c4.62,-1.42 1,-1.8 5.22,-3.02 1.32,-0.39 1.27,0.04 2.7,-0.52 3.74,-1.47 -0.61,-0.62 3.22,-2.43 2.72,-1.29 1.92,0.33 4.32,-1.35 0.22,-0.15 0.67,-1.64 3.01,-2.62 4.02,-1.68 2.61,0.39 6.94,-4.54 2.66,-3.02 4.54,-2.22 7.32,-4.13 7.9,-5.41 2.14,-7.23 14.3,-8.6l0.32 -6.29 8.88 -9.06c1.25,-2.41 0.11,-2.74 1.62,-4.93 1.63,-2.36 0.4,1.04 1.9,-2.21 0.65,-1.41 0.52,-2.89 0.69,-4.64l3.09 -1.28 0.03 -25.26c-1.09,-0.54 -2.74,-1.2 -3.7,-1.88 -0.4,-9.48 -1.36,-4.12 -8.06,-12.39 -2.14,-2.65 -4.58,-4.03 -6.12,-6.97 -5.15,0 -7.68,1.59 -9.88,-3.28l-15.08 -0.04c-3.9,5.35 -6.43,2.42 -12.27,3.31 -5.23,1.65 0,1.72 -5.13,3.2 -2.13,0.62 -0.85,-0.43 -3.31,0.87l-5.33 2.85c-2.71,0.92 -4.69,4.02 -6.42,6.72l-7.76 2.96 -5.11 5.5c-1.93,1.93 -3.74,2.86 -5.47,5.27l-22.28 21.8c-3.95,3.82 -2.45,1.99 -3.47,8.43 -7.88,3.38 -4.27,6.65 -9.19,11.67 -5.21,5.33 -6.7,0.67 -8.32,-0.31l-4.51 -1.3c-3.69,-1.49 0.3,-0.74 -3.26,-2.43 -3.22,-1.53 -1.46,0.72 -4.71,-1.78 -2.79,-2.13 1.15,-0.82 -3.86,-2.11 -4.24,-1.11 -3.03,-2.02 -5.91,-3.04 -3.14,-1.11 -3.85,-0.46 -5.48,-4.05 -3.42,0 -5.79,0.54 -8.3,-0.85 -3.74,-2.07 0.2,-1.77 -6.84,-2.16 -0.84,-1.27 -1.19,-2.34 -1.9,-3.66 -5.12,0 -6.87,0.95 -10.12,-3.16 -4.12,-0.36 -6.55,0.63 -9.1,-1.46 -7.97,-6.56 -0.48,-5.26 2.58,-7.42l14.64 -14.82c2.73,-2.42 1.91,0.01 5.33,-1.97l8.3 -6.43c0.27,-5.35 -0.24,-3.68 2.65,-6.43 0.11,-0.11 0.29,-0.28 0.41,-0.4l4.93 -4.94c8.39,-7.74 5.81,-7.43 6.05,-8.34 0.62,-2.45 2.18,-3.88 4.11,-5.97 3.74,-4.04 0.62,-0.85 2.29,-5.19 1.87,-4.84 3.38,0.61 3.52,-11.01 1.98,-1.44 2.38,-0.93 3.25,-3.27l-0.03 -27.82c-3.44,-2.06 -1.03,-0.04 -3.2,-2.4l-3.16 -4.27c-1.62,-4.53 -0.17,-3.88 -6.42,-4.2 -0.99,-3.36 -1.84,-3.38 -4.31,-5.4 -1.34,-1.1 -0.46,-0.93 -2.41,-1.6l-22.09 0c-2.75,0.34 -1.1,1.67 -7.16,3.49 -2.48,0.75 -2.17,2 -4.49,2.88 -2.92,1.1 -3.81,0.6 -6.01,2.85 -0.12,0.12 -0.29,0.3 -0.41,0.42 -2.91,3.02 -1.69,2.82 -5.58,4.23 -2.44,0.88 -3.82,3.04 -5.72,4.91 -1.52,1.49 0.4,0.66 -2.26,1.7 -3.56,1.4 -4.23,-0.37 -7.31,4.47 -1.83,2.87 -3.22,3.29 -5.62,5.61l-11.76 11.19c-2.02,3.18 0.04,2.32 -2,5.38 -3.39,5.12 -4.99,2.58 -5.34,10.26 -3.93,2.84 -5.7,3.72 -7.18,8.51 -1.41,4.58 -1.79,1.04 -3.01,5.22 -1.74,6 -0.21,1.28 -2.64,5.34l-1.34 4.51c-0.72,1.43 -1.77,1.53 -3.3,2.19l-0.08 8.37c-4.68,2.94 -3.26,4.22 -3.28,9.68 -6.09,4.18 -1.83,5.44 -12.89,4.7 -0.87,-0.98 -1.45,-2.05 -2.1,-3.19 -8.47,0 -49.2,1.22 -53.23,-0.84 0.11,-3.45 -0.39,-0.68 0.99,-2.5l1.61 -1.67c2.65,-2.7 3.8,-3.22 3.89,-7.65 2.89,-0.87 2.95,-0.72 4.69,-2.56 0.12,-0.12 0.29,-0.32 0.41,-0.45 0.11,-0.12 0.3,-0.3 0.42,-0.42l1.57 -1.57c1.68,-2.1 2.98,-3.42 3.71,-5.94 0.82,-2.87 2.59,-4.47 3.36,-7.3 0.35,-1.28 -0.35,-0.11 0.6,-1.99 1.23,-2.44 0.2,-0.11 1.54,-1.81 1.64,-2.11 1.17,-0.23 1.2,-4.31 1.71,-3.34 0.76,-0.84 3.68,-3.01 0.33,-7.9 -0.47,-3.45 3.33,-6.81l0.11 -7.37c0.19,-0.17 0.56,-0.57 0.67,-0.39l2.07 -1.47c1.16,-1.54 0.29,-5.17 0.63,-7.17 0.84,-4.86 1.94,-1.23 2.79,-5.74 0.15,-0.77 0.11,-3.11 0.11,-4.01 -0.13,-16.18 2.45,-7.29 3.31,-13.13l0 -18.82c-1.43,-4.22 -1.97,-1.11 -3.34,-4.91 0,-3.09 0.5,-5.11 -0.85,-7.34 -1.29,-2.14 -1.58,0.8 -2.27,-7.38 -4.39,-1.39 -1.62,0.07 -4.35,-2.33 -2.31,-2.01 -2,-2.15 -3.58,-4.59l-8.22 -0.14c-2.44,-3.6 -2.26,-3.41 -7.71,-3.36 -20.16,0.2 -9.27,1.17 -16.51,3.2 -0.24,0.06 -0.47,0.06 -0.72,0.12 -3,0.72 -3.44,2.18 -5.86,3.09 -3.65,1.38 -2.19,-0.59 -5.56,3.15l-3.64 3.19c-4.02,2.74 -5.18,5.88 -5.68,10.75zm-1516.2 317.3c-6.44,9.32 -5.45,5.28 -9.66,7.56l-23.08 23.46c-4.04,4.63 0.76,3.41 -3.74,7.68 -4.67,4.42 -3.43,2.51 -4.71,7.05 -0.91,3.2 0.09,1.78 -3.16,3.1l-0.18 6.15c-3.67,1.19 -3.27,-1.72 -3.1,13.3 15.18,0.06 11.45,0.31 13.53,-3.1l8.44 -0.24c1.64,-2.83 0.18,-1.25 2.49,-3.09l3.3 -2.55c0.7,-0.59 2.87,-2.67 2.94,-2.72 2.48,-1.76 2.11,-0.63 4.46,-1.49l9.84 -10.39c5.69,-6.65 -3.56,0.35 5.79,-8.92l5.97 -6.35c8.76,-9.97 -2.16,-4.07 11.02,-12.61 0.53,-7.52 0.7,-4.4 2.4,-6.65 1.77,-2.35 1.07,-3.97 1.07,-7.57 1.19,-4.82 1.37,2.38 3.42,-5.72 1.47,-5.8 2.8,-2.75 3.25,-5.73 -0.06,-4.45 -0.21,-4.59 -4.66,-4.65 -3.08,0.48 0.17,2.07 -5.72,3.78 -6.09,1.76 -0.78,1.31 -7.28,2.91 -4.3,1.06 -1.95,0.84 -5.41,4.11 -2.73,2.59 -2.33,2.39 -7.21,2.67zm1853.75 -39.31c0,12.13 0.73,5.77 2.58,10.99 0.51,1.44 0.34,2.61 0.4,4.18 0.96,0.68 2.62,1.34 3.69,1.88l0.12 5.27c2.65,1.29 1.19,0.02 3.35,1.88 4.67,3.99 2.17,4.91 3.74,7.96l6.74 6.21c0.15,0.11 0.33,0.25 0.48,0.37l2.72 2.14c1.14,1.12 -0.46,2.51 3.85,2.16 3.72,-0.3 2.78,-1.81 2.78,-9.27 0,-6.8 -1.77,-1.69 -3.2,-6.77 -0.55,-1.97 0.31,-1 -0.79,-3.35l-0.69 -1.02c-0.1,-0.17 -0.27,-0.33 -0.37,-0.48l-0.66 -1.06c-1.91,-4.25 1.2,-1.51 -2.51,-5.63 -0.12,-0.12 -0.3,-0.29 -0.41,-0.42 -0.12,-0.12 -0.28,-0.31 -0.4,-0.43l-19.93 -19.22c-7.27,0.04 -5.46,2.32 -1.49,4.62zm-2730.18 32.13c0,7.67 -1.19,12.33 4.2,10.73 4.62,-1.38 -0.69,0.33 3.69,-3.14 0.16,-0.13 1.12,-0.75 1.45,-0.99l5.25 -4.6c0.12,-0.12 0.3,-0.29 0.42,-0.41l3.58 -3.77c1.83,-2.06 3.93,-9.29 5.09,-12.19 1.8,-4.52 1.65,0.83 3.46,-5.31l1.25 -2.98c0.78,-1.09 0.98,0.45 2.07,-2.71 0,-2.15 -0.29,-4.35 0.44,-6.21 1.38,-3.54 1.88,0.21 2.14,-4.43 -4.71,-2.56 -3.8,0.03 -10.44,5.13l-4.7 4.25c-1.89,1.88 -2.17,2.98 -4.18,4.88l-5.07 4.65c-4.87,5.41 0.15,0.91 -3.96,7.59l-1.36 3.69c-1.57,6.52 -1.87,0.13 -3.32,5.81zm2133.64 -212.7c-0.01,1.65 0.15,4.24 0.02,5.76 -0.61,6.65 -2.87,1.17 -3.02,8.86 -0.04,1.82 0.08,3.92 0.08,5.79 -1.08,6.45 -3.31,-5.36 -3.28,13.99 0.01,4.79 0.14,4.58 -3.37,6l-0.03 18.94c4.38,-1.76 0.01,0.2 2.03,-1.24l4.82 -6.8c1.92,-4.07 0.86,1.18 2.23,-4.7 0.92,-3.96 -0.56,-1.01 1.22,-3.3 2.34,-3.01 0.5,1.64 2.05,-3.24 1,-3.14 -1.48,-0.37 2.33,-4.48 3.05,-3.31 0.9,-2.52 1.57,-6.99 1.58,-5.12 3.33,0.52 3.33,-10.64 1.65,-4.62 1.85,0.38 3.34,-4.91l-0.04 -23.92c-2.51,-0.18 -5.37,-1.05 -8.43,3.53 -3.16,4.74 1.82,3.19 -4.86,7.33zm-1519.98 13.05c1.5,5.28 1.71,0.28 3.35,4.91 0,1.12 -0.12,3.13 -0.02,4.14 0.8,7.75 2.24,-1.56 2.55,13.05 2.79,2.66 1.93,-0.25 3.72,3.27 0.05,6.29 0.57,2.58 2.44,5.56 2.43,3.87 -1.01,1.92 2.54,5.6 2.93,3.05 2.02,7.23 8.33,9.77l0.02 -18.94c-3.03,-1.21 -3.33,-1 -3.4,-5.18 -0.05,-3.22 0.07,-6.65 0.07,-9.9 -1.1,-7.72 -3.34,5.75 -3.34,-15.18 -5.68,-2.87 -1.06,-2.63 -4.62,-7.56 -1.49,-2.07 -2.06,1.66 -2.06,-9.48 -5.74,-3.29 -1.09,-4.62 -9.41,-3.96l-0.18 23.92zm548.26 194.35c-0.47,6.56 0.3,3.45 -4.88,9.03 -2.51,2.69 -1.93,2.37 -1.96,6.33l-3.7 1.85c0.12,5.66 -1.16,5.05 -1.35,5.29 -2.14,2.74 -1.97,-0.78 -2.03,4.89 -0.97,2.01 -0.84,0.85 -1.93,1.94 -2.13,2.16 -0.25,-1.59 -1.27,1.65 -1.15,3.66 1.49,5.4 -1.48,8.56 -1.49,1.58 -0.07,-0.48 -1.21,1.23 -1.26,1.89 -0.78,1.6 -0.78,5.43 0,5.42 1.35,4.83 6.57,4.41 2.51,-4.02 1.74,-3.53 6.06,-7.77 0.12,-0.12 0.3,-0.29 0.42,-0.41l6.59 -6.49c7.23,-6.23 1.16,-0.84 6.6,-10.72 2.36,-4.3 -0.62,-5.57 4.64,-6.64 0.02,-8.25 2.81,-5.21 3.34,-8.38 0,-1.97 -0.32,-4.35 0.37,-6.07 2.11,-5.25 3.65,4.67 2.85,-17.8 -2.13,0.28 -1.06,-0.04 -3.23,1.97l-8.67 8.44c-1.77,1.3 -3.07,2.07 -4.94,3.24zm419.82 1.56c7.32,3.89 0.1,4.83 5.09,11.27 2.26,2.92 1.6,1.43 1.6,9.06 2.04,1.14 5.94,3.7 6.79,6 0.72,1.94 -0.13,2.71 1.49,5.22l14.63 15.01c0.68,0.96 1,1.83 1.42,2.51 4.57,0.37 6.33,1.17 6.65,-3.56 0.61,-8.83 -2.72,-6.18 -3.43,-9.03 -1.06,-4.25 2.13,-5.16 -1.88,-9.11 -1.11,-1.09 -0.41,0.63 -1.46,-1.54 -0.05,-5.2 0.3,-2.23 -1.59,-4.47 -1.79,-2.1 -1.64,-1.27 -1.82,-5.64l-3.63 -2c-0.05,-1.88 0.22,-2.91 -0.53,-4.49l-2.71 -2.99c-3.28,-3.55 -3.19,-1.64 -3.64,-7.81 -3.75,-2.38 -3.3,-1.6 -6.85,-5.41 -0.11,-0.12 -0.26,-0.32 -0.38,-0.44 -0.12,-0.12 -0.29,-0.31 -0.4,-0.42 -1.47,-1.44 -7.1,-7.1 -9.19,-7.38l-0.17 15.21zm-1462.33 -72.82l-0.03 15.2 -3.26 1.99 -0.05 41.97c4.37,1.85 3.34,-2.08 3.34,13.79 8.7,4.1 -3.78,9.04 12.8,7.05l0.12 -44.34c-1.37,-3.09 0.95,-1.11 -3.64,-2.45l-0.15 -22.1c-2.25,-1.66 -3.3,-0.75 -3.4,-4.81 -0.08,-3.09 0.08,-6.55 0.08,-9.7 -3.96,1.36 -2.16,1.68 -5.81,3.4zm2515.95 9.47c-4.8,1.22 -2.51,-0.47 -3.7,2.45l0 15.55c-1.7,4.63 -1.91,-0.26 -3.33,4.91l0.01 47.61c16.68,1.99 4.19,-2.95 12.9,-7.05 0,-3.69 -0.11,-7.51 -0.05,-11.17 0.03,-2.09 -0.24,-2.35 0.61,-3.96 0.98,-1.89 2.46,-1.93 2.79,-3.33l0 -36.01c-0.33,-1.43 -2.12,-2.29 -3.23,-3.27l-0.11 -15.2c-3.62,-1.73 -1.87,-2.06 -5.8,-3.4l-0.07 12.87zm-1524.42 -73.64c0.96,2.33 1.29,1.82 3.25,2.97l0.09 8.48c4.08,2.23 4.47,3.48 6.79,6.08l2.32 2.58c0.11,0.18 0.21,0.39 0.3,0.59 0.1,0.2 0.16,0.43 0.24,0.65 1.23,3.47 -1.7,1.69 5.61,8.02 5.27,4.55 3.31,3.93 8.12,8.27 0.39,0.35 1.85,1.8 2.09,2.03 0.11,0.12 0.29,0.29 0.41,0.41l16.94 16.64c0.12,0.12 0.31,0.29 0.43,0.41l5.53 5.88c0.18,0.17 0.69,0.63 0.87,0.8 0.12,0.12 0.31,0.29 0.42,0.41l2 2.44c6.17,0.41 6.55,0.05 6.14,-6.13 -0.97,-0.83 -2.05,-1.4 -3.18,-2.02 0,-7.24 1.11,-5.75 -3.34,-11.59 -1.36,-1.78 1.28,-0.79 -3.72,-1.86 -0.15,-6.76 0.18,-2.97 -2.13,-6.13 -2.56,-3.49 -0.09,-2.9 -2.17,-6.01l-6 -6.28c-1.47,-1.48 -1.01,-0.94 -3.03,-1.82l-0.19 -5.54c-6.55,-3.82 -4.75,-3.19 -9.54,-8.5l-11.58 -11.32c-3.13,-2.18 -2.08,-0.22 -4.93,-1.64 -3.88,-1.94 1.09,-3.38 -7.87,-3.09 -0.12,0.31 -0.45,1.27 -0.55,1.42 -2.63,4.42 -1.87,0.66 -3.31,3.84zm-112.02 33.54c0.1,10.29 -0.03,7.98 3.16,9 1.05,11 1.37,3.08 3.52,10l0.89 2.51c1.34,2.29 0.19,-0.27 1.51,1.77 1.68,2.6 0.07,4.54 5.08,8.19 3.25,2.37 1.17,-0.04 3.41,2.89 0.11,0.14 0.23,0.35 0.33,0.49l0.75 0.95c4.74,6 -1.95,1.91 6.39,10.03l3.25 3.3c0.12,0.11 0.3,0.28 0.42,0.4l2.64 2.31c7.19,5.38 3.69,6.02 9.81,8.27l2.53 1.47c4.64,3.97 3.69,4.57 9.77,4.54 -0.06,-8.54 -1.13,-3.5 -2.62,-7.6 -0.78,-2.14 -0.3,-6.94 -0.3,-9.44 -1.17,-4.74 -0.45,-0.44 -1.94,-3.19 -1.41,-2.58 -0.62,-2.8 -1.3,-4.51 -0.66,-1.66 -1.41,-1.51 -2.13,-2.69 -1.78,-2.91 0.03,-2.21 -1.69,-4.85 -2.14,-3.31 -0.73,2 -2.39,-3.6 -0.69,-2.35 0.1,-2.51 -1.33,-4.03l-7.16 -5.22c-0.14,-0.11 -0.35,-0.25 -0.49,-0.35l-5.77 -6.39c-0.12,-0.11 -0.3,-0.29 -0.41,-0.4l-9.9 -9.8c-4.52,-3.27 -2.73,1.55 -7.36,-4.34l-5.73 -0.37c-1.35,-4.3 -0.44,-3.3 -6.2,-3.09l3.24 3.75zm1264.55 -149.97c0,19.2 -2.88,-1.14 -2.93,18.23 -1.37,1.29 -1.98,1.3 -3.75,2.11 0,20.03 -2.13,8.01 -3.34,15.07l0.02 27.37c8.1,-1.12 2.95,-4.11 9.76,-11.45l2.64 -3.14c0.09,-0.2 0.15,-0.42 0.23,-0.64 0.08,-0.22 0.1,-0.46 0.17,-0.69 2.62,-8.7 3.07,0.98 3.53,-9.46l4.08 -2.27 0.07 -8.22c3.68,-1.69 3.3,-0.14 3.3,-9.89 6.55,-3.35 1.28,-5.06 4.11,-10.47l2.29 -5.29c1.55,-5.17 1.69,0.25 3.17,-5.13 0,-1.83 -0.23,-6.56 0.05,-8.06 1.34,-7.19 3.29,3.54 3.29,-12.39 0,-3.77 -0.83,-2.8 -2.03,-4.08l-2.41 -2.76c-0.19,0.11 -0.42,0.15 -0.5,0.44 -0.07,0.29 -0.38,0.34 -0.48,0.44l-3.39 3.18c-8.16,7.17 -0.29,3.96 -7.09,10.07 -6.97,6.26 -2.03,4.09 -5.35,8.63 -5.69,7.79 1.09,4.2 -5.43,8.4zm-630.72 114.56l-1.59 2.68c-1.22,1.37 -1.27,1.3 -2.72,2.99l-16.45 15.49 -0.28 5.54c-1.02,0.46 -1.75,0.69 -2.61,1.42 -0.12,0.11 -0.28,0.29 -0.4,0.4l-2.01 2.12c-0.11,0.11 -0.3,0.27 -0.42,0.4 -6.51,6.45 -3.27,3.89 -4.83,8.18l-0.55 1.13c-2.29,3.75 -2.31,-1.19 -2.5,6.59 -5.45,1.18 -2.07,-0.33 -4.31,2.89 -0.1,0.15 -0.23,0.36 -0.34,0.5l-0.77 0.93c-2.29,2.8 -1.62,1.17 -1.63,9.13 -1.13,0.62 -2.22,1.2 -3.19,2.02 -0.41,6.18 -0.04,6.54 6.14,6.13l19.96 -20.57c0.12,-0.12 0.3,-0.28 0.42,-0.4l5.4 -5.2c0.12,-0.12 0.29,-0.3 0.41,-0.42l19.24 -19.18c3.89,-3.71 2.57,-2.33 3.37,-5.45 1.08,-4.22 -0.79,-1.77 3.15,-4 1.1,-11.72 4.69,-2.9 3.54,-10.64 -0.96,-3 -0.88,-1.43 -2.03,-2.81 -0.84,-0.99 -0.4,-0.27 -1.1,-1.38 -0.27,-0.44 -0.55,-1.31 -0.82,-1.83 -7.81,-0.44 -3.91,0.23 -7.16,2.2 -2.37,1.43 -2.65,0.87 -5.92,1.14zm-1162.27 -140.52l0 10.21c4.86,2.73 3.34,4.56 3.34,11.88 1.42,5.14 1.43,0.35 3.02,4.52 1.15,3.03 -0.92,0.41 2.1,5.41 1.84,3.03 0.86,2.66 1.15,6.43 0.25,3.46 0.9,3.31 3.32,4.54 0,9.7 -0.4,8.19 3.26,9.89l0.11 8.18 4.07 2.29c0.39,8.61 0.82,3.12 2.85,6.96 2.06,3.89 -2.17,0.47 4.83,8.31 1.06,1.18 0.51,0.33 1.2,1.26 2.06,2.77 0.35,0.05 1.34,3.51 0.43,1.49 0.63,4.61 6.09,5.36l-0.34 -27.98c-1.23,-3.79 -0.98,0.31 -1.99,-4.33 -0.52,-2.39 -0.1,-8.36 -0.33,-11.42 -6.56,-1.63 -2.25,-0.65 -3.57,-10.64 -1.45,-5.41 -2.8,1.04 -3.47,-8.69l-3.59 -1.76c-0.39,-9.1 -1.45,-2.94 -3.23,-8.53 -0.34,-1.07 0.04,-0.25 -0.29,-1.35 -0.06,-0.22 -0.09,-0.45 -0.16,-0.66l-1.54 -2.67c-5.94,-7.82 -4.16,-0.01 -5.06,-9.07l-6.69 -5.26c-0.14,-0.11 -0.33,-0.27 -0.47,-0.39 -1.25,-0.98 0.1,-0.28 -1.52,-1.2 -0.14,0.18 -0.33,0.24 -0.4,0.54l-2.83 3.08c-0.64,0.74 -0.47,0.04 -1.21,1.59zm1240.69 225.02c0,21.28 -2.82,3.54 -2.92,17.04 5.54,0.02 4.81,0.16 7.96,-3.15 0.12,-0.12 0.28,-0.31 0.4,-0.43 3.68,-3.88 2.47,-1.64 5.95,-2.88 4.77,-1.7 2.21,-3.89 7.28,-7.49l6.41 -5.94c5.92,-5.78 3.45,-1.86 5.11,-7.51 0.77,-2.64 -0.06,-0.72 1.7,-2.92 0.11,-0.14 0.28,-0.32 0.39,-0.46l4.19 -4.81c1.57,-1.61 -1.39,-0.87 3.89,-1.76 0.3,-6.54 -0.8,-3.74 3.65,-6.71l0.28 -5.04 3.58 -1.43c0.65,-9.92 1.27,-3.27 3.12,-7.94 0.59,-1.48 0.11,-0.78 0.4,-1.98l0.55 -2.06c1.85,-4.09 2.96,1.06 2.55,-8.02 -7.23,-1.11 -6.63,1.05 -7.77,1.85l-4.36 1.51c-2.07,0.85 -1.31,1.71 -3.9,2.69 -4.38,1.64 -1.42,-0.73 -5.84,3.08l-17.04 17.26c-6.86,6.84 -4.31,2.15 -6.13,8.25 -1.97,6.58 -0.55,-2.28 -3.31,6.56 -1.54,4.9 -1.01,-0.9 -3.42,7.25 -1.54,5.2 -1.54,0.27 -2.71,5.03zm-1278.26 -21.66c0,9.64 0.4,8.13 -3.31,9.85l0.02 12.04c9.27,0.31 6.8,1.4 11.74,-3.52l7.9 -7.61c4.12,-3.76 1.69,-3.64 5.22,-6.07l10.23 -9.62c1.79,-2.12 0.44,0.53 1.48,-2.81 0.88,-2.8 -0.88,-1.54 2.6,-4.5 8.09,-6.87 1.49,-3.26 6.21,-9.41 3.25,-4.23 0.67,-2.58 2.47,-5.74 0.76,-1.32 1.2,-1.05 1.85,-2.26 1.81,-3.36 -0.54,-2.03 1.97,-5.35 0.14,-0.19 0.67,-0.62 0.82,-0.83 1.19,-1.62 0.07,0.68 0.97,-1.62 0.63,-1.64 0.07,-1.61 0.77,-3.32 1.7,-4.14 0.93,1.58 2.92,-5.34l1.97 -3.64c1.37,-1.76 -0.21,1.47 1.32,-1.84 -7.98,-0.48 -4.16,1.07 -8.1,2.47 -3.1,1.1 -2.61,-0.88 -6.41,3.54 -4.59,5.34 -2.65,2.83 -6.25,4.11 -1.92,0.68 -0.84,0.19 -2.22,1.31 -0.06,0.05 -1.16,1.15 -1.63,1.54 -0.18,0.16 -0.72,0.56 -0.91,0.71l-3.44 3.23c-0.11,0.13 -0.27,0.33 -0.38,0.45l-9.96 10.44c-0.12,0.12 -0.3,0.3 -0.41,0.42l-2.04 2.04c-9.82,9.55 -1.91,5.13 -6.5,9.83 -2.97,3.03 -0.87,-0.38 -2.39,4.32 -0.95,2.94 -0.47,1.56 -2.7,3.76 -1.73,1.71 -1.76,1.93 -3.82,3.42zm1846.88 -29.59c1.38,1.05 2.42,0.98 3.3,2.21 1.74,2.4 0.06,1.56 1.46,4.33 1.6,3.16 0.91,-0.49 2.38,3.34 1.32,3.39 -1.73,1.81 4.92,7.47 2.62,2.22 1.42,0.25 2.45,3.82 1.09,3.73 -0.74,1.2 4.12,5.93l6.71 6.52c2.48,1.85 1.78,0.5 3.27,2.94 3.5,5.72 3.57,3.59 5.98,6.4 4.24,4.97 -1.05,1.59 7.23,8.38 2.62,2.14 7.44,1.33 10.17,0.22 0.15,-2.13 0.66,-10.07 -0.25,-11.88 -0.74,-1.43 -1.64,-1.44 -2.77,-2.34 -0.33,-3.84 0.55,-6.85 -1.36,-8.93l-1.77 -1.49c-0.12,-0.12 -0.29,-0.32 -0.41,-0.44l-3.74 -2.73 -0.13 -5.25c-4.59,-2.3 -1.88,0.9 -3.23,-3.96 -0.97,-3.49 0.69,-0.76 -1.91,-3.64 -0.11,-0.13 -0.3,-0.3 -0.41,-0.43 -0.11,-0.12 -0.28,-0.31 -0.4,-0.44 -0.11,-0.12 -0.26,-0.32 -0.37,-0.44l-15.53 -15.54c-0.12,-0.13 -0.3,-0.3 -0.41,-0.42l-3.88 -4.2c-6.1,-5.63 -3.54,0.69 -9.46,-5.33 -7.09,-7.22 -2.02,-0.7 -9.48,-6.07 -2.61,-1.88 -7.38,-1.27 -5.37,1.94 1.9,3.05 -0.26,-3.16 2.94,5.44 1.39,3.7 1.05,-0.3 2.58,5.98 1,4.13 1.92,2.06 3.04,5.08 0.41,1.12 0.29,2.29 0.33,3.52zm-1413.98 -28.94l0.16 18.82c3.63,2.62 3.18,0.98 3.18,9l3.63 2.45 0.16 8.8c1.13,0.47 1.55,0.55 3.1,1.02l0.27 6.14c5.88,2.54 0.55,1.78 4.92,7.32 2.83,3.59 0.55,0.47 1.93,4.44 0.8,2.28 1.31,2.09 3.31,4.12 0.11,0.11 0.27,0.3 0.39,0.41 0.11,0.11 0.27,0.3 0.4,0.42 0.11,0.12 0.28,0.3 0.4,0.42l4.9 5.04c0.11,0.12 0.27,0.31 0.39,0.42l11.15 10.98c2.61,2.68 2.99,3.37 5.48,3.82l0.06 -19.82c0,-3.7 -1.27,-1.84 -3.7,-4.09 -0.1,-3.46 0.7,-8.15 -0.58,-11.22 -0.83,-1.98 -1.61,-1.47 -2.22,-3.74 -0.39,-1.46 -0.18,-3.91 -0.18,-5.5 -1.4,-3.24 -0.61,-1.06 -3.6,-2.96 -0.59,-7.23 -0.4,-4.46 -1.91,-6.32 -1.32,-1.64 -0.73,-0.14 -1.43,-2.43 -0.7,-2.28 1.01,-1.63 -3.84,-6.22 -3.82,-3.61 -2.88,-2.64 -3.09,-7.57 -3.51,-0.62 -2.55,-0.42 -4.25,-2.23l-1.67 -1.64c-0.11,-0.11 -0.28,-0.27 -0.39,-0.39l-10.51 -11.54c-1.3,-1.34 0.34,-2.06 -3.74,-2.06 -2.7,0 -2.69,1.36 -2.69,4.09zm-538.52 -163.25c0,3.98 -0.91,11.49 0.61,14.75 1.52,3.29 1.93,-0.29 2.36,5.24 0.74,9.38 -2.05,6.7 3.1,10.7 0.42,19.9 0.09,4.78 3.68,16.96 1.25,4.23 0.78,1 2.26,3.35 1.34,2.14 0.61,2.63 1.36,4.47 1.67,4.1 0.41,-0.84 2.37,3.31 1.34,2.85 -1.25,4.11 7.85,8.74 0.44,4.85 -0.63,3.35 1.74,6.14l2.36 2.48c1.05,1.1 0.58,0.58 1.26,1.23l3.75 3.6c1.67,2.14 1.05,3.98 2.01,5.67l5.32 0.24 0.03 -13.63c-1.56,-5.36 -1.76,-0.28 -3.34,-4.91l-0.04 -17.19c-7.69,-5.37 0.19,-9.28 -4.91,-14.32 -0.04,-0.04 -1.37,-1.04 -1.58,-1.22 -0.19,-2.73 0.37,-6.21 -0.76,-8.54 -1.72,-3.54 -1.82,1.09 -2.5,-7.01l-3.04 -1.43c-0.42,-9.74 -1.35,-3.07 -3.23,-8.44 -0.3,-0.87 -0.28,-2.59 -0.35,-3.62l-9.39 -7.76c-1.82,-1.7 -1.76,-3.67 -5.53,-2.72 -4.3,1.1 0.68,0.87 -5.4,3.92zm-9.93 193.88l-0.18 6.19 -3.52 0.73c-0.47,7.67 -1.32,3.6 -3.48,8.27 -0.87,3.96 1.67,3.02 -1.54,8.13l-1.37 4.03c-0.11,1.42 0.1,4.04 0.15,5.54l15.35 -4.59 11.08 -11c1.46,-1.42 1.05,-0.93 3,-1.85 0.12,-11.74 5.86,-3.09 6.89,-15.81l3.16 -1.14 0.13 -6.22c5.46,-1.37 0.96,0.2 3.16,-1.64l0.16 -4.91c4.95,-1.64 2.19,1.04 3.6,-3.22 1.4,-4.2 -0.9,-2.43 3.39,-4.67 0,-15.24 2.35,-5.2 3.34,-11.74l0 -12.28c1.69,-4.79 2.37,0.25 3.76,-4.91 -0.08,-3.89 -0.25,-3.93 -4.06,-4.09 -2.68,0.29 -1.73,0.78 -5.17,4.66l-6.21 6.12c-3.11,3.81 0.18,1.42 -4.39,4.37l-3.81 4.6c-2.41,8.01 -8.19,8.39 -10.01,11.99 -1.1,2.18 -0.08,2.08 -1.21,4.5 -1.72,3.67 -0.84,-1.45 -2.22,4.67 -0.98,4.27 0.99,1.05 -1.67,3.77 -0.11,0.11 -0.31,0.25 -0.43,0.37 -9.59,9.05 -0.67,7.28 -7.89,10.14zm2095.72 -187.74c-0.04,0.5 -0.17,3.09 -0.23,3.33 -0.84,3.47 1.17,-2.04 -0.44,1.36 -0.62,1.31 -0.48,0.65 -1.14,1.42 -2.5,2.9 -1.57,0.85 -1.81,6.36l-3.11 1.29c-0.94,12.57 -1.93,-2.85 -3.18,15.69 -0.98,0.84 -2.06,1.42 -3.19,2.05 0,20.8 -2.26,7.51 -3.34,15.14l0 15.54c-1.58,4.64 -1.78,-0.46 -3.34,4.91l0.01 13.52 5.34 0.04c0.12,-0.39 0.2,-0.99 0.24,-0.88 0.04,0.12 0.18,-0.52 0.22,-0.69l8.89 -10.84c0.42,-0.36 1.33,-0.87 1.78,-1.15l0.26 -5.06 5.02 -3.87c3.88,-4.08 0.27,-2.33 3.23,-6.59 2.43,-3.5 -0.3,1.6 1.47,-1.73 1.29,-2.44 0.06,-2.04 1.27,-4.46 2.33,-4.64 0.24,3.15 2.97,-5.97l0.76 -1.79c2.18,-3.6 2.31,2.31 2.41,-13.08 6.35,-4.57 1.93,-5.86 3.28,-12.27 1.51,-7.22 3.34,7.59 3.34,-15.55 0,-3.67 -0.67,-2.82 -2.1,-4.42 -1.39,-1.56 -1.34,-1.82 -2.36,-3.26 -2.66,-0.12 -3.18,-0.57 -5.03,0.65l-7.66 6.99c-2.92,3.68 2.29,0.45 -3.55,3.32zm-16.87 136.65c1.38,5.15 2.07,0.12 3.76,4.91l0 12.28c0.99,6.54 3.34,-3.5 3.34,11.74 3.5,1.83 2.07,0.1 3.23,3.96 1.4,4.67 -1.27,2.27 3.71,3.93l0.21 4.91c2.18,1.84 -2.31,0.26 3.06,1.64l0.27 6.2 3.13 1.07c0.1,6.48 2.9,7.9 8.85,13.16 3.29,2.92 0.71,1.2 2.07,4.83 0.7,1.9 0.18,0.84 1.37,2.22 0.13,0.16 1.45,1.37 2.07,2l1.23 1.27c0.12,0.12 0.29,0.3 0.41,0.43 0.91,0.96 0.98,1.13 2.01,2.09l2.91 2.77c0.12,0.12 0.3,0.3 0.41,0.42 5.35,5.4 1.78,4.16 14.94,4.16 0.48,-13.62 -1.99,-6.96 -2.77,-12.83 -0.14,-1.05 0.02,-3.66 0.02,-4.87 -2.16,-4.67 -3.02,-0.6 -3.49,-8.27l-3.49 -0.65 -0.21 -6.27c-3.28,-1.29 -2.26,0.11 -3.15,-3.07 -1.51,-5.4 0.95,-1.6 -2.61,-5.1 -0.17,-0.17 -0.66,-0.62 -0.83,-0.79 -6.07,-5.67 -1.64,-2.99 -4.22,-7.95 -1.85,-3.55 -0.63,1.08 -2.09,-4.67 -0.82,-3.23 -5.63,-6.86 -8.25,-8.92 -1.01,-0.8 -1.74,-1.02 -2.44,-1.49 -0.39,-6.42 0.96,-3.27 -5.74,-9.85l-2.73 -3c-0.09,-0.1 -1.18,-1.2 -1.22,-1.24l-5.34 -5.34c-2.87,-3.16 -1.42,-3.42 -4.38,-3.77 -3.81,0.08 -3.99,0.29 -4.06,4.09zm-1656.47 -20.02l0 11.38c4.86,3.29 3.34,4.62 3.34,16l3.65 2.45 0.14 11.45c3.14,2.4 2.82,0.18 3.34,3.37 0.84,5.23 -1.54,4.87 1.33,8.03 4.11,4.53 0.04,2.48 3.6,7.09 2.22,2.89 1.51,1.24 1.89,6.07l3.02 1.54c0.45,5.76 -0.79,3.62 2.09,6.65 2.93,3.08 3.05,2.58 5.04,3.26 0.33,6.14 -0.16,5.11 2.19,7.5 0.13,0.14 0.29,0.3 0.44,0.43 1.26,1.09 -0.15,0.39 1.55,1.1 2.25,0.95 2.62,0.54 5.08,0.38l0.03 -45.9 -3.33 -1.8 -0.05 -8.65c-3.03,-1.4 -3.26,-1.13 -3.29,-5.43 -1.58,-3.03 0.77,-0.59 -3.09,-2.45 -0.6,-8.09 -0.68,-3.4 -3.22,-7.04 -1.26,-1.81 -0.4,-2.67 -1.33,-4.98l-6.05 -5.61 -0.26 -5.47c-10.37,-0.58 -3.43,-1.96 -8.58,-3.32 -3.93,-1.05 -3.54,0.75 -4.33,1.46 -2,1.79 0.1,0.75 -3.18,2.49zm1121.56 76.78c-3.54,2.24 -3.6,-1.13 -3.62,9.49 -6.52,3.15 -2.72,5.4 -3.75,12.29 -1.18,3.83 -0.29,1.5 -3.15,3.27 -0.32,4.52 -0.96,20.41 0.8,23.32 3.91,-0.05 1.27,0.28 3.81,-2.72l2.53 -2.53c2.15,-1.85 15.9,-15.38 16.63,-17.56 0.54,-1.62 -0.1,-0.99 0.73,-2.65 1.32,-2.6 0.09,-0.42 2.01,-2.14 3.64,-3.24 -1.19,-1.45 4.39,-3.09l0.28 -6.14 3.14 -1.11c0.04,-1.21 0.07,-3.24 0.38,-4.15 1.8,-5.37 2.81,2.13 3.16,-11.75 3.59,-1.64 3.27,1.31 3.27,-9.88 5.14,-2.99 3.34,-5.74 3.34,-20.97 0,-5.37 -3.57,-5.91 -6.91,-2.96l-6.55 5.71c-0.1,0.11 -0.25,0.29 -0.33,0.41l-7.42 8.2c-6.76,6.49 0.48,3.83 -5.12,9.62 -3.62,3.74 -1.71,0.6 -3.31,3.31 -0.89,1.52 -0.27,0.44 -0.71,1.91 -1.95,6.52 -1.72,2.07 -3.15,5.84 -0.49,1.31 -0.34,2.87 -0.46,4.28zm-143.03 125.7l0.01 6.94c7.45,3.15 -2.3,0.49 7.85,10.17 0.12,0.11 0.32,0.25 0.43,0.38 3.38,3.45 0.29,3.17 2.91,6.88 3.17,4.49 7.89,5.19 9.23,10.14 1.19,4.4 -0.52,1.09 1.59,3.61l7.16 7.53c3.25,3.6 1.54,2.5 7.22,3.01 7.02,11.79 9.05,3.45 13.99,7.68 0.02,0.01 1.78,3.57 8.1,2.14 3.21,-1.55 0.46,-0.18 2.52,-2.01 6.99,-6.21 0.9,-7.58 -0.34,-8.18 -0.45,-6.05 -0.49,-4.34 -2.22,-6.5 -1.58,-1.99 -0.65,-1.53 -1.53,-4.04 -0.74,-2.09 -1.73,-2.65 -3.61,-4.64l-3.56 -3.33c-1.95,-1.38 -0.14,-0.56 -2.83,-1.12 -0.43,-8.95 0.81,-1.63 -4.03,-8.82 -2.35,-3.5 -4.69,-4.17 -6.27,-6.01 -0.31,-0.35 -0.42,-0.63 -0.94,-1.4l-1.05 -1.53c-3.78,-5.01 -3.89,-1.08 -7.97,-4.47l-6.18 -6.04c-4.37,-4.36 -3.21,-0.99 -6.65,-3.25 -0.23,-0.15 -0.47,-1.21 -2.9,-2.15 -2.46,-0.95 -1.26,0.44 -3.67,-1.11 -2.49,-1.61 1.31,-2.18 -7.11,-2.67 -2.57,-3.74 0.51,-4.33 -7.01,-3.36 0.49,4.6 1.06,0.7 2.65,4.43 1.42,3.32 -1.19,1.78 2.14,5.33 1.04,1.11 1.51,0.62 2.06,2.42zm418.78 -117.01c0.64,1.86 0.41,0.98 1.59,2.22 2.58,2.73 3.35,2.42 4.42,4.7 1.92,4.08 -1.85,2.17 5.92,8.03 3.35,2.52 4.32,6.07 10.66,11.25l6 5.61c0.82,0.63 0.78,0.54 1.36,1.04 3.89,3.38 -0.76,2.43 6.92,2.9l1.52 2.43c0.11,0.13 0.29,0.31 0.4,0.44l2.14 1.99c11.29,11.37 0.62,-0.23 10.15,7.06 1.84,1.41 -0.48,0.71 2.65,1.75 10.79,0 4.96,0.93 9.34,2.9 6.56,2.95 1.71,-2.8 9.48,-2.9l5.4 -5.23c-0.18,-7.69 -1.36,-1.13 -3.18,-6.85 -0.88,-2.77 0.26,-1.51 -1.35,-3.82l-9.24 -9.6c-0.13,-0.11 -0.32,-0.28 -0.44,-0.39l-3.45 -3.98 -4.63 -0.25 -3.09 -4.19c-0.4,-0.37 -1.18,-1.14 -1.26,-1.21 -2.44,-2.06 0.17,-0.6 -3.31,-1.6 -6.79,-1.95 -5.8,-5.04 -9.21,-6.39 -2.37,-0.95 -1.13,0.43 -3.74,-1.15 -2.78,-1.67 2.25,-2.48 -9.82,-2.51l-1.68 -3.53 -15.63 -0.28c-0.99,-1.42 -1.37,-2.25 -2.46,-3.17 -0.84,0.48 -4.62,3.8 -5.47,4.75zm-127.03 -86.74c-2.88,0.1 -2.86,-0.32 -5,0.82 -1.25,7.41 0.99,1.94 -3.07,7.67 -2,2.8 -0.4,2.09 -4.35,2.84 -0.12,5.2 0.61,3.09 -1.64,5.77 -1.48,1.75 -0.84,-0.32 -1.63,2.58 -0.17,0.61 -0.28,3.16 -0.38,4.05 -3.86,1.86 -1.51,-0.58 -3.09,2.45 -0.04,4.31 -0.25,4.03 -3.27,5.43l-0.12 8.48 -3.22 2.08 -0.06 45.78c4.61,0.3 4.38,0.83 7.23,-1.73 0.02,-0.02 1.79,-2.15 1.86,-2.32 0.72,-1.64 0.48,-2.44 0.56,-4.35 5.67,-1.78 1.47,-2.55 7.25,-4.28l0.25 -6.21c6.08,-2.49 0.34,-1.22 5.36,-7.67 2.52,-3.23 0.33,-1.26 1.63,-4.75 0.9,-2.43 -0.15,-0.19 1.36,-2.1 3.26,-4.12 0.68,-1.96 1.67,-7.12 0.91,-4.75 0.65,-0.98 2.14,-3.85 1.33,-2.54 0.71,-6.87 0.71,-10.04 0.87,-2.96 1.02,-1.82 3.53,-3.27l0.3 -15.55c0.16,-0.11 4.97,-0.27 3.27,-9 -1.02,-2.51 -1.03,-1.42 -3.16,-3.27 -0.32,-3.93 0.48,-6.7 -1.21,-9.37 -2.06,0.18 -1.73,0.98 -4.03,2.6 -3.11,2.21 -1.85,-0.62 -2.9,4.32zm-1395.99 85.65c-14.39,0 -12.59,-1.11 -15.67,3.31 -11.41,0.05 -7.54,0.86 -9.38,2.16 -4.11,2.93 -2.65,-0.84 -6.52,3.35 -7.1,7.69 -5.19,1.55 -11.01,6.96l-3.51 4.58 -4.64 0.2 -3.45 4.03c-13.53,12.07 -9.27,12.21 -12.5,16.16 -0.01,0.01 -4.47,1.85 -0.3,5.99l3.97 3.74c8.36,0.11 0.95,3.34 8.18,3.34 3.78,0 1.42,-1.51 3.99,-2.84 2.1,-1.07 4.1,-0.13 6.58,-0.65 2.87,-0.61 1.82,-1.52 5.18,-2.53 4.83,-1.47 1.13,1.37 6.19,-3.54l3.01 -2.78c4.41,-2.28 0.61,1.6 6.47,-3.36l16.34 -17.1c3.72,-3.63 3.52,-2.23 7.63,-7.02 5.63,-6.58 -0.57,-3.07 5.72,-9.1 0.16,-0.15 1.66,-1.59 1.69,-1.61 1.17,-1.25 0.94,-0.35 1.59,-2.22 -0.86,-0.95 -4.64,-4.26 -5.48,-4.75 -2.36,2.03 -1.1,2.79 -4.09,3.67zm408.82 115.38l-2.21 3.39c-0.81,0.91 -1.9,2.02 -2.8,2.99 -3.39,3.66 -2.47,3.52 -8.6,4.11 -0.27,0.47 -0.68,1.36 -1.05,1.8 -1.62,1.9 0.2,-0.11 -1.73,1.57l-6.64 6.43c-8.22,8.86 -2.15,5.71 -5.86,10.5l-9.48 7.62 -0.15 4.98c-1.15,0.49 -1.47,0.55 -3.09,1.04 -0.2,2.22 0.05,3.61 -0.78,5.44 -0.62,1.35 -4.51,3.1 -1.07,8.1 0.11,0.15 0.26,0.34 0.37,0.49 1.71,2.44 1.86,3.16 4.25,3.54 5.52,0.89 6.46,-0.11 8.87,-3.12l8.18 -0.26 4.48 -5.62c3.9,-3.22 3.05,0.8 7.39,-4.12 0.95,-1.07 1.81,-2.17 2.65,-3.04l2.45 -2.51c0.11,-0.13 0.25,-0.33 0.37,-0.46 6.82,-7.78 1.16,-4.48 5.1,-8.75l1.64 -1.68c6.05,-7.01 4.65,-0.41 7.43,-9.85 0.9,-3.05 3.17,-3.07 5.28,-6.01 1.71,-2.36 0.69,-2.19 1.51,-4.37 1.04,-2.72 0.19,-1.39 2.98,-2.57 0.2,-18.67 2.68,-2.42 3.52,-15.94 4.32,-1.89 1.49,0.92 3.16,-2.98 -6.24,-0.14 -3.51,0.11 -7.59,1.75l-3.31 0.84c-3.41,1.12 -1.46,0.98 -2.79,1.94 -0.16,0.11 -0.33,0.27 -0.49,0.38 -0.18,0.11 -0.37,0.23 -0.56,0.32 -2.2,1.05 -2.48,0.01 -4.7,1.75 -1.68,1.3 1.77,1.56 -6.73,2.29zm1684.82 -214.31l-1.19 3.69c-5.84,0.25 -6.85,0.25 -11.22,6.65 -6.43,0.32 -3.24,-0.45 -12.14,7.59l-7.97 7.56c-0.11,0.12 -0.29,0.3 -0.4,0.41l-7.07 6.64c-0.11,0.15 -0.25,0.34 -0.35,0.49 -3.16,4.52 -0.98,2.78 -2.32,6 -0.57,1.36 -3.08,2.91 -5.56,6.94 -3.88,6.27 -3.6,-1.31 -3.52,11.09 2.67,-1.01 1.96,-1.24 3.74,-3.16l11.91 -0.11c3.09,-7.49 4.8,-0.06 10.56,-5.03 3.38,-2.93 2.58,-0.68 5.78,-2.22 3.04,-1.47 -0.04,-0.4 2.26,-1.89 2.83,-1.83 2.29,0.31 5.81,-2.45 3.16,-2.48 1.03,-1.58 6.3,-1.88 1.01,-5.44 -0.14,-2.29 2.32,-4.01l1.49 -1.06c3.99,-3.14 1.9,-1.06 4.98,-2.22 3.46,-1.3 10.84,-9.73 13.6,-12.9l0.78 -0.91c0.11,-0.14 0.24,-0.35 0.34,-0.49l3.89 -3.83 0.04 -14.42c-2.85,-1.09 -2.14,-1.23 -3.83,-2.66 -2.67,-2.25 -8.18,-1.18 -11.68,-1.15 -1.94,4.18 -0.72,3.31 -6.55,3.31zm-2496.11 71.38c-7.54,2.36 -0.3,0.74 -4.87,6.67 -1.95,2.54 0.01,-1.78 -2.13,2.33 -0.73,2.98 1.52,4.28 -1.42,8.02 -1.76,2.22 -0.51,-0.92 -1.92,2.62 0,6.27 0.05,12.55 -0.01,18.82 -0.03,2.99 -0.45,6.13 0.81,8.5 2.97,5.6 6.66,5.12 10.82,0.12 2.03,-2.44 1.77,-2.02 3.92,-4.09 0.18,-0.17 2.07,-2.01 2.09,-2.03 5,-5.38 -0.88,-5.12 5.3,-7.76l0.14 -6.21c5.53,-1.39 0.89,0.26 3.16,-1.64l0.16 -4.91 3.51 -0.76c0.49,-8.16 1.34,-4.97 2.65,-7.22 2.93,-4.99 -2.05,-2.07 3.96,-6.75l0.28 -8.18 3.21 -2.11c0.05,-2.79 -0.74,-10.34 0.7,-12.4 2.99,-4.29 2.66,4.38 2.77,-17.4 3.69,-0.89 1.32,1.51 3.1,-1.64 -1.14,-0.8 -0.25,-0.47 -2.06,-0.91l-9.74 -0.04c-2.4,3.06 -10.41,8.87 -11.32,10.71 -1.07,2.14 0.85,3.6 -7.59,11.43 -2.36,2.18 -1.96,0.48 -2.92,4.22l-0.26 1.39c-1.56,5.33 -1.9,-0.73 -2.34,9.2zm13.85 -78.65c10.41,0.72 1.57,1.77 9.05,3.89l2.03 0.55c2.94,1.33 0.03,1.33 3.6,2.74l4.8 -4.63c-1.51,-4.31 -1.88,0.25 -3.36,-3.68 -0.41,-1.08 -0.29,-6 -0.47,-7.77 -4.26,-3.32 -1.92,-1.53 -3.41,-5.58 -1.24,-3.36 -1.4,-0.71 -2.69,-3.89 -0.5,-1.24 0.45,-4.68 -6.82,-9.34 -0.74,-7.81 -0.71,-4.28 -7.3,-10.99l-8.01 -7.74c-0.14,-0.11 -0.37,-0.22 -0.51,-0.32 -1.78,-1.24 0.13,0.35 -1.37,-0.95 -0.98,-0.85 0.08,0 -1.15,-1.23l-0.85 -0.85c-0.12,-0.11 -0.32,-0.26 -0.44,-0.39l-10.55 -11.49c-4.83,-4.83 -3.19,-0.68 -7.1,-3.6l-2.78 -2.18c-0.13,-0.1 -0.34,-0.2 -0.47,-0.3 -0.11,-0.09 -0.31,-0.22 -0.42,-0.33l-1.53 -2.01c-0.11,-0.15 -0.23,-0.46 -0.39,-0.65l-11.54 0.11c-0.09,3.78 -0.97,11.99 0.49,14.72 1.92,3.58 1.64,-0.84 3.07,3.91 1.92,6.36 -1.13,1.21 3.02,5.48 0.11,0.12 0.28,0.3 0.4,0.41 0.11,0.12 0.27,0.31 0.39,0.43l0.79 0.85c5.26,5.67 -1.66,1.26 6.03,9.51 0.11,0.12 0.27,0.31 0.39,0.43 0.64,0.69 0.61,0.62 1.21,1.27 3.54,3.82 7.68,8.78 11.88,11.99 0.14,0.11 0.34,0.25 0.48,0.35 0.19,0.14 0.77,0.51 0.95,0.66l3.8 4.25c10.87,11.56 4.74,1.96 12.49,8.85 0.12,0.11 0.32,0.26 0.45,0.38 0.12,0.11 0.32,0.25 0.45,0.36 3.17,2.77 4.68,3.84 5.4,6.78zm-195.35 9.09c-0.08,20.18 -0.81,10.58 8.69,22.23l0.73 1c2.97,4.24 0.18,1.06 4.87,3.95 3.19,1.96 2.83,2.75 3.63,3.64 2.27,2.53 0.76,0.68 3.81,1.88 2.53,1 -0.03,-0.34 1.7,0.88 0.02,0.01 1.56,1.55 1.65,1.64 4.79,4.97 2.48,3.77 8.39,3.93l0.6 3.53 6.32 0.21c1.35,3.42 0.1,2.36 3.69,3.29 5.78,1.49 1.43,-0.72 4.76,3.23l8.57 0.14c2.67,5.98 2.94,2.15 11.88,3.31 5.45,1.42 0.11,2.94 5.34,3.16 0.88,-1.52 2.14,-7.99 -0.76,-10.62l-6.47 -5.86c-3.2,-3.23 -2.02,-1.93 -2.51,-6.8 -4.91,-3.12 -4.01,-3.61 -7.53,-6.93l-3.95 -4.19c-0.11,-0.12 -0.3,-0.28 -0.42,-0.4 -2.84,-2.85 -11.22,-11.71 -14.23,-12.76 -4.11,-1.43 -0.09,1.85 -6.64,-4.82 -3.81,-3.88 -2.75,-1.62 -5.99,-2.88 -4.01,-1.57 -0.04,-2.94 -7.82,-3.01l-0.55 -3.57 -13.12 -0.14 -4.64 5.97zm2537.95 -74.06l-4.91 0.18c-0.7,2.49 -0.55,1.6 -1.17,2.29 -0.11,0.12 -0.31,0.28 -0.43,0.4l-26.42 27.61c-2.99,3.09 -2.05,1.23 -2.58,6.77 -3.52,2.26 -1.3,0.65 -3.82,3.23 -3.69,3.82 -1.16,0.2 -2.83,5.5 -1.02,3.25 -1.88,1.31 -3.04,5.2 -1.38,4.63 0.94,1.64 -3.23,4.89l-0.29 8.18c-2.85,2.64 -2.36,-0.11 -3.53,3.27l2.32 2.53c1.5,1.57 0.45,1.2 2.47,2.1 3.63,-1.43 0.53,-1.64 4.24,-2.98 1.41,-0.5 1.33,-0.05 2.69,-0.61 4.85,-1.97 -1.85,-2.93 7.75,-3.6l2.89 -4.45c3.39,-3.46 1.53,-2.43 7.27,-2.56 1.15,-2.64 11.08,-12.51 13.85,-14.63l19.37 -19.28c1.65,-2.22 1.18,-3.01 1.39,-5.97l3.93 -1.71c0.69,-13.95 3.45,6.04 3.45,-18.42 0,-6.1 -3.9,-5.26 -10.39,-4.67 -5.09,0.47 -4.78,4.39 -8.99,6.7zm-52.83 111.7c0,11.95 -1.53,13.12 3.34,15.88 0,2.91 -0.09,5.89 -0.07,8.78 0.04,4.83 0.07,3.6 3.4,5.01 0,6.9 -1.09,5.7 2.11,10.28 2.55,3.65 -0.5,1.95 3.43,6.25 4.52,4.93 -2.16,4.78 4.55,11.15 0.47,0.44 2.3,2.16 2.5,2.43 0.11,0.16 0.26,0.34 0.37,0.51 1.49,2.55 0.13,2.87 2.01,5.3 1.73,2.22 0.32,-1.72 1.87,2.45 0.47,1.26 0.33,2.9 0.44,4.26l5.91 4.69c1.05,1.05 1.88,1.95 2.82,2.94 2.08,2.18 0.36,-0.39 2.14,3.09l5.73 0.2 4.44 -4.67c0.06,-1.61 -0.09,-5.23 0.21,-6.54 1.11,-4.8 0.75,-0.45 2.68,-4.1 -1.66,-3.92 -3.03,1.1 -2.81,-10.65 0.07,-3.7 0.54,-5.96 -1.2,-8.18l-2.14 -2.44c0,-5.94 0.62,-6.07 -3.1,-9l-0.38 -5.72 -3.48 -0.76c-0.31,-5.12 0.65,-3.59 -2.63,-7.23l-1.12 -1.3c-1.39,-1.42 -1.15,-0.86 -2.91,-2.17 -0.63,-8.43 -3.88,-5.47 -6.31,-10.87 -2.69,-5.97 1.39,4.8 -0.41,-1.36 -1.42,-4.83 0.72,-1.55 -3.46,-5.17l-5.95 -5.64c-1.28,-1.52 -1.24,-1.98 -2.21,-3.38 -20.43,-1.15 -11.43,2.81 -9.78,5.97zm-1757.97 120.84c-9.22,0 -6.53,0.39 -8.18,3.14l-8.45 0.24c-0.7,1.31 -1.17,2.58 -2.19,3.67 -14.63,0.17 -4.11,0.69 -13.11,3.55 -4.57,1.45 1.53,0.32 -7.25,3.48l-8.46 7.23c-0.12,0.12 -0.32,0.27 -0.44,0.4l-8.74 8.48c-3.97,4.88 1.14,5.1 -4.91,8.1l0 11.51c3.28,1.61 2.53,0.45 3.38,4.47 0.18,0.84 -0.02,2.19 3.4,5.87 4.78,5.14 3.5,5.02 12.4,4.4 6.12,-7.05 2.71,0.64 9.01,-6.15 4.32,-4.66 1.74,-0.65 7.68,-7.81 2.92,-3.52 4.76,-5.26 8.17,-6.94l0.24 -5.29c6.2,-3 0.54,-2.27 6.31,-4.53l0.43 -5.89c3.16,-0.59 2.02,0.55 5.85,-4.64 2.51,-3.4 -0.4,-1.92 2.41,-5.81 1.81,-2.5 -0.06,1.25 1.49,-1.66 1.04,-1.93 0.17,-1.71 0.99,-3.84 1.6,-4.11 0.92,-0.32 2.39,-3.4 1.16,-2.42 -0.2,-1.75 1.39,-4.43 1.62,-2.73 2.73,0.91 2.18,-7.61 -5.2,-0.03 -1.34,2.1 -6,3.48zm1239.8 1.07c0.81,1.83 1.99,1.69 2.89,3.62 1.71,3.63 -0.79,1.37 2.09,5.21 3.96,5.28 -0.71,1.23 3.86,7.56 3.31,4.58 -0.73,2.96 2.77,6.17 0.71,0.65 3.29,2.24 4.16,3.27 2.9,3.44 0.4,2.07 1.96,5.49 1.54,3.39 4.34,2.14 6.08,7.91 1.21,4.04 -0.56,1.42 2.69,4.47l11.45 10.69c0.11,0.12 0.28,0.3 0.4,0.42l0.83 0.84c7.54,7.65 0.98,2.3 6.93,4.54 5.05,1.91 -2.54,3.03 11.21,2.99 1.92,-3.91 2.47,-3.48 5.52,-6.65 1.27,-1.32 0.75,-0.26 1.48,-1.95 1.89,-4.34 -1.56,-3.23 3.82,-5.86l0 -11.51c-1.46,-0.69 -2.23,-0.6 -2.97,-2.52 -0.63,-1.65 -0.08,-0.74 -0.4,-2 -1.17,-4.68 1.25,2.85 -0.32,-1.38l-0.56 -1.17c-0.11,-0.16 -2.09,-2.13 -2.83,-2.94 -1.23,-1.34 -1.53,-1.87 -2.63,-3.16 -0.94,-1.12 -1.59,-1.71 -2.74,-2.98 -2.64,-2.9 -6.33,-5.27 -7.55,-8.98l-4.84 -0.49c-3.26,-1.12 2.08,-0.44 -6.48,-3.34 -0.22,-0.07 -0.45,-0.12 -0.66,-0.21l-1.11 -0.62c-1.29,-0.85 -0.51,-0.82 -1.72,-1.54 -1.92,-1.14 -3.74,-0.69 -6.47,-0.69 -3.88,-1.13 -1.54,-0.25 -3.27,-3.14l-8.46 -0.23c-0.69,-1.32 -1.17,-2.59 -2.18,-3.67 -15.62,-0.41 -5.34,-2.77 -12.27,-2.66l-0.68 4.53zm-143.09 30.28c1.12,3.06 0.55,1.2 4.02,2.45l0.33 5.73c4.6,3.52 3.19,3.27 3.19,10.28 4.24,1.99 3.17,1.37 3.45,7.13 3.61,0.6 1.78,-0.25 3.38,1.42 4.12,4.32 1.14,5.5 6.74,11.35l3.81 3.66c0.85,0.72 1.21,0.9 1.83,1.42 1.01,0.84 0.62,0.57 1.22,1.15 4.11,3.98 2.66,2.61 3.34,5.41 1,4.14 -0.76,0.92 4.84,6.87 0.25,0.27 5.74,5.55 5.92,5.65 4.45,2.65 2.36,-1.81 7.56,3.81 4.11,4.42 3.86,3.64 7.72,3.82 2.3,3.17 -0.57,3.56 7.06,3.81 1.83,3.08 -1.21,3.25 9.81,3.21l3.52 -0.03 0.31 -10.86c-0.44,-1.88 -1.85,-0.84 -2.97,-3.92 -0.84,-2.31 0.28,-2.25 -1.74,-4.98 -5.11,-6.89 1.6,-2.11 -6.57,-9.85 -2.65,-2.51 -1.49,-1.49 -2.11,-4.17l-18.71 -20.78c-0.16,-0.19 -1.4,-1.72 -1.49,-1.84 -5.63,-6.44 -5.27,-4.33 -7.73,-5.2 -2.22,-0.78 -4.01,-2.84 -5.34,-4.76 -0.09,-0.11 -1.02,-1.85 -1.1,-1.96 -4.11,-0.24 -4.99,-0.11 -8.51,-3.87 -3.45,-3.7 -1.05,-1.93 -4.21,-2.88 -5.56,-1.66 -1.74,-2.1 -6.47,-3.34 -7.89,-2.06 -2.82,-2.81 -6.43,-3.38 -4.44,0.06 -4.6,0.2 -4.66,4.65zm-1531.59 -328.61l-8.23 0.05c-1.7,2.69 -0.76,1.83 -3.14,4.22 -2.55,2.58 -1.17,1.54 -4.33,3.59 -0.99,9.35 -0.97,3.05 -3.45,7.37 -0.13,2.22 0.29,5.01 -0.45,7.04 -1.25,3.45 -2.59,0 -2.59,6.05l0 16.37c0,6.36 3.3,-1.32 3.4,7.26 0.07,5.55 -1.31,9.29 1.64,12.78 2.1,2.48 1.64,6.27 1.66,9.78 4.53,2.42 3.31,3.22 3.31,9.85 1.76,0.9 1.46,0.59 3.67,1.24l0.25 5.73c3.6,1.71 2.81,5.06 4.96,7.78 1.3,1.64 0.73,0.12 1.42,2.34 0.75,2.39 -0.61,0.61 1.04,3.31 1.41,2.32 0.55,-0.41 1.9,2.14 1.03,1.95 0.17,1.2 0.7,3.19 0.98,3.68 3.73,5.2 7.96,9.56 2.25,2.31 0.9,0.26 1.79,2.97 1.56,4.69 1.92,3.45 5.13,7.29 2.06,2.45 1.29,-1.04 1.44,2.87 -4.03,2.07 -44.76,0.84 -53.23,0.84 -2.62,4.61 -5.17,3.35 -10.14,3.31 -2.71,-4.15 0.34,-2.21 -4.38,-4.5 -0.17,-6.7 1.39,-7.95 -3.4,-10.47 0,-3.01 0.65,-6.36 -1.26,-8.64 -1.95,-2.32 -2,-4.83 -3.7,-6.98 -1.03,-1.32 -0.71,-0.25 -1.37,-2.11 -0.93,-2.61 -0.48,-3.63 -2.32,-5.63 -1.53,-1.67 -1.43,-3.95 -1.51,-6.45 -2.7,-0.63 -1.8,-0.87 -2.98,-2.11 -1.64,-1.73 1.64,-0.85 -3.88,-1.84 -0.18,-4.18 0.59,-3.89 -1.81,-6.38 -0.16,-0.18 -0.69,-0.62 -0.85,-0.79l-3.29 -3.34c-1.87,-3.22 -0.25,-3.33 -3.23,-6.6l-10.67 -10.51c-3.16,-3.18 -6.32,-5.21 -7.86,-9.48 -5.39,-0.21 -5.22,-1 -8.57,-4.4l-4.71 -4.19c-0.13,-0.17 -0.51,-1.13 -0.63,-1.37 -1.07,-0.09 -3.16,-0.12 -4.03,-0.42 -3.78,-1.26 0.34,-1.11 -6.54,-3.26 -1.97,-0.62 -0.99,-0.26 -1.8,-0.77 -2.49,-1.56 0.75,-0.38 -2.2,-1.85l-5.97 -2.32c-1.71,-0.99 0.01,-1.15 -4,-1.15 -23.66,0 -19.76,-1.67 -23.51,3.68 -7.5,0.34 -6.36,1.72 -10.27,5.36 -4.77,4.46 -1.15,3.63 -4.59,7.7 -0.84,0.99 -1.63,-0.85 -1.63,3.98 0,5.9 -0.9,19.54 0,24.54 0.87,2.34 1.28,1.83 3.16,3.27 0.39,11.81 1.87,5.71 4.07,13.03 0.98,3.31 5.08,5.56 6.22,8.56 3.02,7.94 2.7,4.46 8.39,10.39 3.74,3.91 5.06,3.88 5.39,10.3l11.82 10.91c2.06,1.02 1.71,0.06 3.81,1.14l2.18 2c0.11,0.11 0.27,0.29 0.39,0.4l6.63 6.33c0.06,0.07 1.74,1.53 2.27,1.94 0.15,0.11 0.34,0.27 0.48,0.38l1.01 0.72c1.89,1.4 4.41,4.78 1.97,7.3 -1.59,1.64 -6.61,0.79 -9.05,0.84 -2.44,4.81 -4.61,3.29 -9.87,3.29 -0.9,1.69 -0.62,1.59 -1.34,3.62 -9.3,0.55 -4.79,3.05 -15.69,3.05 -2.14,4.71 -3.91,2.73 -7.22,4.96 -1.54,1.05 0.71,0.91 -3.48,2.01 -4.88,1.28 -1.49,-0.11 -4.54,2.23 -2.36,1.81 -3.91,1.07 -6.18,2.86 -1.79,1.42 -3.16,1.36 -5.13,2.1l-1.14 0.57c-2.22,1.24 -0.04,1.96 -4.89,1.96 -3.65,-0.98 -1.27,-0.33 -3.96,-2.83 -5.07,-4.72 0.51,-3.65 -6.94,-9.56 -2.26,-1.79 -1.82,-2.03 -2.62,-4.34 -1,-2.92 -1.91,-2.49 -3.45,-4.83l-0.62 -1.05c-2.1,-3.1 -4.91,-4.93 -7.2,-7.64l-3.66 -3.8c-0.11,-0.13 -0.28,-0.32 -0.4,-0.45l-9.51 -9.25c-0.53,-0.52 -1.23,-1.22 -1.66,-1.64 -1.04,-0.99 -0.79,-0.74 -1.74,-1.56 -1.32,-1.13 -0.29,-0.11 -1.71,-1.49 -0.12,-0.12 -0.28,-0.3 -0.4,-0.42l-9.33 -8.33 -3.55 -0.1c-5.76,-9.25 -4.96,-4.51 -9.54,-7.75 -1.37,-0.98 -0.98,-1.78 -2.15,-3.36 -7.87,-0.34 -3.4,0.4 -6.85,-3.33 -2.34,-0.09 -8.03,0.21 -9.85,-0.17 -6.03,-1.24 2.09,-2.83 -15.52,-2.83 -6.73,0 -2.73,2.67 -8.13,3.36 -0.88,0.11 -3.12,-0.02 -4.14,-0.02 -3.63,0.77 -0.59,0.12 -2.14,1.14 -0.2,0.13 -0.8,0.59 -1,0.73 -2.36,1.61 -3.16,3.27 -5.07,5.4l-8.32 7.16c-0.44,9.85 -3.02,1.49 -3,17.42 0.04,20.04 0.01,11.17 2.83,17.58 0.93,2.11 0.06,1.86 1.06,3.85 1.51,3.01 0.55,-0.48 2.18,2.74 1.03,2.06 0.43,3.55 1.9,5.38 3.7,4.62 3.59,1.42 5.53,7.82 0.82,2.7 1.56,1.86 2.97,4.32 0.3,0.53 0.43,1.32 0.6,1.84 4.54,0.35 5.93,0.86 9.2,3.72l5.02 4.77c1.32,1.06 0.42,0.55 2.23,1.14 4.05,1.34 0.93,-1.42 4.3,2.17 0.71,0.76 2.82,3.23 3.07,3.47 3.41,3.13 1.04,0.51 4.63,1.87 1.77,0.67 1.93,1.63 3.13,3.39 8.86,0.52 3.14,0.84 6.87,2.87 2,1.08 1.77,0.13 3.91,0.93 2.17,0.81 2.26,1.75 2.89,2.16 3.01,1.93 1.26,-0.71 6.71,3.15 2.39,1.69 5.09,0.96 8.74,1.13 -0.41,3.43 -3.48,4.96 -5.94,7.42 -0.5,0.5 -0.57,0.62 -1.21,1.27l-3.37 3.23c-0.13,0.11 -0.33,0.25 -0.45,0.37 -0.18,0.16 -0.72,0.57 -0.89,0.73l-3.31 3.98c-0.94,1.03 -1.43,1.58 -2.36,2.57 -1.67,1.77 -3.1,2.68 -4.8,4.22l-5.29 5.34c-11.3,11.19 -0.9,9.15 -9.35,11.72l-1.27 0.44c-2.48,1.15 -0.18,0.17 -1.54,1.05 -3.2,2.07 -3.53,1.35 -7.82,1.35 -3.38,0.98 -1.79,1.96 -3.96,3.14l-3.83 1.14c-1.34,0.68 -0.59,0.32 -1.42,1.13l-3.42 3.87c-2.57,2.49 -4.62,0.93 -7.37,3.25 -2.57,2.16 -2.8,4.03 -6.29,5 -5.2,1.43 -1.17,-0.47 -4.74,2.8l-11.3 10.79c-3.37,3.37 -0.31,1.41 -2.21,5.11l-5.37 5.32c-2.69,3.23 -0.29,4.83 -4.73,8.48 -1.63,1.34 -1.74,-0.01 -2.77,2.67 -0.82,2.13 -0.3,5.3 -0.48,7.67 -4.13,3.3 -3.16,5.07 -3.17,10.23 -4.3,2.98 -3.33,6.01 -3.33,11.04 0,3.45 0.99,3.33 3.72,4.96 0.21,11.38 2.58,7.21 3.07,15.08 0.04,0.03 1.44,0.81 1.49,0.84 2.52,1.78 1.34,2.17 4.13,3.21 5.97,2.22 2.11,-1.31 5.82,4.01 7.52,0.37 3.33,-0.6 6.89,3.33l8.18 0.04 2.45 -3.62 8.18 -0.18c3.96,-6.07 3.36,-1.09 7.48,-4.63l2.46 -2.47c1.43,-1.37 3.17,-3.48 4.41,-4.55 1.96,-1.7 4.61,-0.71 6.42,-2.62 2.65,-2.8 -2.31,-1.62 6.27,-10.1 0.12,-0.11 0.29,-0.29 0.4,-0.41 0.88,-0.87 0.25,-0.34 1.22,-1.25 3.88,-3.56 1.68,-2.17 3.5,-6.2 0.54,-1.19 0.57,-0.86 1.05,-1.5 3.02,-4.05 0.56,-1.18 2.11,-5.14 0.08,-0.19 0.17,-0.41 0.25,-0.6 0.09,-0.18 0.23,-0.37 0.33,-0.53l2.72 -5.45c0.89,-2.18 1.86,-1.26 3.05,-3.38 0.99,-1.79 0.41,-5.7 0.41,-8.03l3.31 -1.75 0.06 -8.73c2.53,-1.13 2.28,-0.12 3.31,-2.87l0 -19.64c0.61,-2.49 5.58,-5.68 7.28,-7.72l10.39 -10.06c0.11,-0.13 0.28,-0.32 0.4,-0.44l2.09 -2c3.09,-3.29 4.9,-8.12 9.8,-8.63l0.08 10.85 -3.67 2.45 -0.03 57.28 3.09 2.01c0.15,0.11 0.41,0.27 0.6,0.44 0.06,15.5 0.86,7.1 3.23,14.74l3.73 8.57c0.69,1.93 7.12,7.6 9.05,9.52l6 6.21c14.33,0.09 4.55,3.38 15.41,3.38 3.85,0 2.66,-0.05 4.91,-3.16 10.48,-0.84 8.07,-0.22 15.99,-9.4 3.28,-3.81 1.9,-3.54 3.66,-7.01 1.28,-2.52 2.07,-0.35 2.77,-3.22l0 -5.72c0.53,-3.31 3.34,-1.63 3.34,-6.55l-0.02 -49.48c-2.53,-1.13 -2.28,-0.15 -3.31,-2.88 -0.01,-3.55 0.45,-17.16 -0.18,-19.57 -1.28,-4.87 -2.61,0.1 -2.8,-7.37 -0.09,-3.17 0.07,-6.66 0.06,-9.89 -2.13,-2.72 -3.15,-1.68 -3.72,-4.98 -0.4,-2.37 0.04,-6.8 -0.26,-9.75l-2.97 -1.47 -0.18 -8.54c-0.98,-0.56 -2.65,-1.3 -3.61,-1.94l-0.04 -5.51c4.04,-2.29 3.35,-3.09 7.66,-4.41 2.08,-0.64 1.4,-0.44 2.79,-1.54l3.77 -1.78c0.23,-0.07 0.47,-0.09 0.69,-0.17l1.2 -0.54c2.73,-1.6 1,-1.5 5.37,-2.68 3.23,-0.87 2.72,-2.01 6.62,-3.28l1.27 -0.39c2.68,-1.2 2.51,-1.89 5.99,-3.03 2.61,-0.86 5.25,-5.27 8.31,-2.36 2.6,2.46 -0.43,5.34 -1.26,7.07 -2.4,5.01 0.89,3.15 -3.84,6.85l-0.29 8.18 -3.2 2.03c-0.07,13.63 -3.41,5.85 -3.41,13.51 0,6.06 -0.91,33.98 0,37.64 0.42,1.71 1.95,1.89 2.57,2.85 1.54,2.42 0.12,1.67 1.29,4.3l8.74 9.44c1.49,1.5 -0.04,0.55 1.66,1.63 2.71,1.71 4.14,0.72 6.75,4.02 29.91,2.14 17.44,-2.4 28.5,-2.8 1,-1.64 0.7,-2.05 2.17,-3.45 3.52,-3.37 5.34,-3.82 9.42,-8.58 0.96,-1.13 1.36,-1.72 2.86,-2.97l4.28 -3.72c5,-5.9 1.73,-0.8 3.16,-6.44 1.6,-3.02 -0.96,-0.55 3.11,-2.46l0.28 -5.28c5.43,-2.94 6.63,-5.31 6.63,-12.71 0.17,-0.17 0.48,-0.56 0.57,-0.4 0.09,0.16 0.44,-0.3 0.55,-0.39 1.74,-1.27 1.99,-1.34 2.5,-3.54 1.68,-7.26 -1.3,-1.37 3.37,-5.49 0.65,-13.32 2.09,-6.86 3,-12.29 0.17,-1.03 0.03,-3.71 0.03,-4.9 1.35,-3.78 1.9,-0.65 3.34,-4.91 0,-1.93 -0.25,-7.23 0.18,-8.76 1.2,-4.27 2.34,0.05 2.79,-6.72 0.19,-2.79 -0.25,-6.31 -0.12,-9.12 0.17,-3.65 1.33,-3.1 3.68,-4.86 0.29,-4.15 -1.53,-11.01 2.57,-12.07 2.86,-0.74 5.88,0.18 8.79,-0.25 3.67,-0.57 1.73,-3.77 6.55,-3.77l26.18 0c6.79,0 3.9,5.38 1.25,8.37 -1.71,1.92 -5.12,4.42 -6.42,6.68 -2.66,4.65 1.27,1.75 -5.34,8.54 -3.55,3.66 -0.55,4.04 -3.32,7.34l-1.71 1.52c-0.05,0.06 -1.56,1.57 -1.62,1.62 -2.45,2.57 -2.16,2.85 -2.29,7.39 -3.38,0.77 -1.82,0.53 -3.16,1.64l-0.14 4.91c-5,1.64 -3.6,0.83 -3.84,6.55 -5.83,2.73 -0.43,0.72 -5.24,7.48 -1.11,1.55 -0.92,3.07 -1.66,5 -1.03,2.71 -2.32,1.18 -2.94,3.88 0,2.65 0.16,5.7 0.07,8.28 -0.12,3.5 -1.24,3.02 -3.38,4.81l-0.03 14.39c6.43,2.61 0.92,6.01 5,10.6l12.41 13.69c16.46,0.31 5.42,3.99 13.34,3.38 5.65,-1.25 -0.1,-1.9 5.15,-3.21 1.45,-0.36 6.9,-0.13 8.76,-0.13 4.84,-1.53 0.4,-1.47 4.5,-3.02 4.71,-1.78 1.41,1.58 5.56,-2.76l4.91 -4.94c0.11,-0.13 0.26,-0.33 0.38,-0.47l18.46 -18.26c5.49,-5.78 -0.17,-3.84 5.01,-8.92 0.18,-0.17 0.67,-0.66 0.84,-0.83 1.72,-1.64 2.87,-2.41 3.64,-4.48l2.92 -5.33c1.78,-4 -1.13,-1.67 2.14,-5.12 1.66,-1.74 0.47,1.08 1.4,-1.66l2.07 -5.53c1.06,-1.41 0.87,-0.75 1.47,-2.82 1.21,-4.16 -0.51,-2.7 3.38,-4.6 0.18,-6.58 -1.38,-7.62 3.41,-10.46 0,-18.44 3.31,1.28 3.36,-21.72l3.23 -2.07c0.09,-3.6 0.05,-7.36 0.04,-11.1 -0.03,-7.48 4.19,-5.31 10.19,-5.31 5.95,0 0.09,4.13 8.93,4.25 4.34,0.05 8.8,-0.05 13.16,-0.05 3.86,0.8 1.31,3.28 7.3,3.4 3.6,0.07 7.45,-0.07 11.09,-0.07 2.93,6.01 10.36,1.99 15.98,3.34 2,0.48 2.43,2.38 3.73,4.11l0.84 1.06c-1.35,1.31 -2.41,3.14 -4.08,3.9 -4.31,1.97 -2.24,-1 -9.87,6.36 -2.6,2.51 -1.9,0.64 -3.18,4.92 -2.74,0.12 -2.87,-0.4 -4.83,0.93 -1.17,0.8 -0.59,0.68 -1.6,1.73 -2.79,2.91 -7.55,6.1 -8.94,10.05 -0.71,2.03 -0.23,2.64 -1.87,4.5l-3.65 3.67c-0.13,0.11 -0.33,0.26 -0.46,0.38l-4.58 3.64c-0.31,4.75 -1.23,6.66 -4.57,9.26 -2.65,2.05 -1.48,2.58 -2.56,5.04 -1.48,3.37 -0.91,0.26 -2.64,2.83l-0.74 1.77c-0.34,0.98 0.11,0.47 -0.53,1.98 -0.93,2.15 -1,1.42 -2.73,2.86 -0.4,15.03 -3.92,5.48 -3.92,13.1 0,6.07 -0.9,19.32 0,24.54 0.43,2.46 2.4,2.3 3.19,4.93 1.83,6.1 2.9,5.13 7.46,9.46l2.96 5.34c2.92,0.1 5.05,-0.11 7.02,1.93 0.01,0.02 1.03,1.34 1.16,1.48l13.1 -0.09 1.64 -3.61 7.36 -0.07 1.62 -2.16c0.15,-0.11 0.34,-0.25 0.51,-0.35 0.18,-0.1 0.4,-0.19 0.59,-0.28 4.45,-1.93 2.61,0.25 6.47,-3.34 2.72,-2.54 -0.36,0.4 0.87,-0.76l5.49 -6.17c5.33,-0.53 4.07,0.3 7.05,-3.24l9.89 -9.85c2.13,-2.23 2.49,-3.61 2.64,-7.22 2.63,-0.5 2.75,-0.69 4.23,-2.26l2.72 -2.9c0.31,-0.42 0.29,-0.55 0.99,-1.48l2.36 -4.11c1.04,-3.45 2.78,-5.72 6.43,-7.16l0.4 -5.92c5.5,-2.68 2.82,-2.25 3.98,-5.43 0.55,-1.51 0.42,-1.04 0.95,-1.76l4.61 -4.4c1.49,-2.22 0.26,-0.38 0.84,-2.98 1.42,-6.46 1.92,-1.5 3.3,-5.71 0.47,-2.96 -0.8,-4.91 1.31,-7.22 1.26,-1.39 0.3,0.6 1.47,-1.73 0.91,-1.82 0.18,-1.04 0.67,-2.52 2.14,-6.5 3.13,2.3 3.25,-12.5 4.83,-2.32 3.38,-1.01 3.99,-7.39 4.26,1.55 0.25,0.02 2.78,1.92 3.02,2.25 8.27,1.34 12.5,1.42 2.44,4.26 2.44,3.3 8.76,3.3 3.17,1.47 0.98,-0.34 2.45,3.62l9 0.24c1.67,3.57 3.6,2.22 6.82,4.14 1.96,1.17 0.04,1.48 3.29,2.3 5.71,1.45 6.14,-2.66 7.89,3.2l4.76 0.55c2.44,0.72 0.74,0.01 1.88,0.87 -2.07,3.38 0.45,0.72 -3.36,1.78 -5.27,1.44 -0.58,-0.41 -3.61,1.98l-4.32 1.57c-2.29,0.71 -2.33,2.14 -5.18,3.01 -8.1,2.45 -2.81,6.02 -13.39,6.95 -0.48,0.79 -0.97,1.93 -1.77,3.01l-6.85 7.12c-7,7.62 -6.55,1.01 -8.47,6.49 -1.5,4.27 1.18,0.48 -1.69,3.91l-1.2 1.31c-0.69,0.82 -0.46,0.72 -1.04,1.36 -1.71,1.88 -0.65,0.5 -2.61,2.15l-3.3 4.48c-2.02,6.36 -0.52,2.6 -2.65,5.11 -1.27,1.48 -0.13,-0.39 -1,1.57 -0.58,1.3 -0.18,1.05 -0.57,2 -3.41,8.25 -3.59,-7.05 -3.59,22.29 0,2.71 0.62,2.71 2.09,4.29 5.02,5.39 -2.97,1.93 7.15,10.1l5.31 5.28c1.85,1.3 -1.2,-0.12 1.75,0.89 3.27,1.13 3.69,0.09 5.15,3.63l32.14 0c2.14,-5.04 1.65,-3.34 9.26,-3.34 3.09,-1.67 0.12,-0.19 1.93,-1.77 1.92,-1.66 2.38,-1.1 4.49,-1.86 2.04,-0.73 0.76,-0.25 2.15,-1.29 5.73,-4.25 4.07,1.35 7.8,-4.89 0.47,-0.04 3.13,-0.19 3.3,-0.23l20.6 -19.58c1.91,-1.17 -0.35,-0.04 2.37,-0.82 4.58,-1.3 -3.01,1.27 1.38,-0.32 2.46,-0.89 -0.04,0.34 1.69,-0.87l4.03 -3.15c0.33,-4.88 0.04,-3.75 2.46,-6.85 0.15,-0.19 0.54,-0.75 0.69,-0.92 1.35,-1.62 0.46,-0.64 1.99,-1.89l1.84 -1.5c2.66,-2.38 3.28,-4.22 6.5,-5.76 0.07,-7.49 2.19,-5.25 5.55,-10.06 1.37,-1.96 0.71,-3.93 2.34,-5.87 0.1,-0.12 0.3,-0.26 0.41,-0.38l1.32 -1.19c0.34,-0.35 1.41,-1.78 1.63,-2.03 7.86,-0.61 4.43,1.8 9.12,3.51 5.36,1.95 -4.02,-1.86 1.34,0.37l3.44 3.41c11.93,0.14 5.69,1.83 10.14,3.26 0.94,0.3 5.72,0.15 7.04,0.15 3,0.73 0.05,2 5.74,3.39 2.64,0.64 -0.6,-1.34 3.05,1.28 1.02,0.74 -0.54,0.98 2.66,2l5.73 0c4.5,2.34 -0.89,1.65 5.01,3.3 8.54,2.39 -0.9,2.58 9.79,3.33 4.69,0.33 2.84,2.12 6.66,3.21 1.31,0.38 4.06,0.18 5.54,0.18 2.56,0.54 0.72,2.28 5.72,3.86l1.4 0.46c0.23,0.09 0.51,0.24 0.69,0.32 0.18,0.07 0.48,0.18 0.69,0.33 -0.17,0.16 -0.46,0.13 -0.54,0.43 -0.43,1.61 -0.95,0.75 -2.13,2.08 -2.41,2.73 1.35,0.83 -2.57,2.52 -6.73,0 -6.3,-1.25 -8.76,3.33 -10.07,0 -5.25,0.47 -11.01,2.55 -1.51,0.54 -2.52,0.35 -4.16,0.4 -1.05,1.39 -1.23,3.27 -3.07,3.73 -5.82,0.04 -2.29,-0.09 -5.03,2.05 -1.14,0.9 1.04,0.35 -2.33,1.21 -0.47,0.12 -2.85,0.18 -3.59,0.25l-13.06 14.72c-7.38,8.27 -2.05,4.59 -5.01,8.92 -4,5.86 -1.65,4.38 -3.21,6.65 -2.37,3.46 2.79,-2.46 -0.8,0.8l-1.61 1.09c-0.62,7.69 2.04,7.86 -3.51,10.05l0 21.67c5.06,2.06 3.34,1.57 3.34,9.2 1.88,3.49 -0.26,-0.04 2.13,2.43 5.01,5.2 3.11,1.34 4.69,7.31 0.84,3.16 1.35,2.55 3.67,4.72 1.66,1.56 2.44,2.59 3.87,4.38 6.47,0.5 3.67,1.05 7.49,2.59 1.55,0.62 0.48,0.3 2.23,0.5 1.1,0.13 3.71,-0.02 5.01,0 4.54,4.76 -1.46,3.74 13.91,3.74 5.01,0 3.21,-2.78 6.55,-3.33 1.21,0 3.86,0.14 4.92,-0.06 4.73,-0.87 1.03,-0.65 3.89,-2.08 4.95,-2.48 2.64,1.56 7.2,-3.35 0.51,-0.55 2.26,-2.4 2.41,-2.52 2.28,-1.93 5.09,-1.52 6.96,-3.63l8.28 -8.08c1.93,-2.14 1.28,-2.24 2.26,-4.96 1.01,-2.82 4.85,-5.61 6.96,-7.91l2 -2.08c1.22,-1.95 0.76,-2.22 0.83,-5.02 8.69,-1.59 -1.22,-2.29 6.8,-3.94l0.3 -6.22c4.16,-1.93 2.01,-0.73 3.55,-5.12 1,-2.86 2.18,-2.55 3.04,-5.92 0.84,-3.25 -0.85,1.73 0.31,-1.4 1.2,-3.21 1.55,-0.37 2.87,-4.51 2.02,-6.32 -1.16,-1.73 3.87,-5.22l0.11 -5.01c4.97,-1.85 3.31,-0.22 3.31,-10.49 2.79,-1.12 2.14,0.09 3.05,-2.37 0.73,-1.99 -0.12,-4.34 2.36,-4.86 6.85,0.28 1.64,1.31 6.18,3.03 2.42,0.91 1.27,-0.44 3.91,1.14 0.3,0.18 1.74,1.99 2.19,2.43l9.82 0.1c4.76,0.71 -0.81,3.32 10.64,3.32l2.45 3.64c11.62,0.24 5.95,0.02 10.06,2.87 2.51,1.75 12.62,0.6 15.87,0.6 1.53,3.23 7.85,6.59 1.86,8.94 -0.71,0.27 -3.13,0.3 -4.06,0.35 -1.48,4.12 -1.41,3.01 -4.17,5.8 -2.55,2.58 -3.91,3.72 -7.05,4.64l-15.51 14.54c-1.3,1.33 -0.55,0.79 -2.14,2.04 -0.93,0.74 -1.78,1.05 -2.42,1.5 -0.25,5.31 -0.37,5.19 -3.39,8.16l-6.6 5.59c-0.15,4.65 0.92,4.2 -3.22,6.17l-0.27 5.29c-1.17,0.62 -1.47,0.64 -2.99,1.25 -0.93,7.58 -1.6,5.1 -2.97,9.14 -0.35,1.03 -0.3,2.49 -0.37,3.64l-3.6 1.75c-0.04,15.08 -3.69,4.18 -2.86,24.75 0.17,0.15 0.47,0.11 0.55,0.4 0.21,0.78 2.04,1.67 2.58,3.89 1.05,4.24 0.9,3.54 4.31,6.58l5.05 4.76c0.76,0.88 0.98,1.58 1.44,2.63 5.76,0.18 5.11,-0.67 7.15,3.42l28.71 0 1.12 -3.17c9.05,-0.74 3.53,-0.69 7.52,-2.82 4.94,-2.63 2.8,2.34 6.5,-3.82 4.32,-0.39 5.76,-1.05 8.45,-4.28l1.88 -2.9c7.36,-0.47 3.12,0.51 6.92,-2.89l25.15 -23.99c1.67,-1.97 1.17,-4.37 3.24,-6.64 0.11,-0.12 0.31,-0.26 0.42,-0.39l4.9 -4.01c0.34,-6.7 -0.08,-4.04 3.82,-7.71 2.56,-2.42 2.94,-3.62 2.98,-7.69l3.16 -1.14c0.22,-5.16 0.75,-4.5 2.53,-7.02 1.62,-2.29 0.84,-5.11 1.15,-8.64 4.11,-3.2 3.15,-5 3.15,-10.08 1.3,-0.71 2.42,-1.08 3.66,-1.92l0.22 -5.56c4.94,-0.14 17.26,-0.95 20.85,-0.09 1.52,0.36 1.43,3 5.73,3.37 6.76,0.57 24.23,-1.16 28.63,-0.03 0.85,0.23 0.98,1.97 6.36,3.65l2.03 0.84 -10.57 10.94c-0.18,0.16 -0.69,0.62 -0.85,0.79 -0.63,0.62 -0.34,0.26 -1.2,1.21l-17.18 18.06c-2.93,3.16 -2.51,3.74 -3.82,6.94 -1.94,4.73 -2.51,-2.04 -3.09,7.45 -3.74,2.44 -2.63,0.8 -4.38,5.25l-2.92 3.36c-0.4,19.54 -3.86,-3.17 -3.41,25.18 4.2,2.72 2.38,0.82 3.98,5.7 0.51,1.55 0.34,0.88 0.83,1.71 1.92,3.32 0.45,-1.56 1.72,3.45 0.67,2.62 0.89,3.46 2.62,5.29 3.04,3.21 1.83,2.38 7.31,2.52l1.15 3.16c6.91,-0.06 5.17,3.45 10.77,3.45 32.82,0 12.54,-1.84 22.09,-3.34 2.87,0 5.18,0.55 7.07,-0.82 3.11,-2.23 -1.62,-2.22 6.44,-2.6 3.67,-5.29 3.01,-5.41 9.17,-7.23 2.88,-0.85 15.02,-14.57 16.95,-16.49 3.08,-3.06 5.05,-5.65 9.01,-7.71 0.44,-4.58 0.96,-5.87 4.32,-8.52 4.15,-3.28 1.85,-3.99 4.35,-7.06l1.26 -1.14c4.2,-4.67 3.45,-6.97 5.72,-9.84 1.74,-2.21 1.7,-5.08 3.4,-7.23 2.21,-2.8 1.63,-5.31 1.63,-9.06 1.56,-0.76 2.5,-0.98 3.72,-2.15l0.07 -7.37c0.24,-0.16 0.61,-0.56 0.72,-0.38 0.53,0.91 2.23,-1.64 2.36,-1.88 0.4,-0.82 0.28,-3.96 0.26,-5.05 -0.06,-3.89 -0.29,-7.66 0.47,-11.45 13.63,-0.15 6.43,-3.01 11.45,-3.82l20.46 -0.04c3.85,-5.4 6.49,-2.36 12.28,-3.31 3.98,-0.64 0.63,-3.58 9.28,-3.09 0.62,8.03 -0.72,4.51 -2.44,8.14 -1.4,2.93 0.32,2.29 -1.5,4.97 -1.23,1.81 -0.43,-0.22 -1.58,1.71 -1.26,2.08 -0.27,0.35 -0.88,2.63 -1,3.7 0.27,2.24 -3.31,3.74l-0.04 7.81c-6.04,5.41 -4.17,1.79 -4.17,17.53 -4.92,2.6 -4.89,6.52 0,9.12 0,16.08 -0.01,9.36 9.8,20.58 3.1,3.55 3.65,1.32 6.94,3.66 2.56,1.82 3.86,2.14 8.33,2.13 7.03,-0.02 7.6,1.24 10.34,-3.37 3.85,0 6.72,0.58 9.56,-1.96l1.32 -1.19c0.62,-0.55 2.05,-1.92 2.07,-1.94 0.13,-0.11 0.3,-0.29 0.45,-0.4l1.07 -0.66c0.19,-0.1 0.41,-0.17 0.62,-0.25 5.8,-2.29 4.53,-1.74 9.15,-7.01l3.88 -3.58c3.49,-2.96 0.91,-1.97 2.56,-5.42l3.61 -3.88c2.71,-2.72 2.06,-2.76 2.14,-6.95l5.76 -4.16c0.84,-0.52 0.83,-0.4 1.63,-0.8l0.11 -8.84c3.49,-1.4 3.25,-1.15 3.36,-5.88 5.19,-4.33 3.31,-2.1 3.31,-14.45l3.31 -1.77 0.05 -25.84 3.38 -1.93c-0.65,-1.78 -0.34,-0.73 -1.27,-1.93 -0.14,-0.18 -0.64,-0.75 -0.81,-0.96 -1.27,-1.65 0.09,1.01 -1.31,-1.82 3.55,-1.69 1.48,-0.47 4.08,-3.22 0.5,-0.53 1.27,-1.31 1.62,-1.66 0.17,-0.17 0.61,-0.69 0.79,-0.85 2.63,-2.23 3.66,-0.76 6.65,-3.19 2.33,-1.9 -0.34,-1.43 6.33,-1.89 1.2,-1.9 0.84,-1.93 2.53,-3.92 1.89,-2.22 1.67,-2.13 3.89,-2.81 4.92,-1.52 1.13,0.83 4.48,-1.94 1.27,-1.05 0.15,-0.76 2.01,-1.41 0.95,-0.33 2.6,-0.27 3.7,-0.33 6.46,-9.93 7.96,-4.33 13.04,-10.61 4.2,-5.2 4.24,-1.59 9.69,-6.65 2.4,-2.22 8.28,-8.56 11.18,-9.55 1,-0.34 2.5,-0.26 3.61,-0.33 0.44,-0.64 0.84,-1.48 1.55,-2.41l15.1 -16.35c0.15,-0.11 0.45,-0.24 0.65,-0.4l0.07 -9.82c-1.48,-1.23 1.2,-0.89 -3.16,-1.64l-0.36 -6.82c-4.54,-0.1 -13.93,-0.94 -17.54,-0.06 -2,0.49 -3.27,2.91 -4.78,4.6l-3.53 3.91c-1.94,2.56 -5.74,4.09 -8.11,6.5 -0.12,0.12 -0.29,0.3 -0.41,0.42 -0.12,0.12 -0.29,0.3 -0.41,0.41 -1.11,1.11 -0.17,0.03 -1.24,1.2 -9.55,10.37 -5.41,4.02 -10.07,7.16 -2.52,1.71 -6.65,6.72 -7.45,9.83l-6.22 0.25c-1.62,3.8 -0.15,1.11 -2.73,3.74l-1.19 1.27c-1.85,1.75 -3.43,1.13 -5.82,2.22 -2.65,1.2 -3.97,3.55 -5.31,5.87 -0.42,0.04 -3.19,0.21 -3.3,0.24 -3.23,0.77 -1.14,0.22 -2.33,1.14 -2.8,2.16 -0.07,2.16 -6.65,2.16 -4,0 -4.4,-0.07 -4.58,-3.92 -0.42,-9.43 -0.95,-3.27 -2.54,-7.67 -1.02,-2.82 0.44,-5.54 -0.95,-8.05 -2.12,-3.85 -2.1,1.72 -2.95,-7.22l-3.07 -1.41c-0.07,-6.22 1.47,-6.64 -3.6,-10.05 -0.64,-6.35 -1.2,-5.48 -5.27,-8.98 -2.34,-2.02 -1.39,-2.12 -2.32,-4.83 -0.75,-2.14 -4.1,-4.23 -5.6,-6.76 -1.59,-2.67 -1.04,-5.18 -3.29,-7.45l-6.35 -6.71c-2.26,-2.25 -6.54,-5.32 -7.64,-7.94 -2.3,-5.53 0.82,-2.75 -4.87,-4.82 -2.29,-0.83 -2.73,-1.82 -4.49,-3.88l-0.73 -0.91c-1.61,-1.94 -0.96,-1.14 -2.73,-2.93 -6.88,-6.98 -10.03,-2.86 -12.14,-8.32l-9.52 -0.08c-1.6,-4.97 0.24,-3.69 -16.37,-3.69 -5.38,0 -1.3,1.21 -8.08,3.52l-3.07 1.91c-3.31,2.35 -1.06,0.32 -4.19,1.51 -2.16,0.84 -0.01,-0.35 -1.62,0.92l-3.32 4.07c-0.92,2.1 -0.08,1.93 -1.05,3.86 -2.44,4.86 -3.54,-3.38 -2.68,23.69 4.24,3.26 3.23,5.05 3.23,10.24 3.29,1.76 1.85,-0.28 2.71,2.95 1,3.84 -1.06,1.64 1.52,4.98 1.87,2.4 0.11,-1.07 1.49,1.84 1.59,3.34 0.63,3.29 3.27,6.62 2.14,2.7 0.13,0.68 2.65,2.87l5.07 4.84c2.18,2.13 2.78,2.97 2.97,6.92 3.99,2.78 7.03,6.43 10.65,9.7 0.04,0.04 1.71,1.6 1.73,1.63l1.13 1.36c1.2,1.46 -0.33,-0.07 1.44,1.71 0.53,0.52 0.54,0.43 1.29,1.14l7.96 7.61c6.2,5.65 0.14,2.85 7.92,5.78 1.98,0.75 2.22,1.42 3.75,2.98l4.52 4.54c9.06,9.16 2.29,3.09 8.82,6.29 2.81,1.38 2.04,2.01 1.88,5.25l-8.77 0.32c-3.21,4.77 -3.38,2.86 -8.48,3.73 -3.79,0.65 -1.29,0.76 -3.77,2.09 -5.8,3.1 -9.48,-2.79 -13.41,4.42 -17.85,0.18 -14.1,-1.2 -17.21,3.25 -25.49,0.35 -15.85,-0.09 -21.27,3.42l-4.35 -4.21c-0.51,-6 1.71,-15.22 -1.68,-19.31 -2.38,-2.88 -0.97,1.71 -1.82,-3.5 -0.31,-1.89 -0.02,-6.8 -0.09,-9.1 -0.97,-0.9 -2.51,-1.55 -3.69,-2.19l-0.09 -8.46c-0.61,-0.27 -1.93,-0.84 -2.01,-0.91 -2.52,-2.07 -0.57,0.13 -1.55,-2.51 -0.98,-2.66 1.09,-0.32 -1.29,-3.03 -0.44,-0.49 -2.14,-1.27 -2.45,-1.46l-3.6 -10.09c-1.43,-4.74 -2.27,-2.84 -6.72,-8.22 -3.73,-4.53 -2.4,-5.05 -4.65,-8.57l-1.05 -1.44c-0.1,-0.13 -0.24,-0.33 -0.34,-0.46l-2.51 -2.32c-4.23,-3.71 -8.32,-11.16 -13.92,-12.88 -5.86,-1.79 -4.7,-4.01 -9.18,-5.85 -0.2,-0.08 -0.42,-0.15 -0.63,-0.22 -2.17,-0.71 -2.5,-0.03 -4.34,-1.28 -1.95,-1.34 0.66,-0.16 -1.71,-1.56 -0.17,-0.1 -0.38,-0.22 -0.56,-0.31 -1.75,-0.81 -3.34,-0.62 -4.74,-1.71 -1.02,-0.79 -0.9,-2.14 -3.94,-2.14 -6,-0.02 -19.38,-0.9 -24.54,0 -5.85,2.08 0.5,3.14 -8.41,3.41 -1.23,10.57 -3.6,2.65 -3.65,15.74 -2.09,1.86 -4.76,1.06 -2.92,6.3 1.43,4.08 2.67,0.13 2.55,8.38 -0.04,3.02 -0.55,6.92 0.73,9.24 0.91,1.67 1.05,-0.25 1.98,3.16 0.35,1.29 0.18,4.18 0.18,5.64 1.34,4.09 1.21,0.55 2.72,3.67 1.66,3.46 -0.7,2.07 1.87,5.38l2.43 5.12c1.82,4.63 1.26,-0.54 3.41,3.83 0.04,4.36 0.43,3.75 2.94,5.98 2.38,2.11 2.84,2.64 3.68,5.45 0.8,2.69 -0.4,0.69 1.13,2.92 2.88,4.22 8.29,8.18 11.89,11.76l4.72 5.11c1.56,1.68 0.42,0.4 2.13,1.87l2.91 2.92c0.11,0.12 0.27,0.32 0.39,0.44 0.11,0.12 0.26,0.31 0.38,0.43 2.31,2.6 2.16,1.04 3.62,4.4 -4.32,1.87 -35.34,0.88 -42.87,0.56 -2.36,-3.39 0.37,-2.48 -3.27,-3.2l-23.98 0c-2.88,-5.77 -2.47,-3.45 -10.74,-3.91l-0.08 -15.52c1.85,-0.7 3.64,-0.19 3.25,-2.61 -0.69,-4.25 -1.52,1.63 -3.25,-4.32l-0.01 -27c-4.29,-2.92 -3.33,-5.1 -3.36,-10.16 -1.28,-0.93 -2.83,-1.43 -4.11,-2.29 -0.11,-15.5 -3.38,-2.43 -3.38,-18.06 -4.26,-2.82 -3.09,-0.59 -3.46,-7.14l-3.52 -1.23 -0.19 -5.68c-1.11,-0.45 -1.82,-0.59 -2.69,-1.38 -0.68,-0.62 -0.24,-0.34 -1.07,-1.37 -0.91,-1.13 -0.14,-0.32 -1.08,-1.3 -3.84,-4.01 1.45,-1.44 -6.43,-9.96 -1.99,-2.14 -2.72,-2.9 -5.12,-4.45l-0.33 -4.91 -4.11 -3.23c-4.09,-4.11 -4.76,-8.66 -11.85,-8.66 -1.54,-3.85 -1.95,-2.59 -3.94,-5.12 -0.19,-0.25 -1.03,-1.76 -1.16,-1.94 -2.4,-0.08 -5.22,0.36 -7.48,-0.38 -3.48,-1.14 -3.23,-3.7 -9.91,-2.58 -4.03,0.69 1.09,3.32 -11.24,3.36l-11.36 11.18c-0.77,7.72 -3.07,4.06 -3.2,11.4 -0.04,2.21 0.48,4.91 -0.27,6.88 -1.78,4.59 -1.69,-1.35 -3.01,4.62 0.62,7 3.41,-0.31 3.38,9.77 -0.02,4.51 -0.06,9.01 -0.03,13.53 5.04,2.27 2.53,3.93 3.32,8.61 0.88,5.27 3.32,-1.71 3.35,11.73 5.16,2.66 2.37,3.57 5.1,7.09 1.56,2.02 1.98,1.31 1.99,6.36l3.15 0.98 0.25 6.2c5.63,2.42 0,2.65 7.77,10.21l4.53 4.47c2.41,2.57 9.14,10.12 0.36,10.12 -4.88,0 -4.76,0.58 -7.52,-3.71l-11.3 -0.1 -2.54 -3.25c-10.06,-0.06 -5.73,0.76 -9.73,-3.71l-8.61 -0.13c-1.94,-4.61 -2.27,-3.3 -8.58,-3.3l-0.92 -1.23c-0.09,-0.12 -0.3,-0.4 -0.4,-0.55l-1.13 -1.96 -8.18 -0.09 -2.46 -3.22 -9.36 -0.18c0.03,-7.7 -0.22,-3.62 3.25,-7.07l0.16 -11.45c2.22,-1.59 3.27,-2.13 3.27,-4.91 0,-8.78 0.91,-42.26 0,-48.28 -1.42,-4.55 -1.66,-0.04 -3.34,-4.91l0 -9c-1.39,-3.92 -1.27,-0.81 -2.9,-3.27 -0.11,-0.15 -0.23,-0.35 -0.31,-0.52l-1.33 -3.76c-1.42,-2.14 -2.35,-0.29 -2.94,-4.01 -0.25,-1.59 -0.06,-4.52 -0.21,-6.44 -0.94,-0.75 -1.9,-1.41 -2.79,-2.32 -0.14,-0.15 -2.3,-2.5 -2.34,-2.53 -1.8,-2.3 -1.41,-4.46 -3.13,-6.71 -6.02,-7.83 5.89,2.94 -8.73,-11.69 -0.12,-0.12 -0.28,-0.3 -0.4,-0.42 -0.12,-0.12 -0.29,-0.3 -0.41,-0.42 -0.11,-0.12 -0.29,-0.29 -0.41,-0.41l-8.17 -9.08c-2.5,-3.02 -3.59,-1.28 -6.46,-3.3 -1.17,-0.82 0.56,-1.07 -2.8,-1.97 -1.31,-0.35 -3.99,-0.16 -5.47,-0.16 -2.87,-0.4 -3.04,-4.62 -10.64,-3.34 -4.62,1.61 0.18,1.84 -4.91,3.34 -6.63,0.96 -4.92,-1.34 -9.49,3.36l-9.79 9.06c-2.58,2.59 -1.22,-0.37 -2.25,2.05 -0.96,4.55 1.66,11.88 -1.26,15.63 -0.22,0.28 -1.08,1.2 -1.17,1.33 -1.68,2.41 -1.05,5.63 -1.05,9.23 0,2.68 -0.17,2 0.91,3.63 1.62,2.47 -2.13,-2.65 1.17,1.3 2.58,3.09 1.29,10.6 1.26,14.72 -0.09,10.4 2.48,6.89 3.35,10.62l0.04 10.64c0.52,0.34 0.43,0.19 1.14,0.74l2.12 1.71 0.07 7.37c3.67,3.35 3.13,-1.05 3.36,6.8 0.97,0.74 2.51,1.37 3.69,1.91 0.04,4.18 0.69,4.03 2.39,6.71 0.11,0.17 0.25,0.36 0.33,0.55 0.1,0.19 0.18,0.41 0.26,0.62 1.72,4.5 -0.98,-3.8 0.33,1.4 1.28,5.11 3.42,3.16 3.36,9.43 -11.31,0.71 0.11,-2.74 -15.32,-2.74 -0.68,-1.21 -1.16,-2.47 -1.93,-3.64 -7.8,-0.5 -3.43,0.68 -6.86,-3.34 -12.8,-0.25 -6.34,-1.54 -11.05,-3.22 -1.64,-0.58 -4.32,-0.24 -6.14,-0.24 -4.43,-1.46 -0.96,-1.02 -3.46,-2.54 -2.52,-1.53 -1.71,-0.16 -4.34,-1.34 -4.97,-2.22 0.55,-2.8 -9.38,-2.8 -3.17,-1.47 -0.98,0.34 -2.45,-3.62 -0.69,-0.04 -2.87,-0.06 -3.36,-0.14 -4.86,-0.83 -2.12,-2.39 -9.61,-3.13 -2.39,-21.81 2.99,-13.69 2.99,-21.11 0,-7.32 0.89,-32.31 0,-37.64 -1.58,-4.61 -1.82,0.07 -3.34,-4.91l0 -12.27c-1.91,-5.04 -3.34,1.54 -3.34,-9.82 -0.77,-2.58 -1.54,-2.19 -3.62,-3.41 -0.16,-2.42 0.33,-5.55 -0.54,-7.67 -0.87,-2.14 -1.89,-1.79 -2.65,-3.92 -2.58,-7.23 -2.32,-3.23 -3.76,-6.7 -0.7,-1.71 0.13,-1.18 -0.91,-3.25 -1.49,-3.01 -0.8,0.18 -3,-5.99 -2.14,-6 -11.22,-9.98 -14.15,-16.17 -3.02,-0.13 -2.41,0.25 -4.89,-0.86 -4.17,-1.85 0.18,-1.71 -10.38,-1.71 -6.99,0 0.16,2.91 -13.29,2.91 -2.29,5.58 -0.11,1.85 -3.39,4.66 -0.52,0.45 -1.6,1.5 -2.13,2.01l-2.08 2.04c-7.85,7.71 -0.49,2.72 -4.32,7.95l-2.27 2.29c-0.06,8.18 0.02,16.37 -0.02,24.55 -0.01,1.81 -0.14,4.06 -0.08,5.81 0.18,5.71 -0.01,2.98 1.87,5.17 1.86,2.16 1.51,-0.49 1.62,4.49 0.07,3.27 -0.54,6.29 1.49,8.79 1.05,1.29 0.89,-0.02 1.58,2.28 0.38,1.26 0.23,5.27 0.36,7.01 4.09,3.76 3.17,3.13 3.17,10.23 3.84,2.09 2.17,0.83 3.49,5.24 0.69,2.31 1.71,2.52 2.4,4.45 2.62,7.38 -0.76,0.4 2.8,6.12l2.48 6.67c0.11,0.19 0.61,0.45 1.13,2.11 -10.14,0 -7.3,-1.91 -12.82,-3.44l-2.51 -1c-1.59,-1.04 -0.21,-0.92 -2.19,-1.82 -1.93,-0.87 -5.22,-0.4 -7.58,-0.6 -3.44,-4.47 -3.19,-3.16 -10.16,-3.16 -3.13,-6.04 -1.83,-2.62 -8.65,-3.87 -5.85,-1.07 -0.17,-2.8 -10.65,-2.8 -3.48,-1.58 -0.7,-0.85 -3.27,-3.68 -1.76,-0.07 -5.06,0.11 -6.57,-0.17 -4.05,-0.73 -1.85,-1.23 -4.54,-2.34 -8.57,-3.5 -8.48,5.95 -8.48,-13.58 0,-3 1.55,-3.54 3.71,-5.15 0.16,-7.56 0.94,-32.09 0.05,-37.39 -1.2,-3.47 -2.45,-1 -3.76,-4.91l0 -15.54c-1.25,-5.05 -1.19,0.52 -2.92,-4.91 -0.47,-3.02 1.32,-8.77 -0.58,-11.23l-1.44 -1.09c-0.18,-0.11 -0.48,-0.28 -0.63,-0.38 -0.16,-0.1 -0.47,-0.22 -0.67,-0.39l-0.05 -7.37c-0.18,-0.12 -1.55,-1.13 -1.55,-1.13 -2.54,-2.53 -0.91,-3.87 -2.18,-6.17l-2.29 -2.06c-0.15,-0.12 -0.43,-0.29 -0.62,-0.47l-0.08 -4.91 -3.62 -0.55c-0.15,-6.3 0.67,-3.23 -2.15,-6.06 -5.12,-5.14 3.49,0.78 -7.61,-11.22 -0.11,-0.13 -0.27,-0.32 -0.39,-0.44l-2.8 -2.93c-4.73,-4.73 -1.53,-2.69 -6.92,-6.88 -3.89,-3.02 -3.96,-4.45 -8.45,-5.68 -7.24,-1.99 2.84,-3.25 -15.65,-3.25 -3.27,0 -3.71,1.5 -4.59,2.14 -2.59,1.85 -3.54,0.85 -5.69,2.57 -2.38,1.91 -2.65,1.96 -6.24,1.97l-4.03 5.89c-0.78,2.22 -0.58,3.06 -2.27,4.93l-1.34 3.16c0,7.97 -0.91,27.77 0,34.36 1.54,5.39 1.71,0.29 3.34,4.91l0 9c1.52,4.41 2.2,1.37 3.33,4.91l0.01 5.73c2.09,3.95 1.72,-0.04 3.32,4.09l0.01 5.73c1.52,4.53 1.26,0.67 2.8,3.9 1.01,2.13 0.68,3.55 2.3,5.2 3.34,3.36 0.8,3.92 5.27,8.09 0.13,4.18 -0.54,5.53 1.13,9.15 1.79,3.92 1.11,4.47 3.79,7.81l5.01 8.08c0.83,1.56 1.76,1.64 2.51,4.04l-15.12 -1.32c-3.18,-4.47 -10.21,-0.04 -13.92,-3.3 -4.05,-3.56 -10.91,-2.06 -16.83,-2.06 -3.11,-5.32 -7.67,-3.34 -19.25,-3.34l-2.45 -3.67 -19.9 -0.18c-0.05,-9.4 3.32,-4.03 3.32,-10.33 0,-6.46 0.91,-26.14 0,-31.09 -0.85,-2.23 -1.39,-1.96 -3.28,-3.02l-0.07 -17.43c-1.64,-4.63 -1.84,0.38 -3.33,-4.91 0,-7.13 1.75,-9.56 -3.34,-11.81 0,-17.16 -3.17,-4.98 -3.42,-15.47 -1.23,-0.8 -2.43,-1.23 -3.67,-1.93l-0.1 -8.43c-2.51,-1.38 -3.39,-2.07 -4.92,-3.83 -1.79,-2.07 -1.13,-4.1 -2.64,-6.41 -1.6,-2.47 -0.27,0.91 -1.83,-2.32 -1.67,-3.46 -1.67,-5.99 -4.96,-8.75l-5.12 -4.03c-3.36,-3.35 -4.98,-2.62 -8.04,-5 -1.48,-1.14 -4.73,-1.33 -6.45,-2.52 -1.72,-1.2 -1.47,-2.05 -4.26,-2.05 -7.88,0 -14,-1.95 -17.57,3.33z"/>
 </g>
</svg>
