<?xml version="1.0" encoding="UTF-8"?>
<!DOCTYPE svg PUBLIC "-//W3C//DTD SVG 1.1//EN" "http://www.w3.org/Graphics/SVG/1.1/DTD/svg11.dtd">
<!-- Creator: CorelDRAW -->
<svg xmlns="http://www.w3.org/2000/svg" xml:space="preserve" width="70.3033mm" height="80.1348mm" version="1.1" style="shape-rendering:geometricPrecision; text-rendering:geometricPrecision; image-rendering:optimizeQuality; fill-rule:evenodd; clip-rule:evenodd"
viewBox="0 0 3769.93 4297.13"
 xmlns:xlink="http://www.w3.org/1999/xlink"
 xmlns:xodm="http://www.corel.com/coreldraw/odm/2003">
 <defs>
  <style type="text/css">
   <![CDATA[
    .fil0 {fill:#FEFEFE}
   ]]>
  </style>
 </defs>
 <g id="Camada_x0020_1">
  <metadata id="CorelCorpID_0Corel-Layer"/>
  <g id="_2528168613920">
   <path class="fil0" d="M2844.31 789.39l-398.21 398.21c472.69,216.41 785.53,692.23 785.53,1224.56 0,743.76 -602.9,1346.67 -1346.66,1346.67 -743.77,0 -1346.67,-602.9 -1346.67,-1346.67 0,-532.33 312.84,-1008.15 785.53,-1224.56l-398.2 -398.2c-571.29,338.16 -925.62,952.51 -925.62,1622.77 0,1041.01 843.96,1884.97 1884.97,1884.97 1041.01,0 1884.96,-843.96 1884.96,-1884.97 0,-670.25 -354.32,-1284.62 -925.62,-1622.77z"/>
   <path class="fil0" d="M970.04 518.94l222.47 222.47 389.54 389.54 80.44 80.44 222.47 222.47 222.47 -222.47 99.6 -99.6 370.38 -370.38 222.47 -222.47 -198.33 -198.33 -24.14 -24.14 -141.73 -141.73 -154.75 -154.75 -353.09 0 -85.78 0 -353.09 0 -154.75 154.75 -141.73 141.73 -24.14 24.14 -198.33 198.33zm1186.58 -198.33l198.33 198.33 -465.74 465.75 -8.49 -0.02 -465.73 -465.73 198.33 -198.33 228.76 0 85.78 0 228.76 0z"/>
  </g>
 </g>
</svg>
