<?xml version="1.0" encoding="UTF-8"?>
<!DOCTYPE svg PUBLIC "-//W3C//DTD SVG 1.1//EN" "http://www.w3.org/Graphics/SVG/1.1/DTD/svg11.dtd">
<!-- Creator: CorelDRAW -->
<svg xmlns="http://www.w3.org/2000/svg" xml:space="preserve" width="50.8658mm" height="22.3716mm" version="1.1" style="shape-rendering:geometricPrecision; text-rendering:geometricPrecision; image-rendering:optimizeQuality; fill-rule:evenodd; clip-rule:evenodd"
viewBox="0 0 772.02 339.55"
 xmlns:xlink="http://www.w3.org/1999/xlink"
 xmlns:xodm="http://www.corel.com/coreldraw/odm/2003">
 <defs>
  <style type="text/css">
   <![CDATA[
    .fil0 {fill:white;fill-rule:nonzero}
   ]]>
  </style>
 </defs>
 <g id="Camada_x0020_1">
  <metadata id="CorelCorpID_0Corel-Layer"/>
  <path class="fil0" d="M282.75 47.15c0.58,-2.9 -4.47,-2.02 -4.94,0.3 -1,5.03 -5.89,7.37 -10.34,8.88 -4.89,1.67 -10.03,2.5 -15.2,2.87 -2.67,0.19 -5.33,0.25 -7.99,0.25 -0.02,-0.02 -0.02,-0.07 -0.05,-0.09 -1.44,-2.18 -4.4,-1.65 -6.21,-0.05 -6.02,-0.23 -12.03,-0.7 -18.03,-0.88 -10.2,-0.32 -20.83,0.02 -30.29,4.24 -2.73,1.23 -19.35,11.73 -11.66,14.97 1.9,0.81 5.42,-2.18 2.97,-3.36 -0.74,-0.35 4.15,-4.66 4.38,-4.84 1.83,-1.39 3.82,-2.55 5.91,-3.48 4.61,-2.04 9.66,-2.94 14.69,-3.34 10.15,-0.81 20.32,0.25 30.47,0.7 -0.02,8.53 1.83,17.06 2.78,25.56 1,8.81 1.67,17.61 1.81,26.49 0.14,8.97 -0.28,18.07 -1.39,27.09 -4.61,2.32 -9.18,4.75 -13.58,7.48 -7.51,4.64 -14.6,10.17 -20.16,17.08 -4.66,5.77 -10.36,14.78 -5.63,22.13 4.17,6.47 13.35,8.3 20.46,7 8.83,-1.6 16.22,-7.65 21.18,-14.9 5.38,-7.85 7.9,-17.24 9.89,-26.44 1.09,-5.03 1.9,-10.13 2.48,-15.25 1.21,-0.6 2.41,-1.18 3.62,-1.78 7.58,-3.82 15.15,-8.09 20.42,-14.95 2.13,-2.78 -2.25,-3.89 -3.87,-1.76 -5.03,6.56 -12.37,10.43 -19.7,14.02 0.32,-3.45 0.56,-6.93 0.7,-10.38 0.46,-11.22 -0.07,-22.41 -1.69,-33.51 -1.34,-9.11 -3.04,-19.3 -7.23,-27.74 6.63,-0.16 13.23,-0.88 19.6,-2.78 6.88,-2.04 15.02,-5.72 16.59,-13.53zm464.43 65.2c-6.87,0.12 -7.66,-6.43 -21.05,1.08 -1.98,1.11 -7.57,5.03 -9.16,5.24 1.16,-1.99 5.29,-5.47 6.95,-7.21 2.42,-2.54 4.54,-5.27 6.86,-8.47 3.45,-4.77 11.52,-18.11 12.71,-19.43 5.43,-6 9.45,-3.9 15.88,-8.51 5.26,-3.77 11.16,-13.32 12.66,-18.66 -0.93,0.34 -0.72,0.26 -1.61,1.06 -1.39,1.25 -2.87,2.87 -5.02,3.48 -2.63,0.75 -4.36,-0.75 -7.72,0.78 -3.94,1.78 -6.56,5.96 -9.02,9.51 -0.59,0.85 -1.78,3.12 -3.01,3.79 1.9,-6.77 3.51,-12.59 4.06,-18.99 1.1,-12.74 2.28,-10.17 6.77,-20.05 3.04,-6.68 3.55,-16.51 2.49,-22.91 -0.46,-2.81 -1.55,-11.74 -2.23,-13.05 -0.57,2.02 -0.41,6.14 -1.88,10.96 -2.44,7.97 -5.16,13.77 -5.08,22.29 0.02,2.45 0.6,8.3 -0.59,10.58 -0.21,-0.44 -0.73,-2.84 -0.88,-3.58 -0.33,-1.63 -0.4,-2.24 -0.87,-3.86 -1.74,-5.95 -4.2,-9.2 -8.14,-14.07 -1.7,-2.1 -3.2,-4.96 -5.16,-6.72 -0.31,5.52 0.28,3.87 1.06,10.1l0.59 10.51c0.9,11.19 5.8,13.38 9.88,18.23 2.5,2.97 1.83,6.29 0.93,10.14 -2.07,8.82 -4.84,15.84 -9.33,24.08 -0.68,1.25 -5.7,9.32 -6.88,10.27 -0.45,0.36 -0.39,0.27 -0.7,0.42 3.24,-5.88 6,-16.55 6.24,-23.18 0.3,-8.59 0.43,-6.29 -2.19,-15.25 -0.65,-2.2 -0.78,-4 -1.34,-5.09 -0.96,1.84 -1.32,8.29 -2.58,11.98 -4.42,12.93 -11.57,18.52 -7.36,36.38 1.01,4.29 -2.14,6.9 -5.53,10.65 -2.95,3.26 -5.78,6.5 -8.7,9.65 -1.36,1.47 -2.74,3.07 -4.19,4.44 -1.45,1.37 -2.98,2.66 -4.53,4.2l-6.5 6.86c-0.94,1 -1.57,1.37 -2.3,2.47l-0.65 -0.36c1.58,-3.54 -0.2,-1.18 3.29,-7.53 1.31,-2.39 3.2,-5.41 4.28,-7.82 2.2,-4.92 5.14,-10.7 6.4,-15.28 1.33,-4.79 1.87,-9.27 1.28,-13.52 -0.33,-2.37 -2.69,-10.38 -3.71,-12.35 -1.73,6.16 0.03,6.96 -5.85,17.61l-8.34 12.79c-0.9,1.64 -1.79,3.28 -2.7,4.91 -1.61,2.9 -2.55,6.16 -2.82,8.76 -0.55,5.41 1.53,10.18 2.58,15.41 0.68,3.38 -2.1,5.02 -4.37,7.1 -2.21,2.02 -4.38,3.49 -6.44,5.16 -9.12,7.41 -19.7,11.89 -31.04,13.05 -2.07,0.21 -3.84,0.53 -4.91,1.24 0.64,2.98 2.41,2.96 5.92,2.48l5.05 -0.97c12.43,-2.52 18.3,-8.28 28.04,-12.79 4.66,-1.17 10.11,-0.01 15.38,1.09 5.46,1.14 10.88,2.61 16.35,3.48 6.92,1.1 12.38,-0.42 18.1,-3.71l9.78 -5.96c-4.04,-1.14 -7.45,2.69 -16.66,-2.24 -2.89,-1.55 -1.44,-1.27 -5.94,-2.97 -5.81,-2.19 -10.01,-0.59 -14.49,0.09 -2.39,0.36 -5.71,1.64 -8.3,2.56 -3.53,1.25 -8.59,3.85 -11.95,4.14 0.98,-1.48 6.93,-7.09 8.69,-8.76 2.91,-2.76 6.1,-5.75 8.98,-8.7 13.57,-13.91 14.75,-12.05 30.83,-12.69 9.61,-0.38 12.68,-1.97 20.57,-8.42 18.02,-14.72 3.43,-5.97 -0.89,-5.89zm-634.51 95.14c0.42,6.86 -6.09,7.94 2,20.99 1.19,1.93 5.36,7.34 5.64,8.92 -2.04,-1.07 -5.7,-5.04 -7.51,-6.62 -2.64,-2.3 -5.46,-4.3 -8.76,-6.48 -4.91,-3.24 -18.59,-10.71 -19.97,-11.85 -6.24,-5.16 -4.31,-9.27 -9.2,-15.49 -4,-5.09 -13.79,-10.57 -19.2,-11.83 0.38,0.91 0.29,0.71 1.13,1.56 1.31,1.33 2.99,2.74 3.69,4.86 0.86,2.6 -0.56,4.39 1.12,7.68 1.96,3.86 6.25,6.29 9.89,8.59 0.87,0.55 3.19,1.64 3.92,2.84 -6.85,-1.6 -12.73,-2.95 -19.15,-3.22 -12.78,-0.54 -10.26,-1.83 -20.32,-5.89 -6.81,-2.75 -16.65,-2.82 -23,-1.48 -2.78,0.59 -11.66,2.06 -12.94,2.8 2.04,0.48 6.15,0.14 11.03,1.4 8.07,2.08 13.98,4.55 22.5,4.09 2.44,-0.13 8.27,-0.96 10.6,0.12 -0.43,0.23 -2.81,0.85 -3.54,1.03 -1.61,0.4 -2.22,0.5 -3.81,1.04 -5.86,2 -9.01,4.6 -13.7,8.75 -2.03,1.79 -4.82,3.41 -6.49,5.45 5.52,0.06 3.85,-0.45 10.04,-1.5l10.48 -1.05c11.14,-1.39 13.11,-6.39 17.77,-10.67 2.86,-2.62 6.21,-2.11 10.09,-1.37 8.9,1.68 16.04,4.14 24.47,8.27 1.27,0.62 9.56,5.29 10.56,6.42 0.38,0.43 0.29,0.38 0.45,0.68 -6.02,-2.97 -16.79,-5.27 -23.43,-5.22 -8.59,0.07 -6.31,-0.16 -15.14,2.86 -2.17,0.74 -3.96,0.95 -5.03,1.56 1.89,0.88 8.34,0.95 12.08,2.05 13.11,3.84 19,10.74 36.67,5.75 4.24,-1.2 6.98,1.84 10.88,5.06 3.39,2.81 6.74,5.49 10.02,8.27 1.53,1.3 3.19,2.6 4.62,3.99 1.43,1.39 2.79,2.86 4.39,4.35l7.14 6.19c1.04,0.9 1.44,1.51 2.57,2.19l-0.33 0.67c-3.61,-1.42 -1.17,0.25 -7.67,-2.96 -2.44,-1.21 -5.55,-2.96 -8,-3.93 -5.01,-1.98 -10.92,-4.66 -15.55,-5.73 -4.85,-1.11 -9.34,-1.46 -13.56,-0.68 -2.36,0.43 -10.25,3.14 -12.17,4.25 6.23,1.46 6.95,-0.34 17.85,5.07l13.15 7.77c1.67,0.83 3.35,1.64 5.02,2.48 2.97,1.48 6.26,2.28 8.88,2.43 5.43,0.31 10.1,-1.97 15.29,-3.26 3.35,-0.83 5.11,1.88 7.28,4.06 2.12,2.12 3.68,4.23 5.44,6.21 7.8,8.79 12.74,19.16 14.4,30.44 0.3,2.06 0.7,3.81 1.45,4.85 2.95,-0.77 2.85,-2.53 2.21,-6.03l-1.19 -5c-3.07,-12.31 -9.07,-17.91 -14.01,-27.45 -1.38,-4.61 -0.45,-10.1 0.41,-15.42 0.9,-5.51 2.13,-10.98 2.76,-16.49 0.79,-6.96 -0.96,-12.35 -4.5,-17.92l-6.39 -9.5c-0.96,4.09 3.02,7.32 -1.51,16.75 -1.42,2.96 -1.2,1.49 -2.7,6.07 -1.94,5.9 -0.15,10.02 0.72,14.47 0.47,2.37 1.89,5.63 2.92,8.18 1.4,3.47 4.22,8.41 4.67,11.75 -1.52,-0.91 -7.39,-6.61 -9.13,-8.3 -2.89,-2.79 -6.01,-5.85 -9.08,-8.59 -14.49,-12.95 -12.68,-14.21 -14.03,-30.25 -0.8,-9.58 -2.53,-12.58 -9.31,-20.18 -15.5,-17.35 -6.12,-3.16 -5.85,1.15zm155.77 22.59c-2.86,-2.07 -6.86,-1.99 -10.11,-1.05 -0.4,0.12 -0.84,0.27 -1.31,0.44 0.39,-8.62 1.17,-17.25 1.49,-25.86 2.62,1.5 3.52,4.89 3.05,8.16 -0.22,1.58 2.43,1.08 2.62,-0.15 0.39,-2.54 0.36,-5.31 -1.06,-7.55 -1.05,-1.63 -2.69,-2.77 -4.53,-3.33 0.03,-1.99 0.06,-3.97 0.02,-5.96 -0.02,-1.32 -2.5,-0.53 -2.49,0.67 0.02,1.63 0.01,3.25 -0.02,4.88 -4.76,-0.23 -9.84,2.48 -12.73,6.1 -3.03,3.79 -5.07,9.6 -2.75,14.24 1.33,2.68 3.67,4 6.31,4.47 -3.67,3.32 -6.74,7.45 -8.31,11.89 -1.19,3.36 -1.27,7.32 0.41,10.53 1.58,3.03 4.53,5.09 7.76,6.04 2.69,0.78 5.52,0.81 8.26,0.22 0.1,0.87 0.22,1.73 0.36,2.6 0.22,1.4 2.82,0.54 2.63,-0.7 -0.14,-0.88 -0.26,-1.75 -0.37,-2.63 3.35,-1.19 6.41,-3.24 8.72,-5.79 3.88,-4.31 8.17,-12.78 2.06,-17.2zm-17.04 5.55c0.22,1.38 2.75,0.53 2.56,-0.68 -0.08,-0.6 0.06,-1.11 0.35,-1.57 -0.19,5.59 -0.15,11.18 0.34,16.76 -2.02,0.17 -4.05,-0.11 -5.93,-0.96 -4.82,-2.19 -6.45,-7.41 -4.7,-12.24 0.96,-2.67 2.75,-4.95 4.62,-7.03 1.8,-2.01 3.79,-3.87 6.11,-5.25 -0.12,2.02 -0.23,4.04 -0.33,6.06 -1.86,1.14 -3.36,2.76 -3.02,4.91zm3.65 -15.59c-0.29,0 -0.59,0.05 -0.85,0.12 -3.04,0.84 -6.72,0.98 -8.26,-2.35 -1.41,-3.02 -0.63,-6.59 1.01,-9.35 1.75,-2.94 4.87,-5.7 8.48,-5.63 0.21,0 0.41,0.01 0.61,0.03 -0.19,5.72 -0.6,11.44 -0.98,17.18zm8.05 26.8c-1.7,1.26 -3.71,2.27 -5.82,2.83 -0.55,-6.04 -0.57,-12.08 -0.35,-18.14 1.31,-0.51 2.75,-0.81 3.64,-0.9 2.54,-0.28 5.39,0.22 6.98,2.41 3.37,4.66 -0.57,10.91 -4.46,13.79zm167.2 -10.14c-3.25,1.57 -9.46,4.55 -12.22,5.04l-3.2 -0.07 3.91 -3.27c1.94,-1.46 8.79,-5.93 11.43,-7.76 2.41,-1.46 4.39,-1.29 4.41,0.39 0.02,1.67 -1.91,4.22 -4.33,5.68zm-127.5 -17.97c-2.66,20.69 -2.9,41.67 -2.11,62.5 0.35,8.99 0.9,17.96 1.85,26.9 -1.41,-1.71 -2.99,-3.29 -4.77,-4.66 -5.75,-4.31 -13.49,-6.42 -20.37,-3.59 -6.63,2.71 -9.8,9.87 -7.12,16.61 2.87,7.16 10.87,10.91 18.05,11.96 5.96,0.88 11.98,0.42 17.82,-0.97 1.11,4.01 2.39,8.25 5.47,11.1 1.88,1.74 5.45,-0.12 6.05,-2.29 1.16,-4.17 0.58,-8.67 0.3,-12.98 5.21,-2.41 10.15,-5.42 14.6,-8.74 2.6,-1.95 5.08,-4.01 7.48,-6.19 0.53,3.69 1.27,7.3 2.29,10.85 2.73,9.45 8.6,17.29 18.52,19.7 8.57,2.09 16.59,-1.18 22.34,-7.63 6.33,-7.09 10.17,-16.57 13.35,-25.42 3.57,-9.94 6.02,-20.25 8.48,-30.52 0.7,-2.97 -4.5,-2.04 -5.08,0.3 -3.57,14.88 -7.14,29.99 -14.2,43.68 -2.87,5.56 -6.67,12.68 -13.07,14.74 -6.77,2.18 -12.35,-4.98 -14.48,-10.54 -3.45,-9.11 -4.63,-19.33 -4.82,-29.45 4.4,-5.47 8.39,-11.29 11.96,-17.24 9.32,-15.46 16.73,-33.25 19.47,-51.14 1.07,-6.81 2.53,-17.47 -3.92,-22.2 -6.37,-4.63 -14.53,0 -19.49,4.45 -6.6,5.93 -10.45,14.44 -13.21,22.71 -3.13,9.34 -5,18.86 -6.33,28.6 -1.92,14.16 -3.71,29.55 -2.36,44.26 -6.42,6.33 -13.65,11.89 -21.74,15.78 -0.21,-4.15 -0.49,-8.3 -0.74,-12.44 -0.58,-9.87 -0.88,-19.81 -1.09,-29.71 -0.42,-20.21 0.25,-40.41 0.3,-60.62 0.02,-6.86 -12.77,-3.11 -13.44,2.2zm56.57 10.71c1.53,-6.4 2.87,-14.09 6.79,-19.54 2.04,-2.8 5.96,-4.84 9.39,-3.5 3.68,1.41 4.57,5.77 4.77,9.27 0.49,7.86 -1.39,15.83 -3.52,23.34 -2.04,7.3 -4.63,14.46 -7.76,21.37 -4.29,9.43 -9.5,18.47 -15.62,26.83 0.07,-3.45 0.21,-6.86 0.39,-10.17 0.83,-15.76 1.88,-32.21 5.56,-47.6zm-69.38 94.99c-7.23,-1.16 -16.43,-6.23 -15.73,-14.78 0.83,-10.52 14.34,-7.12 19.84,-2.78 5.1,3.99 8.2,9.73 10.73,15.62 0.12,0.44 0.21,0.86 0.32,1.27 -5.01,1.11 -10.17,1.48 -15.16,0.67zm160.66 -51.14c-2.02,5.66 -4.5,11.1 -7.51,16.29 -0.67,1.18 -3.75,7.65 -5.84,6.07 -0.44,-0.35 -0.76,-2.94 -0.86,-3.52 -0.19,-1.14 -0.21,-2.25 -0.25,-3.41 -0.21,-6.05 -0.3,-12.1 0.16,-18.14 0.44,-6.1 1.81,-12.49 1.27,-18.58 -0.25,-2.94 -3.55,-3.78 -5.98,-3.36 -2.06,0.35 -4.06,1.39 -5.38,2.99 -3.01,-1.92 -7.02,-1.85 -10.34,-0.88 -9.71,2.83 -15.48,12.21 -17.96,21.43 -2.11,7.72 -3.69,21.62 4.47,26.51 3.2,1.9 7.3,2.27 10.61,0.53 3.62,-1.92 5.59,-5.79 7,-9.45 1.25,-3.29 2.2,-6.67 2.99,-10.1 0.3,6.16 1.09,16.87 7.51,19.6 2.46,1.04 6.1,1.41 8.62,0.51 2.97,-1.04 4.91,-3.38 6.56,-5.96 4.15,-6.47 7.32,-13.58 9.85,-20.83 0.95,-2.73 -4.15,-1.85 -4.94,0.3zm-33.32 9.32c-1.02,3.99 -2.09,9.04 -4.98,12.12 -4.52,4.84 -4.57,-7.02 -4.54,-9.2 0.07,-8.23 1.85,-16.24 6.17,-23.34 1.41,-2.32 3.82,-7.09 7.11,-6.65 0.93,0.14 1.69,0.58 2.36,1.18 -2.6,8.5 -3.92,17.29 -6.12,25.88zm73.25 -10.43c-2.62,7.21 -5.31,14.76 -10.04,20.9 -2.25,2.9 -6.28,6.72 -9.5,2.67 -2.04,-2.55 -3.24,-6.33 -4.26,-9.39 -2.46,-7.18 -3.15,-14.88 -3.45,-22.41 -0.14,-2.94 -0.23,-5.86 -0.28,-8.81 6.28,-0.95 12.4,-3.15 17.63,-6.79 6.88,-4.75 11.68,-12.28 14.55,-20.02 4.94,-13.3 4.4,-41.94 -16.73,-38.31 -20.05,3.45 -27.39,25.07 -29.01,42.73 -0.97,10.7 -1.09,21.62 -0.12,32.3 0.88,9.57 2.34,20.32 7.9,28.46 2.92,4.26 6.42,7.18 11.66,8.13 4.47,0.79 8.55,0.09 12.1,-2.9 7.79,-6.51 11.19,-17.63 14.41,-26.86 0.95,-2.73 -4.08,-1.83 -4.87,0.28zm-27.23 -33.83c0.74,-12.63 1.92,-27.69 9.71,-38.26 1.88,-2.55 4.64,-5.01 7.97,-5.01 4.03,0 7.18,2.9 9.04,6.26 3.52,6.47 3.17,14.88 1.53,21.83 -1.76,7.58 -5.7,15.39 -11.66,20.51 -4.73,4.08 -10.77,6.28 -16.94,7.11 0,-4.15 0.09,-8.3 0.35,-12.44zm67.13 33.83c-2.62,7.21 -5.31,14.76 -10.04,20.9 -2.25,2.9 -6.28,6.72 -9.5,2.67 -2.04,-2.55 -3.24,-6.33 -4.26,-9.39 -2.46,-7.18 -3.15,-14.88 -3.45,-22.41 -0.14,-2.94 -0.23,-5.86 -0.28,-8.81 6.28,-0.95 12.4,-3.15 17.63,-6.79 6.88,-4.75 11.68,-12.28 14.55,-20.02 4.94,-13.3 4.4,-41.94 -16.73,-38.31 -20.05,3.45 -27.39,25.07 -29.01,42.73 -0.97,10.7 -1.09,21.62 -0.12,32.3 0.88,9.57 2.34,20.32 7.9,28.46 2.92,4.26 6.42,7.18 11.66,8.13 4.47,0.79 8.55,0.09 12.1,-2.9 7.79,-6.51 11.19,-17.63 14.41,-26.86 0.95,-2.73 -4.08,-1.83 -4.87,0.28zm-27.23 -33.83c0.74,-12.63 1.92,-27.69 9.71,-38.26 1.88,-2.55 4.64,-5.01 7.97,-5.01 4.03,0 7.18,2.9 9.04,6.26 3.52,6.47 3.17,14.88 1.53,21.83 -1.76,7.58 -5.7,15.39 -11.66,20.51 -4.73,4.08 -10.77,6.28 -16.94,7.11 0,-4.15 0.09,-8.3 0.35,-12.44zm79.34 34.94c-2.02,5.66 -4.5,11.1 -7.51,16.29 -0.67,1.18 -3.75,7.65 -5.84,6.07 -0.44,-0.35 -0.76,-2.94 -0.86,-3.52 -0.19,-1.14 -0.21,-2.25 -0.25,-3.41 -0.21,-6.05 -0.3,-12.1 0.16,-18.14 0.44,-6.1 1.81,-12.49 1.27,-18.58 -0.25,-2.94 -3.55,-3.78 -5.98,-3.36 -2.06,0.35 -4.06,1.39 -5.38,2.99 -3.01,-1.92 -7.02,-1.85 -10.34,-0.88 -9.71,2.83 -15.48,12.21 -17.96,21.43 -2.11,7.72 -3.69,21.62 4.47,26.51 3.2,1.9 7.3,2.27 10.61,0.53 3.62,-1.92 5.59,-5.79 7,-9.45 1.25,-3.29 2.2,-6.67 2.99,-10.1 0.3,6.16 1.09,16.87 7.51,19.6 2.46,1.04 6.1,1.41 8.62,0.51 2.97,-1.04 4.91,-3.38 6.56,-5.96 4.15,-6.47 7.32,-13.58 9.85,-20.83 0.95,-2.73 -4.15,-1.85 -4.94,0.3zm-33.32 9.32c-1.02,3.99 -2.09,9.04 -4.98,12.12 -4.52,4.84 -4.57,-7.02 -4.54,-9.2 0.07,-8.23 1.85,-16.24 6.17,-23.34 1.41,-2.32 3.82,-7.09 7.11,-6.65 0.93,0.14 1.69,0.58 2.36,1.18 -2.6,8.5 -3.92,17.29 -6.12,25.88zm90.05 -7.76c-2.04,4.24 -2.99,8.9 -4.98,13.14 -1.6,3.43 -5.05,11.22 -9.38,11.47 -3.29,0.21 -2.85,-2.73 -2.46,-4.82 0.42,-2.32 0.56,-4.8 0.76,-7.14 0.46,-5.17 0.7,-10.38 0.97,-15.57 0.28,-4.84 0.19,-9.62 -1.02,-14.34 -0.93,-3.69 -3.29,-7.37 -6.77,-9.2 -7.76,-4.08 -14,9.06 -16.24,14.18 -2.04,4.64 -3.59,9.41 -4.87,14.25 -0.02,-0.72 -0.05,-1.44 -0.07,-2.18 -0.28,-7.32 0.9,-14.97 -0.25,-22.2 -1.07,-6.63 -11.49,-2.76 -12.58,2.06 -1.72,7.62 -1.25,16.01 -0.83,23.78 0.21,3.78 0.74,7.55 1.51,11.26 0.74,3.69 1.74,7.95 4.94,10.31 2.69,1.97 6.67,0.02 7.67,-2.9 0.3,-0.9 0.49,-1.81 0.6,-2.73 0.05,-0.09 0.07,-0.21 0.09,-0.3 1.9,-9.55 3.78,-19.19 7.42,-28.25 0.95,-2.36 2.02,-4.66 3.22,-6.91 1,-1.88 2.2,-4.5 4.01,-5.72 3.27,-2.23 2.02,1.51 1.81,3.34 -0.32,2.76 -0.37,5.51 -0.6,8.27 -0.39,4.94 -1.14,9.85 -1.69,14.76 -0.58,5.1 -1.09,10.45 0.7,15.36 2.57,7.02 10.45,11.82 17.43,7.44 4.13,-2.6 6.97,-7.25 9.2,-11.49 2.57,-4.84 3.59,-10.22 5.93,-15.13 1.41,-2.92 -3.45,-2.92 -4.5,-0.74zm-404.29 -108.61c-1.78,6.56 -4.31,13.65 -9.48,18.35 -4.84,4.4 -13.21,7.83 -18.91,2.87 -7.16,-6.23 1.48,-16.96 6.07,-21.85 5.61,-6.02 12.47,-10.8 19.58,-14.88 2.23,-1.25 4.47,-2.46 6.74,-3.64 -0.95,6.49 -2.27,12.88 -4.01,19.14zm77.72 -47.18c-2.97,1.32 -6.56,2.36 -10.22,2.83 0.09,-5.56 -0.7,-11.15 -2.48,-16.43 -1.62,-4.84 -4.8,-10.41 -10.47,-10.82 -5.01,-0.37 -9.8,3.06 -11.96,7.44 -1.69,3.45 -1.81,7.35 -0.79,10.94 -0.42,0.6 -0.74,1.25 -0.93,1.97 -2.5,9.25 -5.93,29.61 8.27,31.19 11.75,1.3 17.08,-10.47 18.12,-20.37 4.36,-0.63 8.58,-1.92 12.05,-3.48 2.92,-1.3 1.32,-4.57 -1.6,-3.27zm-15.71 8.48c-0.6,4.75 -2.06,10.64 -6.3,13.51 -5.93,4.01 -5.52,-8.76 -5.26,-11.63 0.16,-1.78 0.46,-3.55 0.81,-5.28 3.27,1.51 7.05,2.09 10.87,2.06 -0.02,0.44 -0.07,0.9 -0.12,1.34zm-9.73 -8.44c0.42,-2.02 0.74,-4.05 0.83,-6.14 0.16,-2.87 -3.73,-3.59 -5.77,-3.24 -0.28,0.05 -0.56,0.12 -0.83,0.19 -0.74,-4.06 -0.05,-8.67 3.85,-10.57 6.21,-3.06 9.5,6.91 10.57,11.24 0.93,3.73 1.39,7.67 1.39,11.56 -3.66,-0.16 -7.18,-1.07 -10.03,-3.04zm57.89 1.9c-1.62,4.38 -3.55,8.62 -5.79,12.7 -1.97,3.59 -4.08,7.58 -7.07,10.43 -1.41,1.37 -2.92,2.62 -4.66,1.16 -1.32,-1.09 -2.27,-2.94 -2.94,-4.47 -1.58,-3.69 -2.23,-7.46 -2.5,-11.43 -0.56,-7.48 0.37,-15.36 2.46,-22.59 0.49,-1.69 1.09,-3.36 1.74,-5.03 0.37,-0.97 0.86,-3.22 1.76,-3.85 2.18,-1.51 3.62,2.57 4.08,3.96 0.88,2.69 1.02,5.47 0.67,8.25 -0.39,2.97 4.59,2.04 4.91,-0.3 1.07,-7.48 -0.86,-19.07 -10.89,-17.12 -9.89,1.9 -15.46,12.26 -17.1,21.3 -1.69,9.15 -1.97,19.81 1.88,28.43 1.88,4.2 5.22,8.18 9.92,8.99 4.08,0.72 8.62,-0.88 11.96,-3.17 4.13,-2.83 6.77,-7.56 9.18,-11.8 2.85,-5.03 5.15,-10.31 7.07,-15.73 0.9,-2.6 -3.92,-1.76 -4.66,0.28zm31.54 -0.83c-2.87,5.65 -5.86,11.31 -9.25,16.71 -1.48,2.39 -3.2,5.33 -5.54,7.04 -3.38,2.5 -3.89,-2.02 -4.31,-4.45 -2.2,-12.63 1.27,-25.28 0.9,-37.89 -0.09,-2.97 -3.73,-3.78 -6.02,-3.38 -3.01,0.51 -5.86,2.48 -6.77,5.49 -2.41,8.16 -2.5,17.4 -2.22,25.84 0.19,6.86 1.3,16.29 8.69,19.19 6.72,2.62 13.02,-1.41 16.87,-6.67 4.73,-6.51 8.3,-13.97 11.8,-21.2 1.32,-2.69 -3.13,-2.64 -4.15,-0.67zm-26.72 -28.62c0.25,0.14 0.56,0.21 0.83,0.21 1.21,0.56 2.78,-0.28 3.59,-1.09 3.48,-3.48 6.6,-7.23 9.39,-11.26 1.67,-2.43 5.19,-7.28 2.36,-10.13 -2.67,-2.71 -7.39,0.74 -9.29,2.76 -1.39,1.48 -2.55,3.24 -3.52,5.03 -0.05,0.12 -0.12,0.25 -0.16,0.37 -0.23,-0.95 -0.42,-1.67 -0.46,-1.81 -0.79,-2.11 -1.74,-4.2 -3.06,-6 -2.04,-2.73 -5.54,-3.24 -7.6,0 -2.2,3.43 -0.86,8.62 0.63,12.07 1.53,3.55 3.75,7.95 7.3,9.85zm107.94 30.82c-2.36,4.91 -3.41,10.29 -5.98,15.13 -1.41,2.69 -3.06,5.56 -5.21,7.74 -2.11,2.11 -6.16,2.69 -6.16,-1.25 0,-0.3 0.53,-2.25 0.65,-2.94 0.25,-1.46 0.46,-2.9 0.56,-4.38 0.21,-2.78 0.39,-5.59 0.56,-8.39 0.39,-6.03 0.95,-12.07 0.46,-18.1 -0.21,-2.67 -0.72,-5.84 -1.95,-8.25 -1.02,-1.97 -2.85,-3.52 -4.47,-4.98 -3.5,-3.15 -7.88,-1.04 -10.78,1.9 -3.61,3.69 -5.86,8.81 -7.74,13.51 -0.3,0.74 -0.58,1.48 -0.86,2.23 -0.42,-4.38 -1.09,-8.69 -2.27,-12.91 -1.72,-6.26 -7.28,-14.23 -14.48,-9.39 -6.3,4.22 -8.99,14.37 -10.77,21.27 -0.25,0.97 -0.49,1.97 -0.72,2.94 0.16,-5.54 0.6,-11.17 -0.25,-16.55 -1.07,-6.63 -11.49,-2.76 -12.58,2.06 -1.72,7.62 -1.25,16.01 -0.83,23.78 0.21,3.78 0.74,7.55 1.51,11.26 0.74,3.69 1.74,7.95 4.94,10.31 2.69,1.97 6.67,0.02 7.67,-2.9 0.63,-1.83 0.76,-3.75 0.7,-5.7 1.41,-13.12 3.36,-27.11 9.53,-38.84 0.6,-1.14 1.51,-3.48 2.69,-4.1 3.17,-1.65 2.64,1.88 2.73,3.41 0.21,3.66 0.37,7.32 0.42,11.01 0.09,7.46 -0.56,15.02 0.6,22.43 1.04,6.54 12.28,2.41 12.03,-3.2 -0.02,-0.42 -0.05,-0.86 -0.07,-1.27 1.39,-5.68 2.97,-11.33 5.31,-16.68 1.16,-2.71 2.48,-5.42 4.06,-7.93 0.58,-0.88 1.21,-1.92 2.02,-2.62 0.6,-0.9 1.48,-1.25 2.62,-1.07 0.32,0.76 0.32,1.51 -0.02,2.22 -0.56,5.89 -1.09,11.8 -1.76,17.68 -0.63,5.72 -1.78,11.59 -1.27,17.36 0.25,2.6 0.7,5.47 2.09,7.76 0.9,1.48 3.01,3.22 4.38,4.36 3.43,2.8 8.02,2.78 11.77,0.63 9.55,-5.52 11.15,-17.8 15.43,-26.81 1.41,-2.92 -3.45,-2.92 -4.5,-0.74zm51.77 -1.55c-2.02,5.66 -4.5,11.1 -7.51,16.29 -0.67,1.18 -3.75,7.65 -5.84,6.07 -0.44,-0.35 -0.76,-2.94 -0.86,-3.52 -0.19,-1.14 -0.21,-2.25 -0.25,-3.41 -0.21,-6.05 -0.3,-12.1 0.16,-18.14 0.44,-6.1 1.81,-12.49 1.27,-18.58 -0.25,-2.94 -3.55,-3.78 -5.98,-3.36 -2.06,0.35 -4.06,1.39 -5.38,2.99 -3.01,-1.92 -7.02,-1.85 -10.34,-0.88 -9.71,2.83 -15.48,12.21 -17.96,21.43 -2.11,7.72 -3.69,21.62 4.47,26.51 3.2,1.9 7.3,2.27 10.61,0.53 3.62,-1.92 5.59,-5.79 7,-9.45 1.25,-3.29 2.2,-6.67 2.99,-10.1 0.3,6.16 1.09,16.87 7.51,19.6 2.46,1.04 6.1,1.41 8.62,0.51 2.97,-1.04 4.91,-3.38 6.56,-5.96 4.15,-6.47 7.32,-13.58 9.85,-20.83 0.95,-2.73 -4.15,-1.85 -4.94,0.3zm-33.32 9.32c-1.02,3.99 -2.09,9.04 -4.98,12.12 -4.52,4.84 -4.57,-7.02 -4.54,-9.2 0.07,-8.23 1.85,-16.24 6.17,-23.34 1.41,-2.32 3.82,-7.09 7.11,-6.65 0.93,0.14 1.69,0.58 2.36,1.18 -2.6,8.5 -3.92,17.29 -6.12,25.88zm78.63 -9.52c-4.31,9.69 -5.31,20.97 -11.47,29.87 -0.56,0.81 -1.88,2.76 -3.2,1.76 -0.79,-0.58 -0.51,-2.85 -0.58,-3.71 -0.21,-2.71 -0.46,-5.42 -0.56,-8.13 -0.21,-5.75 0.02,-11.42 0.44,-17.15 0.23,-2.92 -3.85,-3.64 -5.86,-3.29 -0.93,0.16 -1.97,0.51 -2.94,1.02 -0.21,0.07 -0.44,0.19 -0.65,0.32 -1.21,0.83 -2.62,1.67 -4.06,1.95 -2.11,0.37 -3.11,-0.35 -4.22,-1.83 4.68,-8.6 7.88,-19.12 7.02,-28.97 -0.35,-3.71 -2.43,-6.79 -6.51,-6.42 -4.26,0.39 -7.67,3.99 -10.17,7.14 -5.75,7.25 -6.79,19.21 -2.09,27.3 2.57,4.45 6.1,6.88 11.22,7.14 1.99,0.12 3.85,-0.14 5.58,-0.72 -1.25,10.38 -0.58,34.51 14.76,29.94 5.96,-1.76 8.71,-8.99 10.8,-14.21 2.73,-6.93 4.03,-14.46 6.98,-21.27 1.3,-2.99 -3.52,-2.97 -4.5,-0.74zm-35.71 -3.99c-0.44,-1.16 -0.79,-2.32 -1.07,-3.52 -1.27,-5.72 -0.42,-11.33 0.76,-16.99 0.37,-1.78 2.36,-7.67 4.59,-4.4 1.44,2.09 0.3,7.65 0,9.89 -0.7,5.24 -2.13,10.24 -4.29,15.02zm87.59 4.19c-2.02,5.66 -4.5,11.1 -7.51,16.29 -0.67,1.18 -3.75,7.65 -5.84,6.07 -0.44,-0.35 -0.76,-2.94 -0.86,-3.52 -0.19,-1.14 -0.21,-2.25 -0.25,-3.41 -0.21,-6.05 -0.3,-12.1 0.16,-18.14 0.44,-6.1 1.81,-12.49 1.27,-18.58 -0.25,-2.94 -3.55,-3.78 -5.98,-3.36 -2.06,0.35 -4.06,1.39 -5.38,2.99 -3.01,-1.92 -7.02,-1.85 -10.34,-0.88 -9.71,2.83 -15.48,12.21 -17.96,21.43 -2.11,7.72 -3.69,21.62 4.47,26.51 3.2,1.9 7.3,2.27 10.61,0.53 3.62,-1.92 5.59,-5.79 7,-9.45 1.25,-3.29 2.2,-6.67 2.99,-10.1 0.3,6.16 1.09,16.87 7.51,19.6 2.46,1.04 6.1,1.41 8.62,0.51 2.97,-1.04 4.91,-3.38 6.56,-5.96 4.15,-6.47 7.32,-13.58 9.85,-20.83 0.95,-2.73 -4.15,-1.85 -4.94,0.3zm-33.32 9.32c-1.02,3.99 -2.09,9.04 -4.98,12.12 -4.52,4.84 -4.57,-7.02 -4.54,-9.2 0.07,-8.23 1.85,-16.24 6.17,-23.34 1.41,-2.32 3.82,-7.09 7.11,-6.65 0.93,0.14 1.69,0.58 2.36,1.18 -2.6,8.5 -3.92,17.29 -6.12,25.88z"/>
 </g>
</svg>
