<?xml version="1.0" encoding="UTF-8"?>
<!DOCTYPE svg PUBLIC "-//W3C//DTD SVG 1.1//EN" "http://www.w3.org/Graphics/SVG/1.1/DTD/svg11.dtd">
<!-- Creator: CorelDRAW -->
<svg xmlns="http://www.w3.org/2000/svg" xml:space="preserve" width="39.575mm" height="19.3494mm" version="1.1" style="shape-rendering:geometricPrecision; text-rendering:geometricPrecision; image-rendering:optimizeQuality; fill-rule:evenodd; clip-rule:evenodd"
viewBox="0 0 193.12 94.42"
 xmlns:xlink="http://www.w3.org/1999/xlink"
 xmlns:xodm="http://www.corel.com/coreldraw/odm/2003">
 <defs>
  <style type="text/css">
   <![CDATA[
    .fil0 {fill:#FEFEFE;fill-rule:nonzero}
   ]]>
  </style>
 </defs>
 <g id="Camada_x0020_1">
  <metadata id="CorelCorpID_0Corel-Layer"/>
  <g id="_2726925858336">
   <path class="fil0" d="M66.63 1.14c0.36,-1.81 -2.79,-1.26 -3.08,0.19 -0.62,3.14 -3.68,4.6 -6.45,5.54 -3.05,1.04 -6.26,1.56 -9.49,1.79 -1.66,0.12 -3.33,0.16 -4.99,0.16 -0.01,-0.01 -0.01,-0.04 -0.03,-0.06 -0.9,-1.36 -2.75,-1.03 -3.88,-0.03 -3.76,-0.14 -7.51,-0.43 -11.26,-0.55 -6.37,-0.2 -13.01,0.01 -18.91,2.65 -1.71,0.77 -12.08,7.32 -7.28,9.35 1.19,0.51 3.39,-1.36 1.85,-2.1 -0.46,-0.22 2.59,-2.91 2.73,-3.02 1.14,-0.87 2.39,-1.59 3.69,-2.17 2.88,-1.27 6.03,-1.84 9.17,-2.08 6.34,-0.51 12.69,0.16 19.03,0.43 -0.01,5.33 1.14,10.65 1.74,15.96 0.62,5.5 1.04,11 1.13,16.54 0.09,5.6 -0.17,11.29 -0.87,16.91 -2.88,1.45 -5.73,2.97 -8.48,4.67 -4.69,2.89 -9.12,6.35 -12.59,10.66 -2.91,3.6 -6.47,9.23 -3.52,13.82 2.6,4.04 8.33,5.18 12.78,4.37 5.51,-1 10.13,-4.77 13.23,-9.3 3.36,-4.91 4.93,-10.77 6.18,-16.51 0.68,-3.14 1.19,-6.32 1.55,-9.52 0.75,-0.38 1.5,-0.74 2.26,-1.11 4.73,-2.39 9.46,-5.05 12.75,-9.33 1.33,-1.74 -1.4,-2.43 -2.42,-1.1 -3.14,4.09 -7.73,6.51 -12.3,8.75 0.2,-2.16 0.35,-4.33 0.43,-6.48 0.29,-7 -0.04,-13.99 -1.06,-20.92 -0.84,-5.69 -1.9,-12.05 -4.51,-17.32 4.14,-0.1 8.26,-0.55 12.24,-1.74 4.3,-1.27 9.38,-3.57 10.36,-8.45l0 0zm-29.79 74.34c-1.11,4.09 -2.69,8.52 -5.92,11.46 -3.02,2.75 -8.25,4.89 -11.81,1.79 -4.47,-3.89 0.93,-10.59 3.79,-13.64 3.5,-3.76 7.78,-6.74 12.23,-9.29 1.39,-0.78 2.79,-1.53 4.21,-2.27 -0.59,4.05 -1.42,8.04 -2.5,11.95l0 0z"/>
   <path class="fil0" d="M102.31 53.55c-2.52,-1.83 -6.05,-1.76 -8.92,-0.93 -0.35,0.1 -0.74,0.24 -1.16,0.39 0.34,-7.61 1.03,-15.23 1.31,-22.83 2.31,1.32 3.11,4.32 2.7,7.2 -0.2,1.39 2.15,0.95 2.31,-0.13 0.34,-2.24 0.32,-4.69 -0.94,-6.66 -0.93,-1.44 -2.38,-2.45 -4,-2.94 0.03,-1.76 0.05,-3.5 0.02,-5.26 -0.02,-1.17 -2.21,-0.47 -2.2,0.59 0.02,1.44 0.01,2.87 -0.02,4.31 -4.2,-0.21 -8.69,2.19 -11.24,5.38 -2.68,3.35 -4.47,8.47 -2.43,12.57 1.18,2.37 3.24,3.53 5.57,3.95 -3.24,2.93 -5.95,6.58 -7.33,10.49 -1.05,2.96 -1.13,6.47 0.36,9.3 1.39,2.68 4,4.49 6.85,5.33 2.38,0.69 4.88,0.71 7.29,0.2 0.09,0.76 0.2,1.53 0.32,2.29 0.2,1.24 2.49,0.48 2.32,-0.62 -0.12,-0.77 -0.23,-1.55 -0.33,-2.32 2.95,-1.05 5.66,-2.86 7.7,-5.11 3.43,-3.8 7.21,-11.28 1.82,-15.18l0 0zm-15.04 4.9c0.2,1.22 2.43,0.46 2.26,-0.6 -0.07,-0.53 0.05,-0.98 0.31,-1.38 -0.16,4.94 -0.13,9.86 0.3,14.79 -1.79,0.15 -3.57,-0.09 -5.24,-0.85 -4.26,-1.93 -5.69,-6.54 -4.15,-10.8 0.85,-2.36 2.43,-4.37 4.08,-6.21 1.59,-1.78 3.35,-3.42 5.39,-4.64 -0.1,1.79 -0.21,3.56 -0.29,5.35 -1.64,1 -2.96,2.44 -2.66,4.34l0 0zm3.22 -13.76c-0.26,0 -0.52,0.04 -0.75,0.1 -2.69,0.74 -5.93,0.87 -7.29,-2.08 -1.24,-2.66 -0.56,-5.82 0.89,-8.25 1.55,-2.59 4.3,-5.03 7.49,-4.97 0.19,0 0.36,0.01 0.54,0.03 -0.17,5.05 -0.53,10.1 -0.87,15.16l0 0zm7.11 23.65c-1.5,1.12 -3.27,2 -5.13,2.5 -0.49,-5.33 -0.51,-10.66 -0.31,-16.01 1.16,-0.45 2.43,-0.71 3.21,-0.79 2.24,-0.25 4.76,0.2 6.17,2.13 2.97,4.11 -0.51,9.63 -3.94,12.18l0 0z"/>
   <path class="fil0" d="M129.25 13.07c-1.66,12.92 -1.81,26.02 -1.32,39.02 0.22,5.61 0.56,11.21 1.16,16.8 -0.88,-1.07 -1.87,-2.05 -2.98,-2.91 -3.59,-2.69 -8.42,-4.01 -12.72,-2.24 -4.14,1.69 -6.12,6.16 -4.44,10.37 1.79,4.47 6.79,6.81 11.27,7.47 3.72,0.55 7.48,0.26 11.13,-0.61 0.69,2.5 1.49,5.15 3.41,6.93 1.17,1.09 3.4,-0.07 3.78,-1.43 0.72,-2.6 0.36,-5.41 0.19,-8.1 3.26,-1.5 6.34,-3.39 9.12,-5.45 1.62,-1.22 3.17,-2.5 4.67,-3.86 0.33,2.3 0.8,4.56 1.43,6.77 1.71,5.9 5.37,10.79 11.56,12.3 5.35,1.3 10.36,-0.74 13.95,-4.76 3.95,-4.43 6.35,-10.35 8.33,-15.87 2.23,-6.21 3.76,-12.65 5.3,-19.06 0.43,-1.85 -2.81,-1.27 -3.17,0.19 -2.23,9.29 -4.46,18.72 -8.87,27.27 -1.79,3.47 -4.17,7.91 -8.16,9.2 -4.23,1.36 -7.71,-3.11 -9.04,-6.58 -2.16,-5.69 -2.89,-12.07 -3.01,-18.39 2.75,-3.41 5.24,-7.05 7.47,-10.77 5.82,-9.65 10.45,-20.76 12.15,-31.93 0.67,-4.25 1.58,-10.91 -2.45,-13.86 -3.98,-2.89 -9.07,0 -12.17,2.78 -4.12,3.7 -6.53,9.01 -8.25,14.18 -1.95,5.83 -3.13,11.78 -3.95,17.86 -1.2,8.84 -2.32,18.45 -1.48,27.64 -4.01,3.95 -8.52,7.42 -13.57,9.85 -0.13,-2.59 -0.3,-5.18 -0.46,-7.77 -0.36,-6.16 -0.55,-12.37 -0.68,-18.55 -0.26,-12.62 0.16,-25.23 0.19,-37.85 0.01,-4.28 -7.97,-1.94 -8.39,1.37l0 0zm35.32 6.69c0.96,-3.99 1.79,-8.8 4.24,-12.2 1.27,-1.75 3.72,-3.02 5.86,-2.19 2.3,0.88 2.85,3.6 2.98,5.79 0.3,4.9 -0.87,9.88 -2.2,14.57 -1.27,4.56 -2.89,9.03 -4.85,13.34 -2.68,5.89 -5.93,11.53 -9.75,16.76 0.04,-2.16 0.13,-4.28 0.25,-6.35 0.52,-9.84 1.17,-20.11 3.47,-29.72l0 0zm-43.32 59.31c-4.51,-0.72 -10.26,-3.89 -9.82,-9.23 0.52,-6.57 8.96,-4.44 12.39,-1.74 3.18,2.49 5.12,6.08 6.7,9.75 0.07,0.27 0.13,0.54 0.2,0.8 -3.13,0.69 -6.35,0.93 -9.46,0.42l0 0z"/>
  </g>
 </g>
</svg>
