<?xml version="1.0" encoding="UTF-8"?>
<!DOCTYPE svg PUBLIC "-//W3C//DTD SVG 1.1//EN" "http://www.w3.org/Graphics/SVG/1.1/DTD/svg11.dtd">
<!-- Creator: CorelDRAW -->
<svg xmlns="http://www.w3.org/2000/svg" xml:space="preserve" width="150.825mm" height="24.1822mm" version="1.1" style="shape-rendering:geometricPrecision; text-rendering:geometricPrecision; image-rendering:optimizeQuality; fill-rule:evenodd; clip-rule:evenodd"
viewBox="0 0 14875.97 2385.11"
 xmlns:xlink="http://www.w3.org/1999/xlink"
 xmlns:xodm="http://www.corel.com/coreldraw/odm/2003">
 <defs>
  <style type="text/css">
   <![CDATA[
    .fil0 {fill:#FEFEFE;fill-rule:nonzero}
   ]]>
  </style>
 </defs>
 <g id="Camada_x0020_1">
  <metadata id="CorelCorpID_0Corel-Layer"/>
  <path class="fil0" d="M1597.45 148.71c8.67,-43.36 -66.95,-30.17 -73.88,4.52 -14.92,75.28 -88.12,110.31 -154.72,132.86 -73.19,24.98 -150.2,37.47 -227.56,43.01 -39.9,2.78 -79.78,3.82 -119.68,3.82 -0.35,-0.35 -0.35,-1.04 -0.69,-1.38 -21.51,-32.61 -65.91,-24.64 -92.97,-0.7 -90.2,-3.46 -180.04,-10.41 -269.88,-13.18 -152.64,-4.86 -311.86,0.35 -453.4,63.48 -40.93,18.38 -289.66,175.53 -174.49,224.1 28.45,12.14 81.17,-32.61 44.4,-50.3 -11.11,-5.21 62.09,-69.73 65.56,-72.5 27.41,-20.81 57.24,-38.16 88.46,-52.04 69.03,-30.53 144.65,-44.05 219.93,-49.95 151.94,-12.14 304.23,3.82 456.17,10.41 -0.35,127.66 27.41,255.32 41.63,382.63 14.91,131.82 24.97,263.64 27.05,396.5 2.08,134.26 -4.16,270.58 -20.81,405.52 -69.03,34.7 -137.37,71.12 -203.28,112.05 -112.4,69.38 -218.55,152.29 -301.8,255.66 -69.73,86.37 -155.07,221.32 -84.3,331.28 62.44,96.79 199.82,124.2 306.31,104.77 132.17,-23.94 242.83,-114.47 317.07,-223.05 80.47,-117.6 118.29,-258.09 148.12,-395.81 16.3,-75.28 28.45,-151.6 37.11,-228.26 18.04,-9.01 36.08,-17.69 54.12,-26.71 113.44,-57.24 226.87,-121.07 305.62,-223.75 31.91,-41.62 -33.65,-58.27 -57.94,-26.36 -75.28,98.18 -185.24,156.1 -294.87,209.88 4.86,-51.68 8.33,-103.72 10.42,-155.41 6.93,-167.9 -1.05,-335.44 -25.33,-501.61 -20.12,-136.33 -45.44,-288.97 -108.23,-415.24 99.21,-2.43 198.07,-13.19 293.48,-41.63 103.02,-30.53 224.78,-85.68 248.37,-202.59zm10078.39 554.88c-48.66,23.52 -141.56,68.12 -182.99,75.41l-47.85 -1.12 58.52 -48.96c29.04,-21.87 131.61,-88.77 171.05,-116.16 36.12,-21.92 65.68,-19.32 66.03,5.75 0.35,25.08 -28.64,63.17 -64.76,85.08zm-10792.65 1227.48c-26.72,98.17 -64.52,204.32 -141.88,274.74 -72.5,65.91 -197.74,117.25 -283.07,43.02 -107.19,-93.31 22.2,-253.93 90.89,-327.13 83.94,-90.19 186.63,-161.65 293.12,-222.71 33.31,-18.73 66.95,-36.77 100.95,-54.45 -14.22,97.12 -34,192.87 -60.01,286.53zm1163.48 -706.29c-44.4,19.78 -98.17,35.39 -152.98,42.32 1.39,-83.25 -10.41,-166.85 -37.11,-245.95 -24.28,-72.5 -71.81,-155.76 -156.8,-162 -74.93,-5.55 -146.73,45.79 -179,111.35 -25.33,51.68 -27.05,109.96 -11.8,163.74 -6.24,9.01 -11.1,18.73 -13.88,29.48 -37.46,138.42 -88.81,443.34 123.84,466.93 175.88,19.42 255.66,-156.8 271.27,-304.93 65.21,-9.36 128.36,-28.79 180.39,-52.03 43.71,-19.43 19.78,-68.34 -23.94,-48.92zm-235.2 126.97c-9.01,71.11 -30.87,159.23 -94.35,202.24 -88.81,60.01 -82.56,-131.13 -78.75,-174.14 2.43,-26.71 6.93,-53.07 12.14,-79.09 48.91,22.55 105.46,31.22 162.69,30.87 -0.35,6.59 -1.04,13.53 -1.74,20.12zm-145.7 -126.27c6.25,-30.18 11.11,-60.71 12.5,-91.93 2.43,-43.01 -55.85,-53.76 -86.38,-48.57 -4.16,0.7 -8.32,1.74 -12.49,2.78 -11.11,-60.71 -0.7,-129.74 57.58,-158.18 92.97,-45.79 142.23,103.37 158.18,168.24 13.88,55.84 20.82,114.82 20.82,173.1 -54.81,-2.43 -107.54,-15.96 -150.21,-45.44zm866.55 28.45c-24.28,65.56 -53.07,129.04 -86.73,190.1 -29.48,53.76 -61.05,113.44 -105.8,156.1 -21.16,20.47 -43.7,39.2 -69.72,17.34 -19.78,-16.3 -34,-44.06 -44.06,-66.95 -23.59,-55.15 -33.3,-111.7 -37.46,-171.02 -8.33,-112.05 5.54,-230 36.77,-338.22 7.28,-25.33 16.3,-50.3 26.02,-75.28 5.54,-14.57 12.83,-48.22 26.36,-57.59 32.61,-22.55 54.11,38.51 61.05,59.33 13.18,40.23 15.26,81.86 10.06,123.49 -5.9,44.4 68.69,30.54 73.54,-4.51 15.96,-112.04 -12.83,-285.5 -163.04,-256.35 -148.13,28.45 -231.39,183.5 -256.02,318.79 -25.32,137.03 -29.48,296.59 28.1,425.64 28.1,62.79 78.06,122.46 148.47,134.6 61.05,10.75 129.05,-13.19 179.01,-47.53 61.74,-42.32 101.29,-113.09 137.36,-176.57 42.67,-75.28 77.01,-154.37 105.81,-235.54 13.52,-38.85 -58.63,-26.36 -69.73,4.16zm472.14 -12.49c-43.02,84.64 -87.77,169.28 -138.42,250.11 -22.2,35.73 -47.87,79.78 -82.91,105.46 -50.65,37.47 -58.27,-30.18 -64.52,-66.61 -32.95,-189.06 19.09,-378.47 13.53,-567.18 -1.39,-44.4 -55.84,-56.55 -90.19,-50.65 -45.1,7.63 -87.77,37.12 -101.29,82.22 -36.08,122.1 -37.47,260.51 -33.31,386.79 2.78,102.67 19.43,243.86 130.08,287.22 100.6,39.21 194.96,-21.16 252.54,-99.9 70.77,-97.48 124.19,-209.18 176.57,-317.4 19.78,-40.24 -46.83,-39.55 -62.09,-10.06zm-399.98 -428.42c3.82,2.08 8.32,3.13 12.49,3.13 18.04,8.32 41.63,-4.16 53.77,-16.3 52.04,-52.04 98.87,-108.24 140.49,-168.59 24.97,-36.42 77.71,-108.93 35.39,-151.6 -39.9,-40.59 -110.66,11.1 -139.11,41.28 -20.81,22.2 -38.16,48.57 -52.73,75.28 -0.69,1.74 -1.74,3.82 -2.43,5.55 -3.47,-14.22 -6.24,-24.97 -6.94,-27.05 -11.79,-31.57 -26.01,-62.79 -45.78,-89.85 -30.53,-40.93 -82.91,-48.57 -113.78,0 -32.96,51.35 -12.84,129.05 9.36,180.73 22.9,53.08 56.2,118.99 109.27,147.43zm1615.84 461.38c-35.38,73.54 -50.99,154.02 -89.5,226.53 -21.16,40.23 -45.78,83.25 -78.05,115.86 -31.57,31.56 -92.28,40.24 -92.28,-18.73 0,-4.52 7.98,-33.65 9.72,-44.06 3.82,-21.86 6.93,-43.37 8.32,-65.57 3.13,-41.62 5.9,-83.6 8.32,-125.57 5.9,-90.2 14.22,-180.74 6.94,-270.93 -3.13,-39.9 -10.76,-87.42 -29.15,-123.5 -15.26,-29.49 -42.67,-52.73 -66.95,-74.58 -52.38,-47.18 -117.94,-15.61 -161.3,28.45 -54.12,55.15 -87.77,131.82 -115.87,202.24 -4.51,11.1 -8.67,22.2 -12.83,33.3 -6.24,-65.56 -16.3,-130.08 -34,-193.22 -25.66,-93.66 -108.92,-212.99 -216.81,-140.49 -94.35,63.13 -134.59,215.07 -161.3,318.45 -3.82,14.57 -7.29,29.48 -10.76,44.06 2.44,-82.91 9.02,-167.21 -3.81,-247.69 -15.96,-99.21 -172.06,-41.28 -188.37,30.88 -25.67,114.13 -18.74,239.7 -12.5,355.91 3.13,56.55 11.11,113.09 22.56,168.59 11.1,55.16 26.01,118.99 73.88,154.38 40.24,29.48 99.9,0.35 114.83,-43.37 9.36,-27.4 11.44,-56.2 10.41,-85.34 21.16,-196.34 50.3,-405.87 142.57,-581.4 9.02,-16.99 22.55,-52.03 40.24,-61.4 47.52,-24.63 39.55,28.1 40.93,50.99 3.13,54.81 5.55,109.62 6.24,164.77 1.39,111.7 -8.32,224.79 9.02,335.8 15.6,97.82 183.85,36.08 180.04,-47.88 -0.36,-6.24 -0.7,-12.83 -1.05,-19.08 20.81,-84.99 44.4,-169.64 79.44,-249.76 17.35,-40.59 37.12,-81.17 60.71,-118.64 8.68,-13.18 18.04,-28.79 30.18,-39.2 9.02,-13.53 22.2,-18.73 39.2,-15.96 4.86,11.45 4.86,22.55 -0.35,33.3 -8.32,88.12 -16.3,176.58 -26.36,264.69 -9.36,85.68 -26.71,173.45 -19.08,259.82 3.82,38.85 10.41,81.87 31.22,116.22 13.53,22.2 45.1,48.21 65.57,65.21 51.34,41.97 120.02,41.62 176.22,9.36 142.92,-82.55 166.85,-266.41 231.03,-401.36 21.16,-43.7 -51.69,-43.7 -67.31,-11.1zm774.97 -23.25c-30.18,84.64 -67.3,166.16 -112.4,243.87 -10.05,17.68 -56.19,114.47 -87.42,90.89 -6.59,-5.21 -11.44,-44.06 -12.83,-52.73 -2.77,-17 -3.13,-33.65 -3.82,-51 -3.12,-90.53 -4.51,-181.08 2.43,-271.62 6.6,-91.23 27.06,-186.97 19.09,-278.21 -3.82,-44.06 -53.07,-56.55 -89.5,-50.3 -30.88,5.21 -60.71,20.82 -80.48,44.75 -45.09,-28.79 -105.11,-27.74 -154.71,-13.18 -145.35,42.32 -231.73,182.81 -268.85,320.88 -31.57,115.52 -55.15,323.66 66.95,396.85 47.88,28.45 109.27,34 158.87,7.98 54.12,-28.79 83.61,-86.73 104.77,-141.54 18.73,-49.26 32.95,-99.9 44.75,-151.25 4.51,92.28 16.3,252.54 112.4,293.48 36.77,15.61 91.23,21.17 129.04,7.63 44.4,-15.61 73.54,-50.65 98.18,-89.15 62.09,-96.79 109.62,-203.28 147.42,-311.86 14.22,-40.93 -62.09,-27.75 -73.88,4.51zm-498.84 139.45c-15.27,59.67 -31.23,135.29 -74.58,181.43 -67.64,72.5 -68.34,-105.11 -68,-137.72 1.05,-123.15 27.75,-243.17 92.28,-349.33 21.16,-34.69 57.24,-106.15 106.5,-99.56 13.87,2.08 25.32,8.68 35.38,17.69 -38.85,127.31 -58.63,258.79 -91.58,387.48zm1177.01 -142.57c-64.51,145 -79.44,313.94 -171.71,447.14 -8.32,12.14 -28.1,41.29 -47.88,26.37 -11.8,-8.68 -7.63,-42.68 -8.67,-55.51 -3.13,-40.59 -6.94,-81.17 -8.32,-121.76 -3.13,-86.03 0.35,-171.02 6.59,-256.71 3.47,-43.7 -57.58,-54.45 -87.76,-49.26 -13.88,2.43 -29.49,7.63 -44.06,15.27 -3.13,1.04 -6.59,2.77 -9.72,4.85 -18.04,12.49 -39.2,24.97 -60.71,29.14 -31.56,5.55 -46.48,-5.2 -63.13,-27.4 70.08,-128.7 117.94,-286.19 105.11,-433.62 -5.21,-55.5 -36.42,-101.64 -97.48,-96.1 -63.83,5.9 -114.83,59.67 -152.29,106.85 -86.04,108.58 -101.65,287.58 -31.23,408.65 38.51,66.61 91.23,103.03 167.9,106.85 29.84,1.73 57.58,-2.08 83.6,-10.76 -18.73,155.41 -8.67,516.53 220.97,448.19 89.15,-26.36 130.44,-134.59 161.66,-212.65 40.93,-103.72 60.36,-216.46 104.42,-318.45 19.42,-44.75 -52.73,-44.4 -67.31,-11.1zm-534.56 -59.67c-6.6,-17.34 -11.8,-34.69 -15.96,-52.73 -19.09,-85.68 -6.24,-169.63 11.44,-254.27 5.55,-26.71 35.39,-114.83 68.69,-65.91 21.51,31.23 4.52,114.48 0,148.13 -10.41,78.39 -31.91,153.32 -64.17,224.78zm1311.27 62.79c-30.18,84.64 -67.3,166.16 -112.4,243.87 -10.05,17.68 -56.19,114.47 -87.42,90.89 -6.59,-5.21 -11.44,-44.06 -12.83,-52.73 -2.77,-17 -3.13,-33.65 -3.82,-51 -3.12,-90.53 -4.51,-181.08 2.43,-271.62 6.6,-91.23 27.06,-186.97 19.09,-278.21 -3.82,-44.06 -53.07,-56.55 -89.5,-50.3 -30.88,5.21 -60.71,20.82 -80.48,44.75 -45.09,-28.79 -105.11,-27.74 -154.71,-13.18 -145.35,42.32 -231.73,182.81 -268.85,320.88 -31.57,115.52 -55.15,323.66 66.95,396.85 47.88,28.45 109.27,34 158.87,7.98 54.12,-28.79 83.61,-86.73 104.77,-141.54 18.73,-49.26 32.95,-99.9 44.75,-151.25 4.51,92.28 16.3,252.54 112.4,293.48 36.77,15.61 91.23,21.17 129.04,7.63 44.4,-15.61 73.54,-50.65 98.18,-89.15 62.09,-96.79 109.62,-203.28 147.42,-311.86 14.22,-40.93 -62.09,-27.75 -73.88,4.51zm-498.84 139.45c-15.27,59.67 -31.23,135.29 -74.58,181.43 -67.64,72.5 -68.34,-105.11 -68,-137.72 1.05,-123.15 27.75,-243.17 92.28,-349.33 21.16,-34.69 57.24,-106.15 106.5,-99.56 13.87,2.08 25.32,8.68 35.38,17.69 -38.85,127.31 -58.63,258.79 -91.58,387.48zm2468.5 -75.97c-84.64,-61.41 -203.28,-58.97 -299.71,-31.23 -11.8,3.47 -24.98,7.98 -38.86,13.19 11.45,-255.66 34.7,-511.32 44.06,-766.64 77.71,44.39 104.42,145 90.54,241.78 -6.59,46.83 72.15,31.92 77.7,-4.51 11.45,-75.28 10.75,-157.49 -31.56,-223.75 -31.23,-48.22 -79.79,-82.21 -134.26,-98.87 1.05,-58.97 1.74,-117.6 0.7,-176.57 -0.7,-39.2 -74.24,-15.6 -73.89,19.78 0.7,48.22 0.35,96.44 -0.69,144.65 -141.19,-6.93 -291.74,73.55 -377.42,180.74 -89.85,112.39 -150.2,284.45 -81.53,422.17 39.55,79.44 108.93,118.63 186.98,132.51 -108.93,98.52 -199.82,220.97 -246.3,352.45 -35.38,99.56 -37.81,217.16 12.14,312.21 46.83,89.85 134.25,150.91 230,179.01 79.78,23.24 163.73,23.93 244.91,6.59 3.12,25.67 6.59,51.34 10.75,77.01 6.59,41.62 83.6,15.96 78.05,-20.81 -4.16,-26.02 -7.62,-52.04 -11.1,-78.06 99.21,-35.38 190.1,-96.09 258.43,-171.72 115.17,-127.66 242.14,-378.81 61.05,-509.93zm-505.08 164.43c6.6,40.93 81.52,15.61 75.98,-20.12 -2.43,-17.69 1.74,-32.95 10.41,-46.48 -5.55,165.82 -4.51,331.28 10.06,496.75 -60.02,5.21 -120.02,-3.12 -175.88,-28.45 -142.92,-64.87 -191.14,-219.58 -139.45,-362.85 28.45,-79.09 81.52,-146.73 137.03,-208.49 53.42,-59.66 112.39,-114.82 181.08,-155.76 -3.46,60.02 -6.93,119.68 -9.72,179.7 -55.15,33.65 -99.56,81.86 -89.5,145.7zm108.24 -462.07c-8.68,0 -17.35,1.39 -25.33,3.47 -90.19,24.97 -199.12,29.14 -244.91,-69.73 -41.62,-89.5 -18.73,-195.3 29.84,-277.17 52.04,-87.07 144.31,-168.93 251.5,-166.85 6.24,0 12.14,0.35 18.04,1.05 -5.55,169.63 -17.69,339.26 -29.14,509.24zm238.66 794.39c-50.29,37.46 -109.96,67.3 -172.41,83.94 -16.3,-179 -16.99,-357.99 -10.41,-537.69 38.85,-15.27 81.52,-23.94 107.88,-26.71 75.28,-8.32 159.92,6.59 207.11,71.46 99.9,138.06 -17,323.31 -132.18,408.99zm1505.53 -1376.84c-39.89,309.78 -43.36,623.72 -31.56,935.58 5.2,134.6 13.53,268.85 27.75,402.75 -21.17,-25.67 -44.76,-49.26 -71.47,-69.73 -86.03,-64.51 -201.89,-96.09 -304.92,-53.76 -99.21,40.59 -146.74,147.78 -106.5,248.73 43.01,107.19 162.7,163.38 270.24,179 89.15,13.18 179.34,6.24 266.76,-14.57 16.65,60.01 35.73,123.5 81.87,166.16 28.09,26.02 81.52,-1.74 90.53,-34.34 17.35,-62.44 8.68,-129.74 4.52,-194.26 78.05,-36.08 151.93,-81.17 218.54,-130.78 38.86,-29.14 75.98,-60.01 112.05,-92.61 7.98,55.15 19.08,109.27 34.34,162.35 40.93,141.54 128.69,258.79 277.16,294.86 128.36,31.23 248.38,-17.68 334.41,-114.13 94.71,-106.15 152.3,-248.03 199.82,-380.55 53.42,-148.81 90.19,-303.18 126.97,-456.86 10.41,-44.4 -67.31,-30.53 -75.98,4.51 -53.42,222.71 -106.85,448.89 -212.65,653.9 -43.01,83.25 -99.9,189.75 -195.64,220.63 -101.29,32.61 -184.9,-74.58 -216.81,-157.84 -51.69,-136.34 -69.39,-289.31 -72.16,-440.91 65.91,-81.86 125.58,-168.93 179,-258.09 139.45,-231.38 250.46,-497.8 291.39,-765.6 15.96,-101.98 37.82,-261.56 -58.63,-332.33 -95.4,-69.38 -217.5,0 -291.74,66.61 -98.86,88.81 -156.45,216.12 -197.73,339.96 -46.83,139.8 -74.93,282.37 -94.71,428.07 -28.79,211.95 -55.5,442.29 -35.38,662.57 -96.1,94.71 -204.32,177.96 -325.39,236.23 -3.13,-62.09 -7.29,-124.19 -11.1,-186.28 -8.68,-147.77 -13.19,-296.59 -16.31,-444.72 -6.24,-302.49 3.82,-604.99 4.52,-907.48 0.35,-102.67 -191.15,-46.48 -201.21,32.95zm846.78 160.28c22.9,-95.75 43.01,-210.92 101.64,-292.44 30.53,-41.97 89.15,-72.5 140.5,-52.38 55.15,21.17 68.33,86.38 71.46,138.76 7.29,117.6 -20.81,236.93 -52.73,349.32 -30.53,109.27 -69.38,216.47 -116.21,319.84 -64.18,141.19 -142.24,276.47 -233.81,401.7 1.05,-51.68 3.13,-102.67 5.9,-152.29 12.49,-235.89 28.1,-482.19 83.25,-712.52zm-1038.6 1421.92c-108.24,-17.34 -245.96,-93.31 -235.54,-221.32 12.49,-157.49 214.72,-106.5 296.94,-41.63 76.32,59.67 122.81,145.7 160.61,233.81 1.74,6.59 3.13,12.83 4.86,19.08 -74.93,16.65 -152.29,22.2 -226.87,10.06zm2405.03 -765.6c-30.18,84.64 -67.3,166.16 -112.4,243.87 -10.05,17.68 -56.19,114.47 -87.42,90.89 -6.59,-5.21 -11.44,-44.06 -12.83,-52.73 -2.77,-17 -3.13,-33.65 -3.82,-51 -3.12,-90.53 -4.51,-181.08 2.43,-271.62 6.6,-91.23 27.06,-186.97 19.09,-278.21 -3.82,-44.06 -53.07,-56.55 -89.5,-50.3 -30.88,5.21 -60.71,20.82 -80.48,44.75 -45.09,-28.79 -105.11,-27.74 -154.71,-13.18 -145.35,42.32 -231.73,182.81 -268.85,320.88 -31.57,115.52 -55.15,323.66 66.95,396.85 47.88,28.45 109.27,34 158.87,7.98 54.12,-28.79 83.61,-86.73 104.77,-141.54 18.73,-49.26 32.95,-99.9 44.75,-151.25 4.51,92.28 16.3,252.54 112.4,293.48 36.77,15.61 91.23,21.17 129.04,7.63 44.4,-15.61 73.54,-50.65 98.18,-89.15 62.09,-96.79 109.62,-203.28 147.42,-311.86 14.22,-40.93 -62.09,-27.75 -73.88,4.51zm-498.84 139.45c-15.27,59.67 -31.23,135.29 -74.58,181.43 -67.64,72.5 -68.34,-105.11 -68,-137.72 1.05,-123.15 27.75,-243.17 92.28,-349.33 21.16,-34.69 57.24,-106.15 106.5,-99.56 13.87,2.08 25.32,8.68 35.38,17.69 -38.85,127.31 -58.63,258.79 -91.58,387.48zm1096.54 -156.1c-39.21,107.88 -79.44,220.97 -150.2,312.91 -33.65,43.36 -94.01,100.59 -142.24,39.89 -30.53,-38.16 -48.57,-94.7 -63.82,-140.49 -36.77,-107.54 -47.18,-222.71 -51.69,-335.45 -2.08,-44.05 -3.46,-87.76 -4.16,-131.82 94.01,-14.22 185.59,-47.18 264,-101.64 103.02,-71.11 174.83,-183.85 217.85,-299.72 73.89,-199.12 65.91,-627.87 -250.45,-573.42 -300.07,51.69 -410.04,375.35 -434.32,639.68 -14.57,160.27 -16.3,323.66 -1.74,483.58 13.19,143.26 35.04,304.23 118.3,425.99 43.7,63.82 96.09,107.54 174.49,121.76 66.95,11.8 128,1.39 181.08,-43.36 116.56,-97.49 167.55,-264 215.77,-402.06 14.22,-40.93 -61.05,-27.4 -72.85,4.16zm-407.6 -506.47c11.1,-189.06 28.79,-414.54 145.34,-572.72 28.1,-38.16 69.39,-74.93 119.33,-74.93 60.36,0 107.54,43.36 135.29,93.66 52.73,96.79 47.52,222.71 22.89,326.77 -26.36,113.44 -85.34,230.34 -174.49,307.01 -70.77,61.05 -161.3,94.01 -253.58,106.49 0,-62.09 1.39,-124.19 5.21,-186.28zm1004.96 506.47c-39.21,107.88 -79.44,220.97 -150.2,312.91 -33.65,43.36 -94.01,100.59 -142.24,39.89 -30.53,-38.16 -48.57,-94.7 -63.82,-140.49 -36.77,-107.54 -47.18,-222.71 -51.69,-335.45 -2.08,-44.05 -3.46,-87.76 -4.16,-131.82 94.01,-14.22 185.59,-47.18 264,-101.64 103.02,-71.11 174.83,-183.85 217.85,-299.72 73.89,-199.12 65.91,-627.87 -250.45,-573.42 -300.07,51.69 -410.04,375.35 -434.32,639.68 -14.57,160.27 -16.3,323.66 -1.74,483.58 13.19,143.26 35.04,304.23 118.3,425.99 43.7,63.82 96.09,107.54 174.49,121.76 66.95,11.8 128,1.39 181.08,-43.36 116.56,-97.49 167.55,-264 215.77,-402.06 14.22,-40.93 -61.05,-27.4 -72.85,4.16zm-407.6 -506.47c11.1,-189.06 28.79,-414.54 145.34,-572.72 28.1,-38.16 69.39,-74.93 119.33,-74.93 60.36,0 107.54,43.36 135.29,93.66 52.73,96.79 47.52,222.71 22.89,326.77 -26.36,113.44 -85.34,230.34 -174.49,307.01 -70.77,61.05 -161.3,94.01 -253.58,106.49 0,-62.09 1.39,-124.19 5.21,-186.28zm1187.77 523.12c-30.18,84.64 -67.3,166.16 -112.4,243.87 -10.05,17.68 -56.19,114.47 -87.42,90.89 -6.59,-5.21 -11.44,-44.06 -12.83,-52.73 -2.77,-17 -3.13,-33.65 -3.82,-51 -3.12,-90.53 -4.51,-181.08 2.43,-271.62 6.6,-91.23 27.06,-186.97 19.09,-278.21 -3.82,-44.06 -53.07,-56.55 -89.5,-50.3 -30.88,5.21 -60.71,20.82 -80.48,44.75 -45.09,-28.79 -105.11,-27.74 -154.71,-13.18 -145.35,42.32 -231.73,182.81 -268.85,320.88 -31.57,115.52 -55.15,323.66 66.95,396.85 47.88,28.45 109.27,34 158.87,7.98 54.12,-28.79 83.61,-86.73 104.77,-141.54 18.73,-49.26 32.95,-99.9 44.75,-151.25 4.51,92.28 16.3,252.54 112.4,293.48 36.77,15.61 91.23,21.17 129.04,7.63 44.4,-15.61 73.54,-50.65 98.18,-89.15 62.09,-96.79 109.62,-203.28 147.42,-311.86 14.22,-40.93 -62.09,-27.75 -73.88,4.51zm-498.84 139.45c-15.27,59.67 -31.23,135.29 -74.58,181.43 -67.64,72.5 -68.34,-105.11 -68,-137.72 1.05,-123.15 27.75,-243.17 92.28,-349.33 21.16,-34.69 57.24,-106.15 106.5,-99.56 13.87,2.08 25.32,8.68 35.38,17.69 -38.85,127.31 -58.63,258.79 -91.58,387.48zm1348.04 -116.21c-30.53,63.48 -44.75,133.21 -74.58,196.69 -23.94,51.34 -75.62,167.9 -140.49,171.72 -49.27,3.12 -42.67,-40.94 -36.77,-72.16 6.24,-34.69 8.32,-71.8 11.44,-106.85 6.94,-77.36 10.41,-155.4 14.57,-233.11 4.16,-72.49 2.78,-143.96 -15.26,-214.73 -13.88,-55.15 -49.26,-110.31 -101.29,-137.72 -116.21,-61.05 -209.52,135.64 -243.17,212.3 -30.53,69.38 -53.77,140.84 -72.85,213.34 -0.35,-10.75 -0.69,-21.5 -1.05,-32.61 -4.16,-109.62 13.53,-224.09 -3.81,-332.33 -15.96,-99.21 -172.06,-41.28 -188.37,30.88 -25.67,114.13 -18.74,239.7 -12.5,355.91 3.13,56.55 11.11,113.09 22.56,168.59 11.1,55.16 26.01,118.99 73.88,154.38 40.24,29.48 99.9,0.35 114.83,-43.37 4.51,-13.53 7.28,-27.05 9.01,-40.93 0.69,-1.39 1.05,-3.13 1.39,-4.51 28.45,-142.93 56.55,-287.23 111.01,-422.87 14.22,-35.38 30.17,-69.72 48.21,-103.37 14.92,-28.1 32.96,-67.3 60.02,-85.68 48.91,-33.31 30.18,22.55 27.05,49.95 -4.85,41.29 -5.54,82.56 -9.01,123.85 -5.9,73.88 -16.99,147.42 -25.33,220.97 -8.67,76.31 -16.3,156.45 10.42,229.99 38.51,105.11 156.45,176.91 260.86,111.35 61.75,-38.85 104.42,-108.58 137.72,-172.06 38.51,-72.5 53.77,-152.98 88.81,-226.53 21.16,-43.7 -51.68,-43.7 -67.3,-11.1z"/>
 </g>
</svg>
